<svg width="120" height="115" viewBox="0 0 120 115" fill="none" xmlns="http://www.w3.org/2000/svg">
<path d="M113.712 77.5834C110.036 72.9631 105.811 68.702 100.967 65.293C96.821 62.3738 92.1628 60.1949 87.2244 58.9511C82.2388 57.7064 77.0489 57.3889 71.9623 58.1856C69.2241 58.6132 66.5345 59.3555 63.9508 60.3947C61.5961 61.3626 59.2203 62.4156 57.2006 63.9703C56.1958 64.7383 55.2532 65.6596 54.5807 66.7482C53.8797 67.8457 53.4115 69.0906 53.1512 70.3494C52.6955 72.5641 53.1786 75.0836 54.6093 76.853C56.1321 78.7193 58.7594 79.2684 60.875 78.0294C63.1251 76.7171 64.0826 74.1422 63.5809 71.6128C63.0965 69.1408 61.5052 66.9974 59.4781 65.5863C57.2928 64.0673 54.6704 63.3282 52.068 62.9126C46.7499 62.0696 41.3645 62.7081 36.111 63.7295C30.5911 64.8024 25.136 66.2949 19.5352 66.8434C14.6939 67.3126 9.75182 66.9337 5.20693 65.1278C4.10122 64.6865 3.03535 64.17 2.00932 63.5782C1.53367 63.3022 0.917311 63.3368 0.563675 63.8237C0.258597 64.2641 0.324592 64.9974 0.800248 65.2735C4.96908 67.6988 9.67086 68.9377 14.4773 69.076C19.7942 69.2441 25.0476 68.2227 30.2375 67.0954C35.2942 65.9938 40.372 64.8071 45.547 64.611C48.0299 64.5297 50.5439 64.7058 52.9745 65.1748C55.2444 65.6309 57.5418 66.4868 59.28 68.082C60.6858 69.3566 61.7878 71.3852 61.6408 73.3783C61.4877 75.2476 59.9797 76.7845 58.1095 76.6124C57.9962 76.6005 57.8642 76.5788 57.7322 76.557C57.8642 76.5788 57.6388 76.5075 57.5915 76.5065C57.4794 76.4471 57.3761 76.4165 57.2541 76.3759C57.2167 76.3561 57.1607 76.3264 57.1233 76.3066C57.254 76.3759 57.1046 76.2967 57.0486 76.2671C56.8618 76.1681 56.6763 76.0216 56.5194 75.8663C56.6489 75.983 56.4547 75.8079 56.4273 75.7693C56.3351 75.6723 56.2529 75.5565 56.1608 75.4596C55.6752 74.8411 55.3104 73.9495 55.1809 73.1103C54.9991 72.0989 55.0327 71.1776 55.354 70.1197C55.6765 69.0143 56.1372 68.0544 56.842 67.1756C58.2802 65.4092 60.4605 64.2285 62.54 63.2834C64.7825 62.2561 67.0874 61.3822 69.4794 60.7953C74.2534 59.6403 79.1607 59.5431 83.987 60.3663C88.5493 61.146 93.022 62.8173 97.0127 65.1724C101.712 67.951 105.847 71.6589 109.462 75.7171C110.372 76.7532 111.254 77.7982 112.115 78.8808C112.95 79.9248 114.556 78.6086 113.722 77.5646" fill="#B7B7B7"/>
<path d="M43.1142 104.313L23.0073 109.287C23.0073 109.287 21.2383 100.757 20.6078 95.6077C19.9773 90.4584 22.6921 84.4509 22.6921 84.4509C22.6921 84.4509 22.2017 90.6511 24.3385 94.697C25.2142 96.3433 28.2092 101.475 28.2092 101.475C28.2092 101.475 28.8572 96.571 29.0499 94.9071C29.5228 90.7912 26.2651 87.3583 26.2651 87.3583C26.2651 87.3583 31.0816 88.812 32.2026 89.6002C35.0575 91.5618 35.145 94.3817 35.145 94.3817C35.145 94.3817 36.1959 89.1623 34.7597 84.5209C33.7263 81.2281 28.4369 74.4149 28.4369 74.4149C28.4369 74.4149 37.527 82.2615 41.6605 92.1924C43.2544 96.0456 43.1142 104.313 43.1142 104.313Z" fill="#31AB41"/>
<path d="M40.9072 104.54L52.7296 104.47C52.7296 104.47 52.5545 99.6888 52.2217 96.8689C51.994 94.9948 49.5594 91.2117 49.5594 91.2117C49.5594 91.2117 50.6629 94.4344 50.0323 96.8864C49.7696 97.8673 48.8063 101.02 48.8063 101.02C48.8063 101.02 47.7729 98.4978 47.4577 97.6396C46.6345 95.5028 47.9831 93.2434 47.9831 93.2434C47.9831 93.2434 45.5135 94.6621 44.9881 95.2401C43.6745 96.6763 44.0073 98.1825 44.0073 98.1825C44.0073 98.1825 42.7112 95.5378 42.8863 92.8931C43.0089 91.0015 45.0231 86.6578 45.0231 86.6578C45.0231 86.6578 41.0473 92.0699 40.1015 97.9023C39.7337 100.162 40.9422 104.54 40.9422 104.54" fill="#31AB41"/>
<path d="M106.329 102.786L118.491 105.184C118.491 105.184 119.561 101.072 119.943 98.5896C120.324 96.1072 118.682 93.211 118.682 93.211C118.682 93.211 118.979 96.2001 117.686 98.1506C117.156 98.9443 115.345 101.418 115.345 101.418C115.345 101.418 114.953 99.054 114.836 98.2519C114.55 96.2676 116.521 94.6127 116.521 94.6127C116.521 94.6127 113.607 95.3135 112.929 95.6935C111.202 96.6391 111.149 97.9986 111.149 97.9986C111.149 97.9986 110.514 95.4824 111.383 93.2448C112.008 91.6574 115.207 88.3728 115.207 88.3728C115.207 88.3728 109.709 92.1556 107.208 96.9431C106.244 98.8007 106.329 102.786 106.329 102.786Z" fill="#31AB41"/>
<path d="M107.664 102.896L100.513 102.862C100.513 102.862 100.619 100.557 100.82 99.1978C100.958 98.2943 102.431 96.4705 102.431 96.4705C102.431 96.4705 101.763 98.0241 102.145 99.2062C102.304 99.6791 102.886 101.199 102.886 101.199C102.886 101.199 103.511 99.9831 103.702 99.5693C104.2 98.5392 103.384 97.45 103.384 97.45C103.384 97.45 104.878 98.1339 105.196 98.4125C105.99 99.1049 105.789 99.8311 105.789 99.8311C105.789 99.8311 106.573 98.5561 106.467 97.2811C106.393 96.3692 105.175 94.2751 105.175 94.2751C105.175 94.2751 107.579 96.8842 108.151 99.696C108.374 100.785 107.643 102.896 107.643 102.896" fill="#31AB41"/>
<path d="M70.1674 67.8302C70.9406 71.2544 71.7138 74.7338 71.1063 78.158C70.8302 79.7044 70.3331 81.1403 69.7808 82.6315C67.903 87.823 66.0253 93.0145 64.1475 98.2612C63.9818 98.7031 63.8161 99.1449 63.9266 99.5867C64.037 100.029 64.3132 100.36 64.5893 100.636C66.3566 102.459 68.5658 103.729 70.9958 104.392C70.9406 102.514 69.4494 101.023 68.0135 99.6972C72.3213 93.9534 76.5187 87.9887 79.004 81.2508C79.3906 80.2015 79.722 79.0969 79.8877 77.9371C79.9981 76.8325 79.8877 75.6727 79.8877 74.5681C79.6668 71.5305 79.4458 68.5482 79.2249 65.5106" fill="white"/>
<path d="M69.7801 67.94C70.4428 70.8119 71.0503 73.6838 70.8847 76.6109C70.719 79.538 69.5039 82.2442 68.5098 84.9504C67.5157 87.6566 66.5216 90.4733 65.4723 93.2899C64.4229 96.1066 64.4781 96.1066 63.9258 97.4873C63.3736 98.868 63.1526 99.586 63.9258 100.58C65.6379 102.624 68.2889 104.06 70.8294 104.778C73.37 105.495 71.3265 104.667 71.3265 104.391C71.216 102.292 69.7249 100.801 68.2337 99.4203V99.8622C71.1608 96.0514 73.9775 92.1302 76.2971 87.9328C78.6167 83.7354 78.3958 83.7906 79.2242 81.5815C80.0526 79.3723 79.9974 79.3723 80.1631 78.2125C80.3288 77.0527 80.2735 75.7824 80.1631 74.5674C79.9422 71.5298 79.7213 68.5475 79.5003 65.5099C79.2794 62.4723 78.6719 65.0129 78.7271 65.5099C78.8928 68.0504 79.1137 70.6462 79.2794 73.1867C79.4451 75.7272 79.5003 75.7272 79.5003 76.9975C79.5003 78.2677 79.169 79.3723 78.7824 80.5321C77.236 85.0056 74.8611 89.0926 72.2654 93.0138C69.6696 96.935 69.2278 97.3216 67.6262 99.4756C66.0245 101.629 67.6262 99.8622 67.6814 99.9174C68.9517 101.077 70.4428 102.458 70.5533 104.336L71.0503 103.949C68.6755 103.286 66.4664 102.071 64.8095 100.304C63.1526 98.5367 64.1468 99.089 64.4229 98.2605C64.699 97.4321 64.92 96.8798 65.1409 96.2171C65.6379 94.8916 66.0798 93.5661 66.5768 92.2406C67.5157 89.5896 68.5098 86.9387 69.4487 84.2877C70.3876 81.6367 71.3817 79.3171 71.5474 76.6109C71.7131 73.9047 71.1056 70.5357 70.4428 67.6086C69.7801 64.6815 69.6144 67.3325 69.6696 67.8295L69.7801 67.94Z" fill="#161616"/>
<path d="M81.2122 67.1668C82.7034 73.2972 84.1394 79.4828 84.4155 85.7789C84.6364 91.5779 83.8632 97.3769 84.4155 103.176C87.2874 103.507 90.2145 103.507 93.0864 103.121C93.473 103.121 93.9148 103.01 94.2462 102.734C94.5776 102.458 94.7433 101.961 94.4671 101.63C92.6446 101.298 90.7668 100.912 88.9443 100.58C92.2028 89.2031 92.4789 76.9423 89.7727 65.4547" fill="white"/>
<path d="M80.8262 67.2223C81.9307 71.7511 83.0353 76.3351 83.5876 80.9743C84.1399 85.6135 84.0294 90.4184 83.8637 95.1128C83.6981 99.8073 83.7533 100.47 84.0294 103.121C84.3056 105.772 84.1951 103.508 84.416 103.508C86.1281 103.673 87.8402 103.784 89.5523 103.729C91.2644 103.673 91.2092 103.673 92.0376 103.563C92.866 103.452 93.4735 103.508 94.081 103.231C94.6886 102.955 95.517 101.409 94.302 101.188C92.5346 100.801 90.7673 100.525 89.0552 100.194L89.3314 100.691C91.8719 91.7439 92.5899 82.2998 91.4853 73.0214C90.3807 63.7429 90.7121 67.8299 90.1598 65.2893C89.6075 62.7488 89.2761 65.0132 89.3866 65.5103C91.4853 74.4573 91.7614 83.8462 90.2703 92.9037C88.7791 101.961 89.2761 97.9847 88.5582 100.415C87.8402 102.845 88.6134 100.857 88.8343 100.912C90.1598 101.188 91.4853 101.409 92.7556 101.685C94.0258 101.961 93.3078 101.795 93.5288 101.851C93.6944 101.851 93.8601 101.906 94.081 101.961C94.1915 102.237 94.081 102.403 93.8601 102.513C93.3631 102.79 92.5899 102.79 92.0376 102.845C89.4971 103.121 86.9565 103.066 84.416 102.79L84.8026 103.176C84.3608 98.3713 84.8026 93.5664 84.8026 88.7615C84.8026 83.9566 84.2503 79.4279 83.3114 74.8439C82.3726 70.2599 82.1516 69.6524 81.5441 67.0566C80.9366 64.4609 80.6605 66.7805 80.7709 67.2776L80.8262 67.2223Z" fill="#161616"/>
<path d="M91.6814 95.7497C92.1232 95.6945 94.3358 74.957 90.7966 67.8786C90.7966 65.6666 90.3542 65.3341 90.3542 64.7818C90.2437 63.8982 88.7792 52.9171 88.2821 52.9171C81.7099 53.0276 75.1377 53.0828 68.5655 53.1933C68.0684 53.1933 65.4141 90.6083 65.5798 91.7681C68.2307 91.7681 71.7769 95.7491 74.4279 95.3073C75.2011 98.287 81.5062 80.7082 79.7366 72.3026C79.9426 67.0004 79.6814 66.4481 79.7366 66.2272C80.1232 64.8465 79.6112 63.6315 79.9426 62.306C80.3292 63.8524 81.562 70.7562 81.9486 72.3026C82.1143 72.9653 81.0667 97.353 83.2758 97.0769L91.6814 95.7497Z" fill="#161616"/>
<path d="M67.1299 99.8626C66.8538 99.8626 66.5776 99.8626 66.3567 99.7521C65.9701 99.5864 64.5342 97.0459 64.6446 96.7698C64.4789 97.2668 64.3133 97.7639 64.0923 98.2057C63.9267 98.6475 63.761 99.0894 63.8714 99.5312C63.9819 99.973 64.258 100.304 64.5342 100.581C66.3015 102.403 68.5106 103.673 70.9407 104.336C70.9407 103.839 69.7257 100.139 68.9525 100.36C69.2838 100.249 69.6152 100.194 69.9466 100.083C70.278 99.973 70.6646 99.6969 70.4989 99.4207C70.4436 99.3103 70.278 99.2551 70.1123 99.2551C69.2286 99.1998 68.0688 99.7521 67.0747 99.7521L67.1299 99.8626Z" fill="#161616"/>
<path d="M67.1298 99.4756C66.688 99.4756 66.5775 99.4756 66.3566 99.1443C66.1357 98.8129 65.97 98.5367 65.7491 98.2606C65.5282 97.9845 65.3625 97.6531 65.1968 97.3217C65.0311 96.9904 65.0864 97.1008 65.0311 96.9903C64.9759 96.8799 65.0311 96.8799 65.0311 96.8247C65.0311 96.7694 65.0311 96.8247 65.0311 96.8799C65.1416 96.3828 64.4789 96.2171 64.2579 96.659C64.037 97.1008 63.8713 97.7635 63.6504 98.3158C63.4295 98.8681 63.3743 99.31 63.54 99.807C63.8713 100.691 64.755 101.409 65.473 101.961C67.0746 103.231 68.8971 104.17 70.8854 104.722C72.8736 105.275 71.3824 104.612 71.3824 104.336C71.3824 104.06 71.2168 103.673 71.1615 103.342C70.9958 102.789 70.7749 102.292 70.6092 101.795C70.4436 101.298 69.836 99.807 68.9524 100.028L69.1733 100.801C69.7256 100.635 70.4436 100.58 70.8302 100.083C71.2168 99.5861 70.9958 99.1443 70.4988 98.9786C70.0017 98.8129 69.4494 98.9786 68.9524 99.089C68.4553 99.1995 67.7926 99.4204 67.1298 99.4756C66.4671 99.5309 66.6328 100.304 67.1298 100.249C67.903 100.249 68.5658 99.9727 69.2838 99.807C70.0017 99.6413 69.6151 99.7518 69.7808 99.7518C69.9465 99.7518 69.9465 99.7518 70.0017 99.7518C70.057 99.7518 70.2226 99.6413 70.1122 99.6966C70.0017 99.7518 69.9465 99.807 69.9465 99.807C69.836 99.807 69.7256 99.8622 69.6151 99.9175C69.3942 99.9727 69.1181 100.028 68.8972 100.138C68.4001 100.249 68.621 100.967 69.1181 100.912C69.0076 100.912 69.0628 100.912 69.1181 100.967C69.1733 101.022 69.339 101.243 69.3942 101.353C69.6151 101.74 69.7808 102.127 69.9465 102.513C70.1122 102.9 70.2779 103.342 70.3883 103.728C70.4988 104.115 70.4988 104.06 70.554 104.225C70.6092 104.391 70.554 104.336 70.554 104.391C70.554 104.446 70.554 104.446 70.554 104.446L71.0511 104.06C69.2838 103.563 67.6269 102.789 66.1909 101.63C64.755 100.47 65.5282 101.077 65.1968 100.746C64.8655 100.415 64.5341 100.138 64.3132 99.807C64.0923 99.4756 64.2579 98.8129 64.4236 98.3158C64.5893 97.8188 64.755 97.3217 64.9759 96.8799L64.2027 96.659C64.1475 96.9351 64.3132 97.2665 64.4236 97.4874C64.5893 97.9292 64.8655 98.3158 65.0864 98.7024C65.3073 99.089 65.5282 99.4204 65.8043 99.7518C66.0805 100.083 66.5775 100.249 67.0746 100.249C67.5717 100.249 67.5717 99.4756 67.0746 99.4756H67.1298Z" fill="#161616"/>
<path d="M93.0855 103.12C93.4721 103.12 93.9139 103.01 94.2453 102.734C94.5767 102.458 94.7423 101.96 94.4662 101.629C94.3005 101.353 90.6002 100.58 90.1584 100.58C90.6002 100.193 90.8763 99.5857 90.7659 98.9781C89.5508 99.5304 89.0538 100.58 88.5567 101.684C88.1701 101.574 84.2489 100.525 84.1937 100.304C84.1937 101.243 84.3041 102.181 84.3594 103.065C87.2312 103.396 90.1584 103.396 93.0303 103.01L93.0855 103.12Z" fill="#161616"/>
<path d="M93.1968 103.452C94.0252 103.342 95.2403 102.845 94.9641 101.74C94.688 100.635 94.3014 101.077 93.8595 100.912C93.1416 100.691 92.4788 100.525 91.7609 100.415C91.0429 100.304 90.7115 100.138 90.2144 100.194L90.4906 100.856C91.0981 100.359 91.2638 99.6413 91.2086 98.9233C91.1533 98.2054 90.822 98.592 90.6563 98.7024C89.4412 99.3099 88.7785 100.415 88.2814 101.63L88.7785 101.353C88.0605 101.188 87.3426 100.967 86.6798 100.801C86.0171 100.635 85.7409 100.525 85.2991 100.415C84.8573 100.304 84.9677 100.304 84.802 100.249C84.6364 100.194 84.6916 100.249 84.6916 100.249C84.5259 100.249 84.6364 100.028 84.6916 100.359C84.5811 99.9727 83.9184 100.028 83.9184 100.47C83.9184 101.409 84.0288 102.348 84.0841 103.231C84.1393 104.115 84.2498 103.618 84.4707 103.618C87.3426 103.949 90.2697 103.949 93.1416 103.563C96.0135 103.176 93.6386 102.734 93.1416 102.789C90.2697 103.176 87.3426 103.176 84.4707 102.845L84.8573 103.231C84.7468 102.292 84.6916 101.353 84.6916 100.47L83.9184 100.58C84.0288 100.856 84.3602 100.967 84.5811 101.077C85.023 101.243 85.52 101.409 85.9618 101.519C86.7903 101.74 87.6187 102.016 88.5024 102.237C89.386 102.458 88.889 102.182 88.9994 101.961C89.4412 100.912 89.9935 99.9727 91.0429 99.4756L90.4906 99.2547C90.5458 99.7518 90.3249 100.138 89.9935 100.47C89.6622 100.801 89.9935 101.132 90.2697 101.132C91.0981 101.132 92.037 101.409 92.8654 101.63C93.6939 101.85 93.8043 101.795 94.1909 102.016C94.5775 102.237 94.4118 102.071 94.3014 102.348C94.0805 102.789 93.5282 102.789 93.0863 102.845C92.6445 102.9 92.8102 103.673 93.3073 103.618L93.1968 103.452Z" fill="#161616"/>
<path d="M67.6272 45.0747C67.5719 45.13 67.7929 47.6705 67.8481 47.8914C67.8481 49.6035 67.9585 51.2604 68.1795 53.0277C68.1795 53.2486 68.2347 53.4695 68.4004 53.6352C68.5108 53.7457 68.6765 53.7456 68.787 53.8009C72.3216 54.3532 75.8563 54.6293 79.3909 54.5741C82.5942 54.5741 85.5213 53.9666 88.6141 53.5247C89.0559 46.7316 89.1111 40.0489 88.6141 33.2558C88.5589 32.3169 88.4484 31.3228 87.8409 30.6048C87.3991 30.0525 86.6811 29.7764 86.0183 29.5002C80.5507 27.3463 71.4932 26.6284 66.4674 30.163C65.2523 30.9914 64.3135 32.1512 63.3746 33.311C61.055 36.0725 58.7354 38.8891 56.9128 42.0372C57.4099 42.8104 62.3252 49.8796 63.3193 48.8303C64.6448 47.5048 66.0808 46.2345 67.6272 45.1852V45.0747Z" fill="#1A73E8"/>
<path d="M67.2955 44.8543C67.1298 45.1857 67.2955 45.6828 67.2955 46.0141C67.2955 46.5664 67.4059 47.1187 67.4611 47.671C67.5164 48.6651 67.5164 49.6592 67.5716 50.6534C67.6268 51.6475 67.6821 51.8132 67.6821 52.4207C67.6821 53.0282 67.6821 53.3043 67.903 53.6357C68.3448 54.2985 69.6151 54.2432 70.333 54.2984C71.5481 54.4641 72.7079 54.5746 73.9229 54.685C76.2977 54.8507 78.7278 54.9612 81.1026 54.8507C83.4775 54.7403 86.1837 54.2432 88.669 53.8014C91.1543 53.3596 88.9451 53.5805 88.9451 53.4148C89.2213 48.5547 89.3869 43.6945 89.2213 38.8344C89.0556 33.9743 89.166 36.4044 89.0556 35.1893C88.9451 33.9743 89.0003 33.0354 88.7794 31.9308C88.5585 30.8263 88.2824 30.3292 87.6196 29.8321C86.9569 29.3351 86.0732 29.0037 85.3 28.7276C82.0415 27.5678 78.5069 27.0707 75.0827 27.1812C71.6585 27.2916 68.3448 27.9544 65.7491 30.053C63.1533 32.1517 62.3801 33.6429 60.8889 35.5207C59.3978 37.3985 57.7961 39.4972 56.5259 41.6511C55.2556 43.805 56.4706 41.9272 56.5259 42.0377C57.7409 44.0259 59.2321 45.9037 60.8337 47.5606C62.4353 49.2174 62.2144 49.1069 63.0428 49.1069C63.8713 49.1069 64.2026 48.2233 64.5892 47.8367C65.5834 46.8978 66.6327 46.0694 67.7373 45.2409C68.8419 44.4125 67.7373 44.3021 67.3507 44.5782C66.467 45.2409 65.5834 45.9037 64.7549 46.6217C63.9265 47.3396 63.9265 47.3949 63.4847 47.7815C63.0428 48.1681 63.0428 48.2785 62.9324 48.2785C62.6562 48.2785 62.2696 47.8919 62.104 47.7262C61.7174 47.3949 61.3308 46.953 60.9442 46.5664C59.5634 45.02 58.1827 43.3632 57.1334 41.5406V41.9272C58.2379 40.0494 59.453 38.3373 60.7785 36.6253C62.104 34.9132 63.319 33.3668 64.6997 31.8756C67.0745 29.2798 70.2778 28.1753 73.702 27.8991C77.1262 27.623 80.3847 27.9544 83.5879 28.838C86.7912 29.7217 87.3987 29.7217 87.8958 31.489C88.3928 33.2563 88.1167 33.5325 88.1719 34.5266C88.2271 35.5207 88.2824 36.9014 88.3376 38.0612C88.5033 43.087 88.3376 48.1681 88.0614 53.1939L88.3376 52.8073C85.7418 53.1939 83.2013 53.6909 80.5503 53.8014C77.8994 53.9118 75.1932 53.8014 72.5974 53.5252C70.0017 53.2491 71.3824 53.4148 70.7196 53.3043C70.0569 53.1939 68.6762 53.3043 68.3448 52.6416C68.0134 51.9788 68.2896 51.8684 68.2343 51.537C68.1791 51.2056 68.2343 50.9847 68.1791 50.7086C68.1791 49.9906 68.0687 49.2726 68.0687 48.5547C68.0687 47.8367 68.0134 47.1187 67.9582 46.456C67.903 45.7932 67.903 45.7932 67.8477 45.4619C67.7925 45.1305 67.8477 45.1305 67.8477 45.02C67.8477 44.9096 67.8477 44.6887 67.8477 44.9096C68.0687 44.4677 67.4059 44.0811 67.185 44.523L67.2955 44.8543Z" fill="#1A73E8"/>
<path d="M56.9124 42.2029C55.3659 44.0254 53.2673 46.0137 52.8807 48.3885C52.3284 51.5918 53.3225 54.2427 55.7525 56.2862C58.2378 58.3849 60.8336 60.3731 63.5398 62.3061C66.246 64.2391 66.246 64.1839 67.6267 65.0676C68.179 65.3989 68.6761 65.6198 69.2836 65.896C69.9463 66.1721 70.6091 66.7797 71.1614 67.2215C71.3823 67.3872 71.7136 67.6081 71.9898 67.3872C72.2107 67.2215 72.1555 66.8349 72.045 66.5587C71.7689 65.896 71.2718 65.2885 70.6643 64.8466C71.327 65.3989 72.1002 65.8408 72.9287 66.0617C73.0944 66.1169 73.3705 66.1721 73.481 66.0617C73.6467 65.896 73.481 65.5646 73.3705 65.3437C72.8734 64.7362 72.2659 64.1839 71.6584 63.6868C72.3212 64.0182 73.0391 64.3496 73.7571 64.6257C74.0333 64.7362 74.4751 64.7914 74.5855 64.5153C74.6408 64.2944 74.5303 64.1287 74.3646 63.963C73.8123 63.3555 73.0944 62.8032 72.3764 62.4166C73.0391 62.6927 73.7019 63.0241 74.4199 63.245C74.5303 63.245 74.696 63.3555 74.8064 63.245C74.9169 63.1898 74.9721 63.0241 74.9169 62.8584C74.9169 62.748 74.7512 62.6375 74.6408 62.5271C73.7019 61.6434 72.5973 61.0359 71.6032 60.2627C70.4986 59.4342 69.4493 58.6058 68.4551 57.7221C66.6878 56.1205 64.5891 54.9055 62.9875 53.0277C62.6561 52.6411 62.3248 52.1993 62.1591 51.7022C61.8277 50.6529 62.8218 49.6035 63.3741 48.7751" fill="white"/>
<path d="M56.6916 41.927C55.0347 43.86 52.9913 45.793 52.4942 48.3887C51.9971 50.9845 52.4942 53.0832 53.9854 55.0162C55.4765 56.9492 55.9736 57.0044 57.0782 57.8881C58.1827 58.7717 59.6187 59.9315 60.9442 60.8704C62.2697 61.8093 63.4847 62.7482 64.8102 63.6319C66.1357 64.5155 67.4059 65.4544 68.8419 66.0619C70.2778 66.6694 70.1674 66.8904 70.7749 67.3874C71.3824 67.8845 71.769 68.0502 72.2108 67.6636C73.205 66.8351 71.5481 65.0678 70.8853 64.5707C70.2226 64.0737 69.9465 64.7917 70.3331 65.123C70.8853 65.5649 71.4929 65.9515 72.2108 66.2828C72.9288 66.6142 73.3706 66.7799 73.7572 66.2828C74.1438 65.7858 73.8125 65.3992 73.5363 65.0678C73.0393 64.4051 72.3765 63.8528 71.7138 63.3557L71.3272 64.0185C72.0452 64.3498 72.7631 64.7364 73.5363 64.9574C74.3095 65.1783 74.4752 65.1783 74.7514 64.7364C75.3589 63.6871 73.1497 62.4168 72.4318 62.0302L72.0452 62.693C72.5422 62.9139 72.984 63.1348 73.4811 63.3005C73.9782 63.4662 74.3648 63.7423 74.7514 63.5766C75.4141 63.3005 75.138 62.5825 74.7514 62.1959C74.0334 61.4779 73.1497 60.9257 72.3213 60.3181C71.4929 59.7106 70.3883 58.9374 69.5046 58.1642C68.621 57.391 67.9582 56.7835 67.1298 56.176C66.3014 55.5685 65.4177 54.8505 64.5893 54.1878C63.7608 53.525 62.9324 52.7518 62.4906 51.8681C62.0488 50.9845 62.9876 49.7695 63.5399 48.8858C64.0922 48.0021 63.1533 48.0574 62.8772 48.4992C62.4354 49.2172 61.8278 49.8799 61.6069 50.7636C61.386 51.6472 61.7174 52.2548 62.2144 52.8623C63.319 54.3534 64.8654 55.458 66.3014 56.5626C67.7373 57.6672 69.4494 59.2136 71.051 60.4286C72.6527 61.6436 72.6527 61.5332 73.4259 62.0855C74.1991 62.6377 73.8677 62.4721 74.0886 62.6377C74.3095 62.8034 74.5304 62.9139 74.1438 62.7482C73.5916 62.5273 72.984 62.3064 72.4318 62.0302C71.8795 61.7541 71.6033 62.4721 72.0452 62.693C72.487 62.9139 74.1991 64.0737 74.0334 64.2946C73.8677 64.5155 71.9347 63.4662 71.7138 63.3557C71.2719 63.1348 70.9406 63.7423 71.3272 64.0185C71.7138 64.2946 73.1497 65.5649 72.984 65.7306C72.8184 65.8962 72.1004 65.4544 71.9347 65.3439C71.5481 65.123 71.1615 64.9021 70.8301 64.626L70.2778 65.1783C70.7197 65.5649 71.1615 66.0067 71.4376 66.5038C71.7138 67.0008 71.6586 67.056 71.272 66.8904C70.8854 66.7247 70.6644 66.3933 70.3883 66.1724C69.4494 65.4544 68.3448 65.123 67.4059 64.4603C65.1968 63.0244 62.9876 61.4779 60.889 59.8763C58.7903 58.2747 58.6246 58.1642 57.52 57.2253C56.4154 56.2864 55.587 55.7342 54.8138 54.7953C53.4331 53.1936 52.936 51.095 53.1569 48.9963C53.3779 46.8976 55.5318 44.4123 57.1886 42.424C58.8455 40.4358 56.9677 41.4851 56.6363 41.8717L56.6916 41.927Z" fill="#161616"/>
<path d="M77.402 63.0248C77.5124 62.9143 77.6229 62.8039 77.7333 62.6934C77.8438 62.5829 77.7886 62.6934 77.8438 62.6382C77.899 62.6382 77.9542 62.5277 78.0095 62.5277C78.1199 62.4725 78.2304 62.362 78.3961 62.3068C78.5618 62.2516 78.5065 62.2516 78.617 62.1963C78.7274 62.1411 78.6722 62.1963 78.7274 62.1963C78.7827 62.1963 78.7827 62.1963 78.7274 62.1963C78.8379 62.1963 78.8931 62.0859 78.9484 62.0306C79.0036 61.9754 79.0036 61.8097 78.9484 61.7545C78.8931 61.5888 78.6722 61.4231 78.4513 61.4784C77.8438 61.7545 77.2363 62.0859 76.7392 62.5829C76.2421 63.08 76.5735 62.9695 76.7392 63.1352C76.9049 63.3009 77.1258 63.3009 77.2915 63.1352L77.402 63.0248Z" fill="white"/>
<path d="M81.1027 61.7538C81.655 62.0299 82.2073 62.3613 82.7596 62.6374C83.3119 62.9136 83.2014 62.6374 83.3119 62.4718C83.4223 62.3061 83.3119 62.0299 83.1462 61.9195C82.5939 61.6433 82.0416 61.3119 81.4893 61.0358C80.937 60.7597 81.0475 61.0358 80.937 61.2015C80.8266 61.3672 80.937 61.6433 81.1027 61.7538Z" fill="white"/>
<path d="M76.4628 78.3784C76.6837 78.4889 76.8494 78.5441 77.0703 78.5441C77.2913 78.5441 77.4569 78.5441 77.6226 78.4336C78.0092 78.268 78.3406 78.047 78.5063 77.6604C78.672 77.2738 78.5615 77.4948 78.5063 77.3843C78.4511 77.2738 78.3958 77.2186 78.3406 77.1634C78.1749 77.0529 77.8988 77.1081 77.7883 77.3291C77.6778 77.55 77.7331 77.4395 77.6779 77.4947C77.6226 77.55 77.6779 77.4395 77.6779 77.4947C77.6779 77.4947 77.6779 77.4947 77.6226 77.55C77.6226 77.55 77.5674 77.55 77.5122 77.55C77.4569 77.55 77.5674 77.55 77.5122 77.55C77.4569 77.55 77.4017 77.55 77.2913 77.6052C77.2913 77.6052 77.236 77.6052 77.1808 77.6052C77.1256 77.6052 77.1256 77.6052 77.0703 77.6052C77.1256 77.6052 77.1808 77.6052 77.0703 77.6052C77.0151 77.6052 77.0151 77.6052 76.9599 77.6052C76.7942 77.55 76.9046 77.6052 76.9599 77.6052C76.8494 77.6052 76.7942 77.55 76.6837 77.6052C76.5733 77.6604 76.518 77.7157 76.4628 77.7709C76.3524 77.9366 76.4076 78.2127 76.6285 78.3232L76.4628 78.3784Z" fill="#161616"/>
<path d="M82.0404 26.2424C80.0522 25.1931 75.0816 24.3094 73.7009 26.8499C73.4247 27.2918 73.4247 27.844 73.4247 28.3963C73.4247 29.6114 73.4247 30.8264 73.4247 32.0414C73.4247 32.1519 73.4247 32.3176 73.5352 32.3728C73.6456 32.4833 73.8113 32.4833 73.977 32.4833C75.5234 32.3728 77.0698 31.931 78.4505 31.1578C79.0028 30.8816 79.6103 30.5502 80.1626 30.6607C80.3835 30.7159 80.6045 30.8816 80.8254 30.9921C81.6538 31.5444 82.5375 32.0967 83.3659 32.6489C83.5868 31.1578 83.5868 29.6666 83.3659 28.1754C83.3659 27.7888 83.2554 27.4574 83.0897 27.1261C82.8688 26.6842 82.427 26.4633 81.9852 26.2424H82.0404Z" fill="#161616"/>
<path d="M82.2618 25.9106C81.102 25.3031 79.7765 25.0269 78.5063 24.8612C77.236 24.6956 75.6344 24.7508 74.4746 25.524C73.3148 26.2972 73.4252 26.4076 73.2043 27.0704C72.8729 28.0093 73.0386 29.1691 73.0938 30.1632C73.1491 31.1573 73.0938 31.323 73.0938 31.8753C73.0938 32.4276 73.0938 32.6485 73.5357 32.8694C73.9775 33.0903 74.4193 32.8694 74.8059 32.8694C75.3582 32.8142 75.9105 32.6485 76.4628 32.538C77.0151 32.4276 77.6226 32.1514 78.1749 31.8753C78.7272 31.5991 79.3347 31.1573 79.9422 31.1573C80.5497 31.1573 81.102 31.7096 81.5438 31.9857C81.9857 32.2619 82.7036 32.7589 83.3112 33.0903C83.9187 33.4217 83.8634 33.0903 83.8634 32.8694C84.0844 31.4887 84.0844 30.0527 83.9739 28.672C83.8634 27.2913 83.8634 27.5122 83.5873 27.0704C83.3112 26.6286 82.8141 26.2972 82.3723 26.021C81.9304 25.7449 81.5438 26.4629 81.9857 26.6838C82.4275 26.9047 82.8693 27.1808 83.0902 27.7331C83.3112 28.2854 83.3112 28.7825 83.3112 29.2795C83.4216 30.4393 83.3112 31.5439 83.2007 32.7037L83.753 32.4828C82.8693 31.9305 82.0409 31.3782 81.1572 30.8259C80.2736 30.2737 79.7213 30.3841 78.9481 30.7707C78.1749 31.1573 77.1255 31.6544 76.1867 31.9305C75.2478 32.2067 75.2478 32.1514 74.7507 32.2067C74.2536 32.2619 74.1984 32.3171 74.088 32.2619C73.9775 32.2066 73.9775 31.8201 73.9775 31.5991C73.9775 30.5498 73.9775 29.5004 73.9775 28.4511C73.9775 27.4018 74.088 27.0152 74.6955 26.5181C75.6344 25.7449 76.9599 25.6344 78.1197 25.7449C79.2795 25.8554 80.8259 26.1315 81.9857 26.739C83.1455 27.3465 82.8141 26.2972 82.3723 26.0763L82.2618 25.9106Z" fill="#161616"/>
<path d="M88.3378 75.7277C88.7244 75.9487 89.2215 76.0039 89.6081 75.8382C89.9947 75.6725 90.3813 75.3411 90.547 74.8993C90.7126 74.4575 90.4917 74.4575 90.2708 74.4023C90.0499 74.347 89.8842 74.4575 89.7738 74.6784C89.6633 74.8993 89.7738 74.7336 89.7738 74.6784C89.7738 74.6784 89.7738 74.7336 89.7185 74.7888C89.7185 74.7888 89.7185 74.8441 89.6081 74.8993C89.6081 74.8993 89.5528 74.8993 89.4976 74.9545C89.4424 75.0098 89.4424 74.9545 89.3871 75.0098C89.3319 75.0098 89.3319 75.065 89.3871 75.0098C89.3319 75.0098 89.2215 75.0098 89.1662 75.065C89.111 75.1202 89.2767 75.065 89.1662 75.065C89.1662 75.065 89.111 75.065 89.0558 75.065C89.0006 75.065 89.0558 75.065 89.0005 75.065C88.9453 75.065 89.0558 75.065 89.0005 75.065C88.9453 75.065 88.9453 75.065 88.8901 75.065C88.8349 75.065 88.8901 75.065 88.8349 75.065C88.8349 75.065 88.7796 75.065 88.7244 75.0098C88.5587 74.8993 88.2826 75.0098 88.1721 75.1755C88.0617 75.3411 88.1721 75.6173 88.3378 75.7277Z" fill="#161616"/>
<path d="M83.035 24.2542C82.7589 26.132 82.4275 28.0098 82.1513 29.9428C82.1513 30.1637 82.0961 30.3294 81.9857 30.4951C81.9304 30.6055 81.82 30.6608 81.7095 30.716C79.9422 31.5997 77.7883 30.9369 76.1866 29.7771C75.6896 29.3905 75.1925 29.0039 74.9716 28.3964C74.585 27.4575 75.5791 26.1873 75.7448 25.2484C75.9105 23.9781 75.7448 22.6526 75.2478 21.548C74.5298 19.9464 73.1491 18.8418 71.934 17.5716C70.719 16.3013 69.6697 14.6997 69.8353 12.9876C70.0563 10.4471 72.8177 8.07223 74.8059 6.74675C75.9105 6.02877 77.236 5.53172 78.5615 5.58695C81.2677 5.69741 82.8693 8.84544 84.3053 10.8889C84.3053 10.9441 84.4157 11.0546 84.471 11.1098C84.8023 11.5516 85.2994 12.1039 85.9069 11.9935C86.1278 11.9935 86.3487 11.8278 86.5696 11.7726C87.1219 11.6621 87.7294 12.2696 87.5638 12.8219C87.4533 13.2085 87.0667 13.4846 86.901 13.816C86.5144 14.6997 87.3981 15.5833 87.7294 16.5222C87.9504 17.2402 87.7294 18.0686 87.3981 18.7314C86.6249 20.1673 84.8576 20.4987 83.9187 21.769C83.3664 22.4869 83.2559 23.4258 83.1455 24.3095L83.035 24.2542Z" fill="white"/>
<path d="M82.7038 24.1437C82.4829 25.5244 82.262 26.9603 82.0411 28.3411C81.8201 29.7218 82.0411 29.777 81.6545 30.2188C81.2679 30.6607 80.329 30.7711 79.7767 30.7711C78.5617 30.7711 77.4018 30.1636 76.4077 29.5009C75.4136 28.8381 75.4136 28.7277 75.3032 28.1754C75.1927 27.6231 75.5241 27.0156 75.745 26.5185C76.5734 24.5303 76.242 22.2659 75.0822 20.4986C73.9224 18.7313 71.6581 17.2953 70.6639 15.1966C69.6698 13.0979 70.8849 10.7231 72.5417 9.12147C74.1986 7.51984 76.242 5.91821 78.5617 6.02866C80.8813 6.13912 81.8201 7.96167 82.8695 9.45285C83.9188 10.944 83.8636 11.0545 84.4711 11.7172C85.0786 12.38 85.0786 12.2695 85.41 12.38C85.7414 12.4904 86.7355 11.9381 87.0669 12.38C87.3982 12.8218 86.4594 13.595 86.4041 14.0921C86.3489 14.5891 86.4593 14.9205 86.625 15.2519C86.9012 15.8594 87.3982 16.4669 87.3982 17.1849C87.3982 17.9028 87.0669 18.6208 86.5698 19.1179C85.8518 19.8911 84.8025 20.2777 84.0293 20.9956C83.2561 21.7136 82.8695 23.0391 82.7038 24.1989C82.5381 25.3587 83.3665 24.9169 83.477 24.4198C83.5875 23.7018 83.6427 22.9839 83.9741 22.3211C84.3054 21.6584 84.8025 21.327 85.2996 20.9956C86.128 20.4434 87.0669 19.8911 87.6192 19.0074C88.1714 18.1237 88.2819 16.7983 87.7296 15.7489C87.1773 14.6996 86.9564 14.5891 87.1773 13.9816C87.3982 13.3741 87.8953 13.2084 87.8401 12.6009C87.7848 11.9934 87.6192 11.8277 87.2878 11.6068C86.7907 11.2754 86.4594 11.4411 85.9071 11.6068C84.8577 11.8829 83.8636 9.78422 83.3665 9.01102C82.262 7.46462 80.9365 5.64207 78.893 5.3107C76.8496 4.97933 74.309 6.47049 72.597 7.96167C70.8849 9.45284 69.1728 11.4411 69.3385 13.7607C69.5041 16.0803 71.879 18.1238 73.5358 20.0015C75.1927 21.8793 75.2479 22.4316 75.3032 23.978C75.3584 25.5244 75.3032 25.3035 75.0822 25.911C74.8613 26.5185 74.5852 27.0156 74.4195 27.6231C74.1986 28.8381 75.027 29.7218 75.9659 30.3293C76.9048 30.9368 78.396 31.6548 79.7214 31.6548C81.0469 31.6548 80.9917 31.5443 81.5992 31.2682C82.2067 30.992 82.3724 30.6054 82.4829 29.8875C82.759 28.0649 83.0352 26.2976 83.3113 24.4751C83.5875 22.6525 82.6486 23.7571 82.5381 24.2541L82.7038 24.1437Z" fill="#161616"/>
<path d="M79.1701 2.54968C79.4463 2.49445 79.6672 2.38399 79.9433 2.38399C80.109 2.38399 80.2747 2.38399 80.4404 2.38399C80.6613 2.49445 80.7165 2.77059 80.7165 2.9915C80.7165 3.59902 80.4956 4.26176 79.9986 4.64836C80.3852 4.64836 80.7165 4.48268 81.0479 4.37222C81.3793 4.26176 81.7659 4.15131 82.1525 4.31699C82.4839 4.42745 82.76 4.86928 82.5943 5.20065C82.5391 5.36633 82.3182 5.4768 82.1525 5.58726C81.3793 6.08431 73.813 10.7788 73.813 10.834C74.4205 12.3252 74.9175 13.8716 75.2489 15.418C74.5862 15.6389 73.9234 15.8598 73.4816 16.3569C73.0398 16.8539 72.8741 17.7376 73.3711 18.1794C74.0339 18.7869 75.1384 18.2346 76.0221 18.4555C76.2982 19.781 76.3535 21.1617 76.2982 22.5425C76.243 23.3709 75.8012 24.4202 75.028 24.1993C73.9786 22.432 72.4875 20.9408 71.2172 19.3392C69.9469 17.7376 68.7871 15.8598 68.7319 13.8163C68.6215 11.1101 70.2783 8.62483 71.9352 6.6366C73.5368 4.64837 74.8623 2.6049 77.0715 1.11373C77.2371 1.00327 77.4581 0.892815 77.6237 1.00327C77.8447 1.11373 77.8447 1.38987 77.8447 1.61078C77.7894 2.32876 77.5133 2.9915 77.1819 3.54379C77.8447 3.15719 78.5074 2.77059 79.2254 2.54968H79.1701Z" fill="#161616"/>
<path d="M79.2805 2.93596C79.7775 2.77027 80.3298 2.54935 80.3298 3.26733C80.3298 3.9853 80.0537 4.15099 79.7775 4.48236C79.5014 4.81374 79.7223 5.20034 80.0537 5.14511C80.385 5.08988 80.8269 4.97942 81.2135 4.86896C81.6001 4.75851 81.4896 4.75851 81.6001 4.75851H81.7658C81.8762 4.92419 81.9314 5.1451 82.0419 5.36602L81.9314 5.42125C81.7657 5.64217 81.3792 5.75262 81.1582 5.91831C80.2746 6.47059 79.3357 7.02288 78.452 7.6304C77.5684 8.23791 76.4638 8.84543 75.4697 9.50817C74.4756 10.1709 74.2547 10.1709 73.7576 10.6127C73.2605 11.0546 73.7576 11.5516 73.9233 12.0487C74.3651 13.2085 74.6965 14.4788 74.9726 15.6938L75.2488 15.1967C74.089 15.5833 72.5978 16.2461 72.7635 17.7373C72.9292 19.2284 74.8622 18.7314 75.9667 19.0075L75.6906 18.7314C75.8563 19.5046 76.6295 24.199 75.0278 23.9781L75.3592 24.1438C72.9292 20.0569 67.6272 16.7431 69.5602 11.386C71.4932 6.02877 72.1007 7.13334 73.5919 5.20033C75.0831 3.26733 75.0278 3.43302 75.8563 2.65982C76.6847 1.88661 77.1265 1.38955 77.4027 1.50001C77.6788 1.61047 76.8504 3.26733 76.7952 3.43301C76.5743 3.76439 77.0161 4.15099 77.3475 3.9853C78.0102 3.5987 78.6177 3.26733 79.3357 3.04642C80.0537 2.8255 79.6118 2.16276 79.1148 2.27322C78.3416 2.54936 77.6788 2.93596 76.9609 3.32256L77.5131 3.87485C77.8997 3.26733 78.8386 1.33432 77.8445 0.782035C76.8504 0.229749 76.9056 0.8925 76.519 1.16864C75.9115 1.61047 75.4145 2.0523 74.8622 2.60458C73.8681 3.65393 72.9844 4.81373 72.1007 5.91831C71.2171 7.02288 70.3334 8.12746 69.6707 9.39771C68.2899 11.883 67.9586 14.5892 69.2841 17.185C70.6096 19.7807 73.0396 21.8242 74.6412 24.3095C76.2429 26.7948 76.4086 24.199 76.6295 23.4258C77.1265 21.9346 76.7952 20.0016 76.519 18.4552C76.2429 16.9088 76.3533 18.2343 76.2429 18.1791C75.5249 18.0134 74.1994 18.4552 73.7576 17.8477C72.9844 16.7984 74.8069 16.0804 75.5249 15.8595C76.2429 15.6386 75.8563 15.5833 75.8011 15.3624C75.5801 14.2026 75.2488 13.0428 74.8622 11.9382C74.4756 10.8337 74.6965 11.2203 74.5308 11.1098C74.3099 10.8889 74.5308 11.2203 74.2546 11.165C74.3651 11.165 74.4203 11.0546 74.5308 10.9993C75.3592 10.5023 76.1324 9.95001 76.9609 9.45295C78.7834 8.29314 80.6612 7.18856 82.4837 6.02876C84.3063 4.86896 83.4778 5.03464 82.9808 4.3719C82.2076 3.43301 81.103 4.26144 80.1641 4.3719L80.4403 5.03465C80.9925 4.42714 81.4344 3.54347 81.2135 2.71504C80.9926 1.88661 79.9432 1.99707 79.2252 2.21798C78.5073 2.4389 78.9491 3.10164 79.4461 2.99118L79.2805 2.93596Z" fill="#161616"/>
<path d="M77.9543 12.6563C77.9543 12.6011 77.9543 12.5458 77.9543 12.4354C77.9543 12.4354 77.9543 12.3802 77.9543 12.3249C77.9543 12.2697 77.9543 12.2145 77.9543 12.104C77.9543 11.9936 77.9543 12.0488 77.9543 11.9936C77.9543 11.9383 77.9543 11.9383 77.9543 11.9936C77.9543 11.8831 77.9542 11.7726 78.0647 11.607C78.1752 11.4413 78.0647 11.5517 78.0647 11.4965C78.0647 11.386 78.0647 11.5517 78.0647 11.4965C78.0647 11.4413 78.1199 11.386 78.1752 11.3308C78.2304 11.2756 78.2304 11.2203 78.2856 11.1651C78.3409 11.1099 78.2856 11.1651 78.2856 11.1099C78.3409 10.9994 78.4513 10.9442 78.5618 10.8338C78.617 10.8338 78.6722 10.7233 78.5618 10.8338C78.5618 10.8338 78.617 10.8338 78.6722 10.7785C78.6722 10.7785 78.7827 10.7233 78.8379 10.6681C78.8931 10.6128 78.8379 10.6681 78.8931 10.6681C78.9484 10.6681 79.0036 10.6681 78.8931 10.6681C78.9484 10.6681 79.0036 10.6681 79.1141 10.6128C79.335 10.5576 79.4454 10.3367 79.3902 10.1158C79.335 9.89486 79.1141 9.78441 78.8931 9.83964C77.6229 10.2262 76.7945 11.607 77.1811 12.8772C77.5677 14.1475 77.4572 13.2086 77.6781 13.1534C77.899 13.0981 78.0095 12.8772 77.9543 12.6563Z" fill="#161616"/>
<path d="M79.1695 12.4357C79.1695 12.4909 79.1695 12.5461 79.1695 12.6566C79.1695 12.767 79.1695 12.7118 79.1695 12.767C79.1695 12.8223 79.1695 12.8775 79.1695 12.9327C79.1695 12.988 79.1695 13.0432 79.1695 13.0432C79.1695 13.1536 79.28 13.2089 79.3904 13.2641C79.5009 13.3193 79.5561 13.3193 79.6666 13.3193C79.777 13.3193 79.6666 13.3193 79.7218 13.3193C79.7218 13.3193 79.7218 13.3193 79.777 13.3193H79.8875C79.8875 13.3193 79.9427 13.3193 79.9979 13.2641C79.9979 13.2641 79.9979 13.1536 80.0532 13.0984C80.0532 12.988 80.0532 12.9327 80.0532 12.8775C80.0532 12.8775 80.0532 12.8223 80.0532 12.767C80.0532 12.767 80.0532 12.7118 79.9979 12.7118L79.9427 12.6566C79.8875 12.6566 79.777 12.6014 79.7218 12.6014C79.7218 12.6014 79.6113 12.6014 79.5561 12.6014C79.5561 12.6014 79.4456 12.6014 79.4456 12.6566C79.4456 12.6566 79.3904 12.7118 79.3904 12.767C79.3904 12.767 79.3904 12.8775 79.3904 12.9327V13.0432C79.3904 13.0984 79.4456 13.1536 79.5009 13.2089H79.5561C79.6113 13.3193 79.6666 13.3193 79.777 13.3193H79.6666H79.5561H79.5009C79.5009 13.2641 79.5009 13.2641 79.5009 13.3193H79.4456C79.4456 13.2641 79.4456 13.2641 79.4456 13.2641V13.1536V13.0432V12.9327V12.8223H79.5009C79.5009 12.767 79.5009 12.767 79.5009 12.8223H79.5561H79.6666H79.777H79.8875H79.9979H80.0532H80.1084V12.9327C80.1084 12.9327 80.1084 12.9327 80.1084 12.8775V12.988C80.1084 12.988 80.1084 12.8775 80.1084 12.8223V12.9327C80.1084 12.9327 80.1084 12.8223 80.1084 12.767C80.1084 12.767 80.1084 12.6566 80.1084 12.6014C80.1084 12.6014 80.0532 12.5461 79.9979 12.4909C79.9979 12.4909 79.9427 12.4357 79.8875 12.4357H79.777C79.7218 12.4357 79.6666 12.4357 79.5561 12.4357H79.5009C79.5009 12.5461 79.4456 12.6014 79.3904 12.6566L79.1695 12.4357Z" fill="#161616"/>
<path d="M81.2684 9.17699C81.2684 9.06653 81.3788 9.01131 81.4341 8.90085H81.3788C81.4341 8.90085 81.5445 8.79039 81.655 8.73516H81.5997C81.7102 8.73516 81.8207 8.67993 81.9311 8.6247H81.8207C81.9311 8.6247 81.9863 8.6247 82.0968 8.6247C82.2073 8.6247 82.2625 8.51425 82.3177 8.45902C82.3729 8.40379 82.3729 8.2381 82.3177 8.18287C82.2625 8.12764 82.2073 8.01718 82.152 7.96195C82.0968 7.90673 81.9863 7.90673 81.8759 7.96195C81.3788 8.07241 80.8818 8.45902 80.6609 8.90085C80.4399 9.34268 80.6056 9.06653 80.6609 9.17699C80.7161 9.28745 80.7713 9.34267 80.8265 9.3979C80.8818 9.45313 81.0475 9.45313 81.1027 9.3979C81.1579 9.34267 81.2684 9.28744 81.3236 9.23222L81.2684 9.17699Z" fill="#161616"/>
<path d="M82.0968 10.1156V10.2261C82.0968 10.2261 82.0968 10.3365 82.0968 10.3917C82.0968 10.3917 82.0968 10.5022 82.152 10.5022C82.152 10.5022 82.2072 10.5574 82.2624 10.5574C82.2624 10.5574 82.3729 10.5574 82.4281 10.5574H82.5386C82.5938 10.5574 82.649 10.5022 82.7043 10.447H82.7595C82.7595 10.2813 82.7595 10.2261 82.7595 10.1708V10.0604C82.7595 10.0604 82.7595 9.94991 82.7595 9.89468C82.7595 9.89468 82.7595 9.78423 82.7043 9.78423C82.7043 9.78423 82.649 9.729 82.5938 9.729C82.5938 9.729 82.4834 9.729 82.4281 9.729H82.3177C82.2624 9.729 82.2072 9.78423 82.152 9.83946H82.0968C82.0968 10.0051 82.0968 10.0604 82.0968 10.1156Z" fill="#161616"/>
<path d="M84.8578 15.1411C84.8578 15.1963 84.8578 15.2516 84.8578 15.3068C84.8578 15.3068 84.8578 15.362 84.8578 15.4173C84.8578 15.4173 84.8578 15.4173 84.8578 15.4725C84.8026 15.5829 84.8578 15.5277 84.8578 15.4725L84.7473 15.5829C84.7473 15.5829 84.7473 15.5829 84.6921 15.5829C84.6369 15.5829 84.6369 15.5829 84.5816 15.5829C84.5264 15.5829 84.6369 15.5829 84.5816 15.5829C84.5264 15.5829 84.4712 15.5829 84.4159 15.5829H84.3055C84.3055 15.5829 84.2503 15.5829 84.195 15.5829C84.0846 15.5829 84.195 15.5829 84.1398 15.5829C84.0846 15.5829 83.9741 15.5829 83.9189 15.5829C83.8637 15.5829 83.9189 15.5829 83.8637 15.5829C83.5875 15.4725 83.3666 15.3068 83.2009 15.0859C83.0352 14.865 82.8143 14.9202 82.6486 15.0859C82.4829 15.2516 82.4829 15.4725 82.6486 15.6382C83.2009 16.1905 83.9741 16.5771 84.7473 16.4114C85.5205 16.2457 86.0728 15.6382 85.9624 14.865C85.8519 14.0918 85.7967 14.4784 85.5758 14.4784C85.3548 14.4784 85.1892 14.644 85.1892 14.865L84.8578 15.1411Z" fill="#161616"/>
</svg>
