<svg width="120" height="105" viewBox="0 0 120 105" fill="none" xmlns="http://www.w3.org/2000/svg">
<path d="M14.56 87.6675L14.3669 87.5001C15.5567 86.0235 17.0605 84.4893 18.525 82.9623C19.9576 81.4818 21.4614 79.9476 22.6512 78.471L22.8443 78.6385C21.6545 80.115 20.1507 81.6492 18.6861 83.1762C17.2536 84.6568 15.7498 86.191 14.56 87.6675Z" fill="black"/>
<path d="M13.7859 80.1396L13.5928 79.9722L15.0534 78.2024C15.7769 77.5014 16.679 76.8893 17.5811 76.2772C19.093 75.2285 20.6689 74.0869 21.5446 72.668L21.7697 72.789C20.8692 74.2936 19.286 75.396 17.7421 76.4912C16.8472 77.1425 15.9772 77.7081 15.293 78.4019L13.8716 80.1645L13.7859 80.1396Z" fill="black"/>
<path d="M13.0896 73.693L12.8893 73.4863C14.1224 72.2453 15.5308 71.2967 16.9393 70.3482C18.3085 69.4068 19.7098 68.419 20.9501 67.2172L21.1503 67.4239C19.9173 68.6649 18.5089 69.6135 17.1004 70.5621C15.7312 71.5034 14.3299 72.4912 13.0896 73.693Z" fill="black"/>
<path d="M12.4538 67.8033L12.2535 67.5966C13.9 65.955 15.633 64.7845 17.2946 63.6677C18.1254 63.1093 18.9955 62.5437 19.8119 61.9068L19.9729 62.1207C19.1173 62.7649 18.2864 63.3233 17.4556 63.8817C15.794 64.9985 14.1003 66.1617 12.4466 67.7641L12.4538 67.8033Z" fill="black"/>
<path d="M11.7963 61.3499L11.596 61.1432C12.708 60.1273 13.9563 59.4111 15.3223 58.6732C16.4279 58.0643 17.612 57.4411 18.7137 56.5894L18.8747 56.8034C17.7338 57.6622 16.5569 58.3247 15.4513 58.9336C14.1245 59.6642 12.8298 60.3484 11.757 61.3571L11.7963 61.3499Z" fill="black"/>
<path d="M11.0993 54.904L10.899 54.6973C11.9005 53.7423 12.9709 53.3834 14.034 52.9852C15.0972 52.587 16.0891 52.2425 17.0585 51.334L17.2588 51.5407C16.2573 52.4957 15.187 52.8546 14.1238 53.2528C13.0606 53.651 12.0687 53.9954 11.0993 54.904Z" fill="black"/>
<path d="M10.4251 49.0218L10.3746 48.747C11.3593 48.3632 12.126 47.8978 12.8856 47.3931C13.6523 46.9276 14.4118 46.4229 15.475 46.0247L15.5254 46.2995C14.5408 46.6832 13.774 47.1487 13.0145 47.6534C12.2478 48.1189 11.4883 48.6236 10.4251 49.0218Z" fill="black"/>
<path d="M9.71272 42.0505L9.58375 41.7901C11.1533 41.0554 12.2348 40.9785 13.866 40.8007L13.9165 41.0755C12.2853 41.2533 11.2502 41.3623 9.71272 42.0505Z" fill="black"/>
<path d="M8.88681 35.3019L8.91605 35.5797L12.1313 35.2414L12.1021 34.9635L8.88681 35.3019Z" fill="black"/>
<path d="M17.6494 88.3576C16.5414 85.6392 16.362 83.1155 16.193 80.4276C16.1521 79.5423 16.0576 78.5857 15.9631 77.6291C14.3577 70.2134 13.9836 62.6528 13.6136 55.3349C13.2508 48.0562 12.8768 40.4956 11.2714 33.0799L11.5462 33.0294C13.1516 40.4451 13.5257 48.0057 13.8957 55.3237C14.2585 62.6023 14.6325 70.163 16.2379 77.5786C16.3324 78.5352 16.3877 79.499 16.4678 80.3771C16.6296 83.0258 16.809 85.5495 17.9098 88.2286L17.6349 88.2791L17.6494 88.3576Z" fill="black"/>
<path d="M21.0259 84.207C20.2127 82.6519 19.9492 80.9959 19.7393 79.4111C19.5518 78.3904 19.4284 77.2768 19.116 76.2385C18.1867 71.6205 17.8784 66.8479 17.6061 62.2716C17.18 55.5322 16.7867 49.1925 14.5659 43.0667L14.8407 43.0162C17.0615 49.142 17.5124 55.7958 17.8881 62.2604C18.1604 66.8367 18.4615 71.57 19.3836 76.1488C19.6961 77.1871 19.8587 78.2935 20.0141 79.3607C20.2632 80.9382 20.4803 82.5622 21.2862 84.078L21.0651 84.1997L21.0259 84.207Z" fill="black"/>
<path d="M111.648 78.0335C110.519 77.6321 109.383 77.1915 108.146 76.2012L107.646 75.6844C105.45 73.4499 103.701 71.6609 101.042 70.4447L101.156 70.1803C103.822 71.4357 105.61 73.2176 107.852 75.4842L108.346 75.9617C109.49 76.8878 110.626 77.3285 111.755 77.7299L111.68 77.9871L111.648 78.0335Z" fill="black"/>
<path d="M109.739 70.0644C108.266 69.1174 106.676 68.192 105.093 67.3059C103.549 66.4126 101.912 65.4551 100.447 64.5474L100.607 64.315C102.08 65.262 103.67 66.1874 105.253 67.0736C106.797 67.9669 108.434 68.9243 109.899 69.8321L109.739 70.0644Z" fill="black"/>
<path d="M110.239 64.6157C107.056 63.4146 103.608 61.6536 100.484 59.6707L100.644 59.4383C103.768 61.4213 107.216 63.1823 110.36 64.3905L110.286 64.6477L110.239 64.6157Z" fill="black"/>
<path d="M109.002 57.6602C107.356 57.3133 105.617 56.9022 104.426 55.944C103.282 55.0178 102.084 54.0203 100.438 53.6734L100.512 53.4162C102.205 53.7952 103.442 54.7855 104.594 55.7509C105.738 56.6771 107.43 57.0561 109.038 57.4102L108.963 57.6674L109.002 57.6602Z" fill="black"/>
<path d="M108.321 51.7388C107.181 51.0554 105.741 50.5081 104.348 49.993C102.954 49.4778 101.515 48.9306 100.328 48.2151L100.449 47.99C101.589 48.6734 103.029 49.2206 104.422 49.7358C105.815 50.251 107.255 50.7982 108.442 51.5137L108.321 51.7388Z" fill="black"/>
<path d="M107.749 45.3101C106.518 45.4551 105.595 44.8534 104.595 44.2661C103.819 43.7998 103.036 43.2943 102.044 43.1925L101.009 43.3014L100.958 43.0266L102.033 42.9105C103.072 43.0443 103.894 43.5426 104.716 44.041C105.67 44.5962 106.546 45.1658 107.698 45.0353L107.749 45.3101Z" fill="black"/>
<path d="M105.967 39.1444C104.296 39.3295 102.86 38.5787 101.463 37.8208L101.584 37.5957C103.331 38.4922 104.993 39.3639 107.008 38.6285L107.059 38.9033C106.72 39.0467 106.327 39.1188 105.967 39.1444Z" fill="black"/>
<path d="M106.355 32.4175C105.512 32.2477 104.848 32.1667 104.144 32.093C103.48 32.0121 102.784 31.9776 101.934 31.7685L102.008 31.5113C102.851 31.6812 103.516 31.7621 104.219 31.8359C104.883 31.9168 105.579 31.9512 106.429 32.1604L106.355 32.4175Z" fill="black"/>
<path d="M102.407 26.0343L102.436 26.3121L105.651 25.9738L105.622 25.696L102.407 26.0343Z" fill="black"/>
<path d="M107.924 79.4072C106.808 74.2147 105.76 69.1722 105.819 64.4132C105.768 61.7036 105.71 58.9548 105.705 56.2773C105.615 45.6209 105.499 34.604 102.667 24.0453L102.941 23.9948C105.773 34.5535 105.889 45.5704 105.987 56.2661C106.031 58.9364 106.05 61.6924 106.101 64.402C106.081 69.1537 107.09 74.2035 108.199 79.3567L107.924 79.4072Z" fill="black"/>
<path d="M105.35 75.3349C104.136 71.3779 103.826 67.7013 103.512 63.782C103.399 62.5041 103.311 61.1405 103.145 59.7913C103.338 50.0163 102.765 41.1529 101.455 33.3583L101.73 33.3078C103.04 41.1024 103.62 50.005 103.427 59.7801C103.554 61.1365 103.674 62.4537 103.794 63.7708C104.101 67.6509 104.372 71.3346 105.618 75.2452L105.343 75.2957L105.35 75.3349Z" fill="black"/>
<path d="M93.6613 27.6066C91.8731 27.8133 90.0632 27.9022 88.2926 27.9839C86.6077 28.0904 84.8371 28.1721 83.1667 28.3571C72.431 30.0041 61.4581 30.8019 50.8137 31.6205C38.688 32.5489 26.116 33.478 13.8924 35.6418L13.842 35.3669C26.0655 33.2032 38.6375 32.2741 50.8025 31.3385C61.4076 30.5271 72.4198 29.7221 83.1555 28.0751C84.826 27.8901 86.5965 27.8084 88.2814 27.7019C92.6614 27.4656 97.1984 27.2005 101.333 25.6295L101.384 25.9043C98.965 26.876 96.3276 27.3198 93.6613 27.6066Z" fill="black"/>
<path d="M84.0613 33.6715C77.2938 34.3869 70.5295 34.8987 63.9222 35.3817C53.3171 36.1931 42.305 36.9981 31.5693 38.6451L18.152 40.0541L18.1015 39.7793L31.5581 38.3631C42.2938 36.716 53.2666 35.9183 63.911 35.0997C76.0368 34.1713 88.6088 33.2422 100.832 31.0784L100.883 31.3533C95.3402 32.3306 89.7152 33.0796 84.1006 33.6643L84.0613 33.6715Z" fill="black"/>
<path d="M85.373 38.3817C77.0136 39.2676 68.5965 39.8395 60.3756 40.3753C48.3925 41.1963 36.0096 42.0502 23.9567 43.8173C21.3449 44.6216 18.6001 44.9229 15.9338 45.2096L15.8833 44.9348C18.5496 44.648 21.2551 44.3541 23.867 43.5497C35.9591 41.7754 48.342 40.9215 60.3252 40.1005C73.7897 39.1698 87.7005 38.2383 101.28 35.9472L101.331 36.222C96.0559 37.1096 90.7056 37.8081 85.3266 38.3496L85.373 38.3817Z" fill="black"/>
<path d="M76.6346 44.9374C74.6821 45.1337 72.7617 45.2835 70.8341 45.394C55.1519 45.961 39.0291 47.664 23.4631 49.3053C22.6635 49.371 21.7358 49.6225 20.8473 49.8668C19.9195 50.1184 18.9845 50.3307 18.1922 50.4356L18.1417 50.1608C18.9805 50.0879 19.9083 49.8364 20.7968 49.5921C21.7246 49.3405 22.6595 49.1282 23.4519 49.0233C39.0179 47.3819 55.1407 45.6789 70.8228 45.112C76.6522 44.8125 82.4984 43.9417 88.1875 43.0998C91.9779 42.5254 95.886 41.9294 99.7516 41.5441L99.8021 41.8189C95.9044 42.2506 91.9891 42.8074 88.238 43.3746C84.4476 43.9489 80.5787 44.5377 76.6738 44.9302L76.6346 44.9374Z" fill="black"/>
<path d="M82.7609 49.1289C75.4758 49.8987 68.226 50.4185 61.0939 50.9167C47.1904 51.8875 32.8085 52.9055 18.7263 55.7759L18.6758 55.501C32.7509 52.5914 47.1792 51.6055 61.0827 50.6347C73.9439 49.7336 87.205 48.7997 100.238 46.406L100.289 46.6808C94.4788 47.7479 88.6183 48.5401 82.7681 49.1681L82.7609 49.1289Z" fill="black"/>
<path d="M85.5405 54.0967C78.0984 54.8953 70.6771 55.3655 63.3737 55.814C52.7469 56.5076 41.7917 57.1804 30.9774 58.8419C27.8088 59.7079 24.1073 60.1036 20.845 60.4593L20.7945 60.1844C24.0961 59.8216 27.7976 59.4259 30.927 58.5671C41.7805 56.8984 52.7357 56.2256 63.3624 55.532C75.2743 54.7647 87.6324 53.9966 99.7381 51.8545L99.7886 52.1293C95.0777 52.9945 90.2771 53.592 85.5405 54.0967Z" fill="black"/>
<path d="M84.5105 59.3183C77.1077 60.1097 69.7577 60.5262 62.5255 60.9211C52.3627 61.4889 41.8785 62.0752 31.5354 63.6501C28.3667 64.5161 24.6653 64.9118 21.4029 65.2675L21.3525 64.9927C24.6541 64.6298 28.3555 64.2341 31.4849 63.3753C41.8673 61.7932 52.3514 61.2069 62.5143 60.639C74.8868 59.9495 87.6984 59.2198 100.264 56.7092L100.314 56.984C95.0684 58.0286 89.8039 58.752 84.5105 59.3183Z" fill="black"/>
<path d="M75.5307 66.7704C73.4604 66.9883 71.383 67.1669 69.3304 67.2598C53.8549 67.6265 41.5722 68.5836 29.4801 70.358C26.8682 71.1623 24.7195 71.3946 22.0139 71.6886L21.9634 71.4138C24.669 71.1198 26.8177 70.8875 29.4296 70.0832C41.5217 68.3088 53.8437 67.3444 69.3192 66.9778C75.4698 66.6598 81.8727 65.7274 88.033 64.7989C92.1053 64.2133 96.3347 63.5989 100.389 63.1383L100.44 63.4131C96.3387 63.8417 92.1486 64.4489 88.0834 65.0737C83.9325 65.6737 79.7032 66.2882 75.5234 66.7311L75.5307 66.7704Z" fill="black"/>
<path d="M83.1031 70.6553C73.9048 71.6141 64.7346 72.2837 55.1966 72.9397C51.3486 73.2 47.3435 73.4892 43.3849 73.8104C39.8798 74.1701 36.3643 74.694 32.9593 75.157C29.5615 75.6592 25.9995 76.1511 22.4943 76.5108L22.4439 76.236C25.949 75.8763 29.5038 75.3452 32.9088 74.8822C36.3066 74.3799 39.8686 73.888 43.3737 73.5284C47.3323 73.2072 51.3374 72.918 55.1854 72.6577C70.8059 71.5339 85.5875 70.4831 100.884 68.039L100.935 68.3138C94.946 69.2919 89.0318 70.0128 83.1031 70.6553Z" fill="black"/>
<path d="M27.6809 80.2251C25.7166 71.7391 23.9662 63.092 22.2662 54.7198C20.5663 46.3475 18.8552 37.6932 16.8516 29.2144L17.1264 29.1639C19.0907 37.6499 20.8411 46.297 22.5338 54.63C24.2338 63.0023 25.9449 71.6566 27.9485 80.1354L27.6737 80.1859L27.6809 80.2251Z" fill="black"/>
<path d="M33.0204 79.691C32.2705 77.5967 31.7274 75.3022 31.2379 73.0789C30.7484 70.8556 30.2125 68.6003 29.4626 66.5061C28.1856 61.0997 27.2444 55.7535 26.2855 50.5322C24.9372 43.1911 23.7076 36.2746 21.7352 29.2915L22.01 29.241C23.9823 36.2241 25.2513 43.1334 26.5602 50.4818C27.5119 55.6638 28.4997 61.0421 29.7302 66.4163C30.4801 68.5106 31.0232 70.8052 31.5127 73.0284C32.0022 75.2517 32.5381 77.507 33.288 79.6013L33.0132 79.6517L33.0204 79.691Z" fill="black"/>
<path d="M37.8745 79.1646C35.2276 70.2764 33.6263 61.1149 32.0826 52.2676C31.1485 46.9606 30.1783 41.4573 28.9943 36.1151L26.5349 28.2476L26.8097 28.1971L29.2691 36.0646C30.4604 41.4461 31.4305 46.9494 32.3645 52.2564C33.9082 61.1037 35.5489 70.2579 38.1494 79.1141L37.8745 79.1646Z" fill="black"/>
<path d="M43.2464 78.5838C39.9074 67.9154 38.032 57.2622 36.0413 45.9808C35.5727 43.4291 35.0896 40.7988 34.6137 38.2078C34.355 37.2408 34.0177 36.2882 33.7053 35.2499C32.973 33.0306 32.2264 30.7329 31.954 28.1451L32.2289 28.0946C32.5012 30.6824 33.2479 32.9802 33.9729 35.1602C34.3246 36.1913 34.6226 37.1511 34.8814 38.1181C35.3644 40.7483 35.8475 43.3786 36.3161 45.9304C38.3068 57.2117 40.175 67.8256 43.5141 78.4941L43.2392 78.5446L43.2464 78.5838Z" fill="black"/>
<path d="M47.787 78.1154L47.4978 78.0874C47.6236 76.5627 47.0604 75.0429 46.5509 73.5944C46.1455 72.4919 45.7329 71.3503 45.5951 70.1581L45.3356 68.7449C43.9601 60.1507 42.5999 52.0812 41.7027 43.4398C41.339 41.6804 40.8896 39.8962 40.4866 38.144C39.6487 34.6861 38.7819 31.0712 38.4078 27.4876L38.6826 27.4371C39.0567 31.0208 39.9163 34.5964 40.7615 38.0935C41.1644 39.8457 41.6138 41.6299 41.9775 43.3893C42.8747 52.0308 44.2421 60.1394 45.6497 68.6872L45.9092 70.1004C46.0005 71.2605 46.4059 72.363 46.8112 73.4654C47.3672 74.946 47.9304 76.4658 47.7798 78.0761L47.787 78.1154Z" fill="black"/>
<path d="M52.6408 77.589L52.366 77.6395C51.9959 74.2986 51.3198 71.5009 50.4786 68.2465L50.1694 67.0047C49.6743 63.6462 49.2113 60.2412 48.7699 56.954C47.4458 47.0923 46.0567 36.8773 43.7864 26.946L44.0612 26.8955C46.3315 36.8269 47.7206 47.0419 49.0447 56.9035C49.4861 60.1907 49.9491 63.5957 50.4442 66.9542L50.7462 68.1568C51.5874 71.4112 52.31 74.2409 52.6408 77.589Z" fill="black"/>
<path d="M57.2278 77.1527C56.4147 75.5976 56.1511 73.9416 55.9412 72.3568C55.7538 71.3361 55.6304 70.2225 55.318 69.1842C54.6347 64.3587 54.0619 59.4724 53.4788 54.7502C52.3589 45.3381 51.2206 35.6046 49.1658 26.4047L49.4406 26.3542C51.4954 35.5541 52.6337 45.2876 53.7608 54.739C54.3047 59.4683 54.8775 64.3547 55.5928 69.1337C55.9053 70.172 56.0679 71.2784 56.2233 72.3456C56.4724 73.9231 56.6895 75.5471 57.4954 77.0629L57.2743 77.1847L57.2278 77.1527Z" fill="black"/>
<path d="M62.6148 77.0961C60.886 68.5668 60.1315 59.818 59.3489 51.3584C58.6055 42.8916 57.8117 34.15 56.0902 25.6599L56.365 25.6095C58.0865 34.0995 58.8483 42.8876 59.6309 51.3472C60.3742 59.814 61.168 68.5556 62.8896 77.0456L62.6148 77.0961Z" fill="black"/>
<path d="M96.9551 72.9403C96.1412 68.9504 96.191 64.8019 96.3016 60.764C96.3385 59.4181 96.3681 58.0328 96.3658 56.6941C96.4636 53.4702 96.6078 50.2783 96.7665 47.165C97.1793 38.3641 97.5143 30.0239 97.0169 21.3496L97.2917 21.2991C97.8035 30.052 97.4613 38.3529 97.0557 47.193C96.9363 50.2991 96.76 53.5375 96.6942 56.7149C96.6966 58.0537 96.6669 59.4389 96.63 60.7849C96.5515 64.7763 96.4625 68.932 97.2764 72.9218L97.0016 72.9723L96.9551 72.9403Z" fill="black"/>
<path d="M91.8255 73.5174L91.5683 73.4429C92.1644 71.3855 91.8287 69.3369 91.554 67.3988C91.4314 66.7315 91.3089 66.0641 91.2648 65.3823C91.4115 61.5407 91.5622 57.9418 91.7345 54.4607C91.9068 50.9796 92.0575 47.3808 92.2042 43.5392C92.1537 41.2759 92.1281 38.9268 92.1098 36.617C92.0618 31.7155 92.0635 26.6425 91.5588 21.9059L91.8336 21.8555C92.3455 26.6312 92.383 31.6971 92.3917 36.6058C92.4101 38.9156 92.4358 41.2646 92.4862 43.528C92.3395 47.3696 92.1888 50.9684 92.0165 54.4495C91.8442 57.9306 91.6935 61.5295 91.5468 65.3711C91.6229 66.0064 91.7062 66.681 91.8288 67.3484C92.15 69.3185 92.4464 71.3743 91.8647 73.5102L91.8255 73.5174Z" fill="black"/>
<path d="M86.9963 73.9578L86.7215 74.0082C86.5325 72.095 86.4901 70.3172 86.4156 68.5859C86.3804 66.8474 86.2987 65.0768 86.1168 63.2028C85.9751 57.7909 86.2116 52.2284 86.4056 46.8765C86.7126 38.8256 87.0156 30.5318 86.1873 22.4865L86.4621 22.436C87.2975 30.5206 87.0018 38.8536 86.6948 46.9046C86.5008 52.2564 86.2644 57.8189 86.4061 63.2309C86.5879 65.1048 86.6696 66.8754 86.7048 68.6139C86.74 70.3525 86.8217 72.1231 87.0035 73.997L86.9963 73.9578Z" fill="black"/>
<path d="M82.6988 74.4222L82.4241 74.4726C81.5958 66.4272 81.2706 58.2489 81.4775 50.0945C81.871 44.5032 81.6756 39.02 81.5234 33.7723C81.4065 30.2631 81.3145 26.6683 81.3258 22.9733L81.6006 22.9228C81.55 26.625 81.6886 30.2519 81.8055 33.761C81.9648 39.048 82.153 44.492 81.7667 50.1226C81.5527 58.2376 81.8385 66.4232 82.6988 74.4222Z" fill="black"/>
<path d="M77.3267 75.0032L77.052 75.0536L77.0256 74.2468C76.5659 64.6728 76.0485 54.7848 76.6383 45.1803C76.4293 38.0763 76.1803 30.5333 75.4361 23.6087L75.7109 23.5583C76.4623 30.5221 76.7113 38.0651 76.881 45.1763C76.284 54.7415 76.8086 64.6688 77.2683 74.2428L77.2875 75.0104L77.3267 75.0032Z" fill="black"/>
<path d="M72.2301 75.5332C70.982 66.3069 70.8083 56.9644 70.6531 47.9432C70.525 40.175 70.393 32.1641 69.5471 24.2437L69.8219 24.1933C70.675 32.1529 70.8142 40.2031 70.9423 47.9713C71.0975 56.9924 71.2712 66.3349 72.5121 75.522L72.2373 75.5724L72.2301 75.5332Z" fill="black"/>
<path d="M67.1329 76.064L66.8581 76.1145L65.4418 62.6579C65.2201 50.4024 64.408 37.3625 63.0935 24.9019L63.3683 24.8514C64.69 37.3513 65.5021 50.3912 65.7238 62.6467L67.1329 76.064Z" fill="black"/>
<path d="M22.9803 80.4793L19.5396 58.8724C19.5036 58.6761 19.4603 58.4406 19.4242 58.2443L12.1068 34.7522C11.8087 33.7924 11.0933 32.9904 10.1608 32.5529L8.87089 31.9376C8.88852 31.8126 8.96303 31.5555 9.15532 31.2767C9.37965 30.9514 9.6793 30.8152 9.82912 30.7471C10.1792 30.8857 10.5365 31.0636 10.8474 31.2094C12.1765 31.8175 13.1531 32.9368 13.5625 34.2819L20.88 57.774C20.9305 58.0488 21.0202 58.3164 21.0314 58.5984L24.472 80.2053L22.9803 80.4793Z" fill="#FFE9AB"/>
<path d="M22.8839 80.6186L19.4217 58.894C19.3856 58.6977 19.3496 58.5014 19.3135 58.3052L11.996 34.8131C11.7052 33.8925 11.0362 33.1226 10.1037 32.6851L8.7281 32.045L8.71368 31.9664C8.78819 31.7093 8.90199 31.4449 9.06944 31.2518C9.29377 30.9265 9.59341 30.7903 9.77528 30.6758L9.81453 30.6686L10.9185 31.1557C12.2549 31.8031 13.278 32.9544 13.7266 34.2923L21.0441 57.7844C21.0945 58.0592 21.1843 58.3268 21.2347 58.6016L24.697 80.3263L22.9304 80.6507L22.8839 80.6186ZM8.98851 31.916L10.1854 32.4672C11.1645 32.9367 11.8871 33.778 12.1851 34.7378L19.5026 58.2298C19.5387 58.4261 19.5819 58.6617 19.618 58.858L23.0298 80.3078L24.2467 80.0843L20.8422 58.6737C20.7917 58.3989 20.7412 58.1241 20.698 57.8886L13.3805 34.3965C12.9783 33.0906 12.0089 32.0106 10.719 31.3952L9.74721 30.965C9.59739 31.0331 9.38348 31.1941 9.18399 31.4337C9.08784 31.5731 8.99889 31.7517 8.94921 31.9232L8.98851 31.916Z" fill="black"/>
<path d="M101.439 72.6034L100.311 50.7746C100.275 50.5783 100.317 50.3676 100.321 50.1641L102.601 25.6803C102.703 24.6877 103.219 23.7407 104.042 23.143L105.183 22.2842C105.162 22.1664 105.033 21.9061 104.793 21.7066C104.5 21.4358 104.164 21.3757 104.039 21.358C103.715 21.5799 103.43 21.7947 103.112 22.0558C101.971 22.9147 101.238 24.2262 101.091 25.633L98.8104 50.1168C98.7823 50.406 98.7863 50.6488 98.7975 50.9308L99.9252 72.7595L101.453 72.6818L101.439 72.6034Z" fill="#FFE9AB"/>
<path d="M101.538 72.7067L99.7286 72.7956L99.707 72.6778L98.6186 50.8419C98.5681 50.5671 98.5961 50.2779 98.6242 49.9886L100.905 25.5049C101.045 24.0588 101.778 22.7472 102.99 21.8347L103.956 21.1297L103.996 21.1225C104.214 21.2042 104.557 21.3036 104.843 21.5351C105.036 21.7026 105.197 21.9165 105.279 22.1448L105.301 22.2626L104.089 23.1751C103.304 23.7656 102.781 24.6733 102.711 25.6195L100.431 50.1032C100.428 50.3067 100.424 50.5102 100.421 50.7137L101.531 72.6674L101.538 72.7067ZM100.007 72.5416L101.252 72.4752L100.146 50.7642C100.11 50.5679 100.146 50.3179 100.149 50.1144L102.429 25.6307C102.524 24.5988 103.079 23.6446 103.928 22.9612L104.997 22.156C104.929 22.0062 104.815 21.8244 104.675 21.7282C104.436 21.5287 104.218 21.447 104.046 21.3973L103.191 22.0414C102.05 22.9003 101.349 24.1653 101.233 25.5257L98.9527 50.0095C98.9174 50.2594 98.9286 50.5414 98.9399 50.8235L100.046 72.5344L100.007 72.5416Z" fill="black"/>
<path d="M114.895 84.6607L108.01 19.3306C107.915 18.374 107.018 17.6866 106.022 17.7883L7.12837 27.7531C6.09326 27.8621 5.35937 28.7273 5.45389 29.6839L12.3644 95.3745C12.3644 95.3745 15.3448 95.0301 15.3592 95.1086L8.7755 32.5233C8.68819 31.606 9.39001 30.7872 10.3466 30.6927L103.422 21.3094C104.379 21.2149 105.23 21.8703 105.317 22.7876L111.868 84.9731L114.934 84.6535L114.895 84.6607Z" fill="#FFE9AB"/>
<path d="M15.3095 95.2803C15.1452 95.2699 13.4284 95.4228 12.354 95.539L12.2362 95.5606L5.2968 29.713C5.21028 29.2419 5.40581 28.7596 5.70145 28.3807C6.02914 27.9552 6.51062 27.7045 7.06744 27.6428L105.961 17.678C107.035 17.5619 108.026 18.3134 108.135 19.3485L115.009 84.8428L111.668 85.2129L105.135 22.9024C105.062 22.0636 104.265 21.4795 103.387 21.5596L10.3113 30.9429C9.87949 31.0222 9.46929 31.2193 9.2057 31.5518C8.94211 31.8842 8.84995 32.2664 8.88279 32.6662L15.4665 95.2514L15.1917 95.3019L15.3095 95.2803ZM13.2208 95.1769C14.413 95.0391 14.9377 95.0239 15.1805 95.0199L8.62562 32.5917C8.5391 32.1206 8.70254 31.6848 9.03744 31.2986C9.37233 30.9124 9.81459 30.6689 10.3321 30.6144L103.408 21.2312C104.443 21.1222 105.347 21.8489 105.442 22.8055L111.971 84.8732L114.755 84.5648L107.892 19.3525C107.812 18.4744 106.968 17.8583 106.051 17.9456L7.15716 27.9104C6.68607 27.9969 6.27588 28.194 5.97303 28.5337C5.70944 28.8662 5.57803 29.2555 5.61808 29.6946L12.507 95.2674C12.7818 95.2169 13.0173 95.1737 13.2601 95.1697L13.2208 95.1769Z" fill="black"/>
<path d="M54.2883 64.9637C54.2883 69.8823 55.7894 78.5376 61.4744 80.1025C62.8158 80.4858 64.2211 80.4219 65.6264 80.2942C70.0339 79.9428 74.3456 79.0166 78.6892 78.4417C78.9127 78.4417 79.1363 78.3779 79.3279 78.4417C79.5196 78.5056 79.6793 78.6653 79.807 78.825C80.7013 79.8151 81.5956 80.8052 82.4579 81.7953C82.7454 82.1146 83.1606 82.466 83.5438 82.2743C83.9271 82.0827 83.8951 81.5078 83.7674 81.0926C83.2883 79.3041 82.4579 75.2798 80.8291 74.1939C80.4139 73.9065 79.9029 73.8746 79.3918 73.8107C74.6011 73.3955 69.8103 72.9803 65.0196 72.5331C64.6363 70.6807 64.2211 68.7964 63.8378 66.9439" fill="white"/>
<path d="M53.8731 64.9636C53.8731 68.381 54.416 71.8942 55.7894 75.0241C57.1627 78.1541 57.4183 78.0902 58.7597 79.1442C60.1011 80.1982 62.4964 80.8689 64.6363 80.773C66.7762 80.6772 70.2894 80.1662 73.1 79.7191C74.5372 79.4955 75.9425 79.24 77.3797 79.0484C78.8169 78.8568 78.0504 78.9526 78.3698 78.9206C78.6892 78.8887 79.1044 78.7609 79.3918 79.0803C79.9028 79.5913 80.35 80.1343 80.7971 80.6453C81.2443 81.1563 81.7233 81.7631 82.2663 82.2422C82.8092 82.7213 83.1606 82.9129 83.6716 82.6574C84.5659 82.2103 84.1506 81.0286 83.959 80.294C83.5119 78.5374 83.0967 76.653 82.1385 75.088C81.1804 73.523 81.0526 73.6827 80.1264 73.5231C79.2002 73.3634 78.8489 73.3953 78.2101 73.3314C77.5713 73.2675 76.741 73.2037 76.0064 73.1398C73.1 72.8843 70.1616 72.6288 67.2553 72.3733C64.3489 72.1178 65.7861 72.2455 65.0515 72.1816L65.4347 72.4691C65.0515 70.6167 64.6363 68.7323 64.253 66.8799C63.8698 65.0274 63.3907 66.5924 63.4865 67.1034C63.8698 68.9559 64.285 70.8402 64.6683 72.6926C65.0515 74.5451 64.8918 72.9801 65.0515 72.9801C67.7982 73.2356 70.5129 73.4592 73.2596 73.7147C76.0063 73.9702 76.0064 73.9702 77.3478 74.066C78.6892 74.1618 78.7211 74.1938 79.3918 74.2576C80.0625 74.3215 80.3819 74.3534 80.7652 74.7048C81.372 75.2158 81.7233 76.0142 82.0108 76.7169C82.2982 77.4195 82.6176 78.4096 82.8412 79.3039C83.0647 80.1982 83.3202 80.7731 83.4161 81.5076C83.5119 82.2422 83.4799 81.9867 83.2564 81.9867C83.0328 81.9867 82.7134 81.5715 82.5537 81.4118C82.1066 80.9008 81.6275 80.3898 81.1804 79.8788C80.7332 79.3678 80.3181 78.8568 79.839 78.4096C79.3599 77.9625 78.8808 78.0902 78.3059 78.1541C76.9645 78.3457 75.655 78.5374 74.3456 78.7609C71.6627 79.2081 69.0119 79.6552 66.2971 79.9107C64.1253 80.1024 61.8257 80.262 59.9094 79.0484C57.9931 77.8347 57.6099 76.9085 56.8753 75.5352C55.3742 72.6607 54.7674 69.2752 54.6715 66.0495C54.5757 62.8237 54.6715 65.3788 54.6715 65.0274C54.6715 64.5164 53.8731 64.5164 53.8731 65.0274V64.9636Z" fill="#161616"/>
<path d="M80.829 74.1939C80.4138 73.9065 79.9028 73.8745 79.3918 73.8107C75.0801 73.4274 70.7684 73.0441 66.4568 72.6609C66.872 75.216 66.5845 77.8668 65.6583 80.2941C70.0339 79.9428 74.3136 79.0166 78.6253 78.4417C78.8488 78.4417 79.0724 78.3778 79.264 78.4417C79.4557 78.5056 79.6154 78.6653 79.7431 78.825C80.6374 79.8151 81.5317 80.8052 82.394 81.7953C82.6814 82.1146 83.0966 82.466 83.4799 82.2743C83.8631 82.0827 83.8312 81.5078 83.7035 81.0926C83.2244 79.3041 82.394 75.2798 80.7651 74.1939H80.829Z" fill="#FF4647"/>
<path d="M81.0525 73.8428C80.6373 73.5873 80.1582 73.4914 79.6792 73.4276C79.2001 73.3637 78.4655 73.3317 77.8587 73.2679C76.6131 73.172 75.3356 73.0443 74.09 72.9485C71.5668 72.7249 69.0437 72.5013 66.5205 72.2778C63.9974 72.0542 66.1054 72.5652 66.1373 72.7888C66.5525 75.28 66.2331 77.8351 65.3388 80.1985C64.4446 82.5619 65.4666 80.7095 65.7221 80.7095C68.0536 80.5179 70.3851 80.1666 72.7166 79.7833C75.0481 79.4 75.0481 79.4 76.1979 79.2084C77.3477 79.0168 77.3157 79.0487 77.8587 78.9529C78.4016 78.8571 78.4974 78.8571 78.7849 78.8251C79.0723 78.7932 79.2639 78.889 79.4875 79.1445C80.3179 80.0388 81.1164 80.965 81.9468 81.8593C82.7772 82.7536 82.5536 82.5619 83.0007 82.6897C83.4479 82.8174 83.8631 82.6897 84.0866 82.3064C84.4699 81.6996 84.1186 80.9011 83.9589 80.2624C83.7992 79.6236 83.6076 78.8251 83.384 78.0906C82.9369 76.6214 82.362 74.769 81.0525 73.8428C79.743 72.9166 80.2221 74.226 80.6373 74.5135C81.6593 75.248 82.1065 76.7492 82.4897 77.867C82.873 78.9848 82.9049 79.2404 83.0646 79.9111C83.2243 80.5818 83.2243 80.4859 83.2882 80.7734C83.3521 81.0608 83.5117 81.3802 83.4479 81.6677C83.3521 82.2426 82.7133 81.4441 82.5856 81.2844C82.2023 80.8692 81.851 80.454 81.4677 80.0388C81.0844 79.6236 80.7331 79.2084 80.3499 78.7932C79.9666 78.378 79.775 78.0906 79.2959 77.9628C78.8168 77.8351 78.3058 77.9947 77.8906 78.0586C77.4754 78.1225 76.7728 78.2183 76.2298 78.3141C75.1758 78.4738 74.0899 78.6655 73.036 78.8251C70.6087 79.2084 68.1813 79.5917 65.7221 79.8152L66.1054 80.3263C67.0635 77.8351 67.351 75.1203 66.9038 72.5014L66.5205 73.0124C68.9479 73.2359 71.3433 73.4276 73.7706 73.6511C76.1979 73.8747 76.1979 73.8747 77.3796 73.9705C78.5613 74.0663 78.5294 74.0663 79.1043 74.1302C79.6792 74.1941 80.1902 74.1941 80.6373 74.4815C81.0845 74.769 81.4677 74.0663 81.0525 73.8108V73.8428Z" fill="#FF4647"/>
<path d="M67.7342 72.8845C68.6285 75.2479 68.4368 77.9307 67.1912 80.1345C66.9357 80.5816 67.6065 80.9649 67.862 80.5497C69.2353 78.1862 69.4908 75.2479 68.5007 72.6928C67.5106 70.1378 67.5426 72.4373 67.7342 72.9164V72.8845Z" fill="white"/>
<path d="M61.8254 78.6975C62.1448 78.2823 62.4323 77.8671 62.7517 77.4519C63.071 77.0367 62.8155 77.2283 62.7836 77.1325C62.7517 77.0367 62.6878 76.9409 62.592 76.9089C62.4962 76.877 62.4003 76.8451 62.2726 76.877C62.1448 76.9089 62.1129 76.9728 62.049 77.0686C61.7296 77.4838 61.4422 77.899 61.1228 78.3142C60.8034 78.7294 61.0589 78.5378 61.0908 78.6336C61.1228 78.7294 61.1867 78.8252 61.2825 78.8572C61.3783 78.8891 61.4741 78.9211 61.6019 78.8891C61.7296 78.8572 61.7616 78.7933 61.8254 78.6975Z" fill="#161616"/>
<path d="M63.9971 79.1446C64.1887 78.6336 64.3485 78.1226 64.5401 77.6435C64.7317 77.1644 64.4762 77.1964 64.2526 77.1644C64.0291 77.1325 63.8374 77.2283 63.7736 77.4519C63.5819 77.9629 63.4223 78.4739 63.2306 78.953C63.039 79.4321 63.2945 79.4001 63.518 79.4321C63.7416 79.464 63.9332 79.3682 63.9971 79.1446Z" fill="#161616"/>
<path d="M66.9996 67.0396C68.6285 75.7587 71.9501 84.0627 75.2397 92.3347C76.0701 94.4427 76.9644 96.4867 77.7948 98.5947C77.8906 98.8182 77.9864 99.0737 77.9545 99.2973C77.9545 99.5528 77.7948 99.8083 77.6671 100.032C76.8367 101.469 76.0062 102.906 75.1758 104.312C75.4314 104.567 75.8466 104.599 76.1979 104.503C76.5492 104.376 76.8366 104.152 77.0921 103.896C78.9765 102.268 80.8928 100.639 82.4897 98.7224C82.6175 98.5627 82.7452 98.403 82.8091 98.1795C82.8411 97.9878 82.8091 97.7643 82.7453 97.5726C81.4358 91.9515 79.9347 86.4581 78.9446 80.7411C78.1142 75.8226 77.2518 70.9041 76.4214 65.9856" fill="white"/>
<path d="M66.6163 67.1354C67.5744 72.1498 69.0436 77.0363 70.7683 81.8271C72.4929 86.6817 74.4412 91.4405 76.3894 96.1994C76.6768 96.8701 76.9643 97.5408 77.2198 98.2434C77.4753 98.946 77.5711 98.946 77.5392 99.2974C77.5072 99.6487 77.2517 99.9361 77.092 100.224C76.3574 101.533 75.5909 102.811 74.8563 104.12C74.1218 105.43 74.7925 104.471 74.9202 104.599C75.9742 105.557 77.1559 104.408 77.9544 103.705C78.7528 103.002 80.0623 101.884 81.0524 100.894C82.0425 99.9042 82.0106 99.9042 82.4577 99.3932C82.9048 98.8822 83.2881 98.467 83.2242 97.8282C83.1603 97.1894 82.9048 96.4229 82.7451 95.7203C82.5855 95.0176 82.3938 94.315 82.2341 93.6123C81.5315 90.7379 80.8288 87.8315 80.1901 84.9251C79.5513 82.0187 79.0722 78.9846 78.5612 76.0143C77.9863 72.6288 77.4114 69.2753 76.8365 65.8898C76.2617 62.5044 75.9742 65.6024 76.07 66.1134C77.0282 71.7026 77.8905 77.2918 78.9764 82.8491C79.4874 85.5639 80.1262 88.2786 80.7969 90.9615C81.4676 93.6443 81.4357 93.6123 81.787 94.9538C82.1383 96.2952 82.1064 96.3271 82.2661 96.9978C82.4258 97.6685 82.4577 97.6366 82.4896 97.956C82.5216 98.2753 82.2341 98.4989 82.0425 98.7544C81.0843 99.8723 80.0304 100.894 78.9445 101.852C77.8586 102.811 77.8266 102.811 77.2837 103.29C76.7407 103.769 76.07 104.535 75.5271 104.024L75.5909 104.503C76.2616 103.354 76.9324 102.172 77.6031 101.022C78.2738 99.8723 78.3057 100 78.4015 99.4251C78.4973 98.8502 78.146 98.2115 77.9225 97.6685C76.9004 95.1773 75.8784 92.6861 74.8883 90.1949C72.972 85.3722 71.0876 80.5176 69.5865 75.5352C68.7242 72.7247 68.0215 69.8502 67.4786 66.9438C66.9356 64.0374 66.6162 66.6564 66.7121 67.1674L66.6163 67.1354Z" fill="#161616"/>
<path d="M56.7471 33.6643C53.0742 32.9936 49.8165 30.4705 48.5389 26.9253C47.6766 24.498 47.5488 21.879 47.453 19.324C47.2933 14.4694 47.0698 9.00788 49.018 4.4407C49.0819 4.31294 49.1138 4.18519 49.2416 4.12131C49.5929 3.8658 49.9761 4.37683 50.1039 4.79203C50.2316 5.30304 50.2956 5.84598 50.2956 6.357C50.4552 5.9418 50.4233 5.46273 50.5191 4.98365C50.6149 4.53651 50.8704 4.05743 51.3176 3.96162C52.6909 3.67417 52.116 7.05965 51.9563 7.6026C52.148 6.58057 52.4673 5.59048 52.9145 4.66427C53.9365 2.5244 54.2879 6.16538 54.1282 6.86802C54.3198 6.26119 54.5114 5.65436 54.703 5.04753C54.7988 4.69621 55.0224 4.281 55.3737 4.281C55.8847 4.281 55.9486 4.98366 55.8848 5.49468C54.9905 11.052 54.7989 16.9925 54.9585 22.6456C54.9585 23.0927 54.9585 23.5718 55.1821 23.955C55.5334 24.6896 56.9387 24.9132 57.6414 25.2326" fill="white"/>
<path d="M56.843 33.2809C54.8308 32.8976 52.9465 32.0034 51.4454 30.5981C49.8165 29.097 48.8584 27.1807 48.4112 25.0408C47.9641 22.9009 47.8683 19.9626 47.8044 17.4395C47.7405 15.0441 47.7405 12.6487 47.996 10.2533C48.2515 7.85796 48.4112 7.60246 48.7945 6.32493C49.1777 5.04739 48.9861 5.68616 49.1139 5.36678C49.2416 5.04739 49.3694 4.50444 49.4971 4.47251C49.6568 4.47251 49.7846 5.07934 49.8165 5.17515C49.9123 5.55841 49.9442 5.9736 49.9442 6.35686C49.9442 6.74012 50.583 6.86789 50.7108 6.45269C50.8385 6.03749 50.8386 5.5584 50.9344 5.07932C51.0302 4.60025 51.126 4.37669 51.4454 4.31281C51.7648 4.24894 51.7647 4.72801 51.7967 4.95158C51.8925 5.75004 51.7967 6.70819 51.5731 7.44277L52.3396 7.66634C52.5313 6.67625 52.8187 5.71809 53.2658 4.82382C53.713 3.92955 53.5533 4.31281 53.5852 4.34474C53.6172 4.37668 53.3936 4.34474 53.3936 4.34474C53.3936 4.34474 53.4575 4.44057 53.4894 4.47251C53.6491 4.82383 53.713 5.23903 53.7449 5.65423C53.7769 6.06943 53.7769 6.10136 53.7769 6.32493C53.7769 6.5485 53.7769 6.51656 53.7769 6.61238C53.7769 6.70819 53.7769 6.77207 53.7769 6.77207C53.681 7.28309 54.3837 7.4747 54.5434 6.99562C54.7031 6.51655 54.8308 6.10135 54.9586 5.62228C55.0863 5.1432 55.1822 4.66414 55.4057 4.69608C55.7571 4.75995 55.3738 6.48461 55.3418 6.67624C55.0863 8.46479 54.8947 10.2533 54.767 12.0738C54.6392 13.8943 54.5753 15.8106 54.5434 17.663C54.5114 19.5155 54.4795 21.2721 54.6073 23.0606C54.6712 23.8272 54.8947 24.4659 55.5654 24.8492C56.2361 25.2324 56.843 25.3282 57.4817 25.5838C58.1205 25.8393 58.344 25.1047 57.8969 24.9131C57.4498 24.7214 56.6513 24.5298 56.0764 24.2423C55.5015 23.9549 55.4057 22.9648 55.4057 22.2302C55.3419 20.25 55.3419 18.2699 55.4057 16.2897C55.4696 14.3095 55.5654 12.2974 55.7571 10.3172C55.9487 8.33704 55.9487 8.33705 56.0764 7.34696C56.2042 6.35687 56.2042 6.38881 56.3 5.90973C56.3958 5.43066 56.4278 5.20709 56.3639 4.85577C56.2681 4.15313 55.5654 3.61016 54.9267 4.12117C54.2879 4.63219 54.5114 4.72801 54.3837 5.04739C54.1921 5.62228 54.0324 6.19718 53.8408 6.77207L54.6073 6.99562C54.7031 6.48461 54.6392 5.94167 54.6073 5.43066C54.5753 4.91964 54.4795 4.24894 54.0962 3.83374C52.8187 2.49233 51.7967 6.93175 51.6689 7.4747C51.5412 8.01765 52.2758 8.17735 52.4355 7.69827C52.5951 7.2192 52.6271 6.70818 52.691 6.19717C52.7549 5.68615 52.7548 4.8877 52.5632 4.31281C52.3716 3.73792 51.8286 3.3866 51.2218 3.61017C50.072 3.99343 50.3275 5.36677 50.0401 6.26105L50.8066 6.35686C50.8066 5.71809 50.7747 4.95159 50.4872 4.37669C50.1998 3.8018 49.8165 3.51435 49.3055 3.70598C48.7945 3.89761 48.6348 4.63219 48.4751 5.07932C48.3154 5.52646 48.0279 6.35687 47.8683 7.02757C47.1975 9.64652 47.0698 12.3932 47.0698 15.108C47.0698 16.4174 47.1017 17.7269 47.1656 19.0683C47.2295 20.4098 47.2614 21.9747 47.4531 23.4119C47.7725 25.967 48.507 28.3943 50.2317 30.3426C51.9564 32.2908 54.2559 33.5683 56.7791 34.0474C59.3022 34.5265 57.4817 33.3767 57.0027 33.2809H56.843Z" fill="#161616"/>
<path d="M77.1563 65.8583C77.0605 63.8782 76.9647 61.866 76.9008 59.8859C76.9008 59.2151 77.1244 55.9894 76.4856 55.6381C76.3579 55.5742 76.1982 55.5422 76.0385 55.5422C69.2037 54.9035 62.3688 54.2328 55.534 53.594C54.544 57.203 54.3523 61.0676 54.033 64.8044C53.9691 65.3792 53.9372 66.018 54.2885 66.4651C54.6079 66.8484 55.1189 67.0081 55.5979 67.1359C58.4405 67.7746 61.4107 67.7107 64.2213 66.9442C64.2532 65.6986 64.6046 64.453 65.2114 63.3671C65.6585 64.485 66.0737 65.6028 66.5208 66.7207C66.6167 67.0081 66.7444 67.2956 66.968 67.4872C67.2235 67.7107 67.5748 67.7427 67.9261 67.7746C71.088 68.0301 74.3458 67.3914 77.1883 65.9541L77.1563 65.8583Z" fill="#161616"/>
<path d="M77.5718 65.8581C77.5079 64.6125 77.4441 63.335 77.4121 62.0894C77.3802 60.8438 77.2844 60.3328 77.3163 59.4385C77.3483 58.5442 77.3483 58.161 77.3163 57.5541C77.2844 56.9473 77.3163 56.3405 77.0608 55.7975C76.7095 54.9671 75.6555 55.0949 74.889 55.031C73.6754 54.9033 72.4617 54.8074 71.248 54.6797C68.8207 54.4561 66.3615 54.2326 63.9342 53.977C61.5068 53.7215 58.313 53.4341 55.5024 53.1786C55.3427 53.1786 55.1511 53.3063 55.1192 53.466C54.2568 56.6279 54.0013 59.8856 53.7458 63.1434C53.4903 66.4011 53.5542 64.6764 53.5861 65.4429C53.6181 66.2094 53.8416 66.6885 54.4165 67.0398C54.9914 67.3911 55.726 67.487 56.3648 67.6147C57.0035 67.7425 58.0255 67.8383 58.8559 67.8702C60.7084 67.9341 62.5288 67.7105 64.3174 67.2315C66.1059 66.7524 64.6048 67.0079 64.6048 66.8482C64.6687 65.6665 64.9562 64.5167 65.5311 63.4627L64.7965 63.3669L65.5949 65.411C65.8185 66.0178 66.0101 66.6566 66.3295 67.2315C66.6489 67.8064 67.0641 67.9661 67.639 68.0299C68.2139 68.0938 69.0123 68.1257 69.6831 68.1257C72.3659 68.0619 74.9848 67.3912 77.3802 66.2094C77.8273 65.9859 77.4441 65.2832 76.965 65.5387C74.8251 66.6246 72.4936 67.2315 70.0983 67.3273C67.7029 67.4231 68.9165 67.3273 68.3097 67.3273C67.7029 67.3273 67.2238 67.3273 66.9683 66.7524C66.7128 66.1775 66.5212 65.6345 66.2976 65.0916L65.563 63.2072C65.4352 62.9198 65.0201 62.792 64.8284 63.1114C64.1897 64.2931 63.8383 65.5707 63.7745 66.9121L64.0619 66.5288C62.5927 66.9121 61.0917 67.1357 59.5586 67.1357C58.0256 67.1357 56.6203 67.0398 55.2469 66.6246C53.8736 66.2094 54.2888 65.9539 54.3207 65.2513C54.3527 64.5486 54.4165 63.8141 54.4804 63.1114C54.6082 61.6422 54.7039 60.1731 54.8956 58.7039C55.0872 57.2348 55.3747 55.3504 55.8218 53.6896L55.4386 53.977C60.1654 54.4242 64.8603 54.8713 69.5872 55.3185C74.3141 55.7656 71.9187 55.542 73.0685 55.6378C74.2183 55.7337 74.1225 55.7337 74.6654 55.7975C75.2084 55.8614 75.3042 55.8614 75.6236 55.8933C75.943 55.9253 76.1346 55.8933 76.1985 55.9892C76.4221 56.2447 76.422 57.0112 76.422 57.3625C76.422 58.0013 76.422 58.6081 76.422 59.2469C76.422 60.1412 76.454 61.0354 76.5179 61.9297C76.5817 63.2392 76.6456 64.5486 76.6776 65.8581C76.7095 67.1676 77.508 66.3691 77.476 65.8581H77.5718Z" fill="#161616"/>
<path d="M78.9769 80.7092C78.9449 80.4537 78.881 80.2301 78.8491 79.9746C76.6134 81.3799 74.0264 82.2103 71.3755 82.37C72.5892 85.6916 73.8987 89.0132 75.2082 92.3028C76.0385 94.4108 76.9328 96.4548 77.7632 98.5627C77.859 98.7863 77.9549 99.0418 77.9229 99.2654C77.9229 99.5209 77.7632 99.7764 77.6355 100C76.8051 101.437 75.9746 102.842 75.1443 104.28C75.3998 104.535 75.815 104.567 76.1663 104.471C76.5176 104.344 76.805 104.12 77.0606 103.865C78.9449 102.236 80.8612 100.607 82.4581 98.6905C82.5859 98.5308 82.7137 98.3711 82.7775 98.1475C82.8095 97.9559 82.7775 97.7323 82.7137 97.5407C81.4042 91.9196 79.9031 86.4262 78.913 80.7092H78.9769Z" fill="#FF4647"/>
<path d="M79.3603 80.6135C79.3284 80.358 79.2645 80.1344 79.2325 79.8789C79.2006 79.6234 78.8493 79.5276 78.6576 79.6553C76.4539 81.0287 73.9627 81.8272 71.4076 82.0188C71.1841 82.0188 70.9285 82.2743 71.0244 82.5298C72.0783 85.4362 73.1962 88.2787 74.346 91.1531C74.9208 92.5584 75.4638 93.9637 76.0706 95.369C76.6775 96.7743 76.6775 96.8062 76.9649 97.5408C77.2524 98.2754 77.2523 98.2115 77.3801 98.5629C77.5079 98.9142 77.6676 99.2655 77.4759 99.6807C76.7094 101.214 75.7513 102.651 74.8889 104.152C74.0266 105.653 74.825 104.503 74.9528 104.631C75.5916 105.206 76.422 105.014 77.0288 104.535C77.6356 104.056 78.4341 103.354 79.1048 102.779C79.7755 102.204 80.5739 101.469 81.2446 100.767C81.9153 100.064 82.5541 99.4891 83.0332 98.7545C83.5123 98.0199 83.0652 96.9979 82.8735 96.1994C82.6819 95.401 82.3944 94.2192 82.1709 93.2611C81.6918 91.3129 81.2127 89.3327 80.7656 87.3844C80.2545 85.1487 79.7755 82.945 79.3922 80.6774C79.009 78.4097 78.5299 80.3899 78.6257 80.9009C79.2325 84.478 80.0629 87.9913 80.9252 91.5364C81.7876 95.0816 81.7876 95.0496 82.2028 96.8062C82.618 98.5629 82.2986 97.2534 82.3625 97.477C82.4264 97.7005 82.4902 97.9241 82.4583 98.1157C82.3944 98.499 81.9154 98.8822 81.6598 99.1377C81.1169 99.7446 80.5101 100.351 79.9032 100.926C79.2964 101.501 78.466 102.236 77.6995 102.875C76.933 103.513 76.9649 103.513 76.5816 103.801C76.1984 104.088 75.7832 104.344 75.4319 104.024L75.4957 104.503C76.2942 103.13 77.0607 101.789 77.8592 100.415C78.6576 99.0419 78.2105 99.8404 78.2744 99.521C78.3383 99.2016 78.2744 98.8184 78.1147 98.467C77.8273 97.7325 77.5398 96.9979 77.2204 96.2952C76.0068 93.3569 74.7931 90.3866 73.6433 87.4164C72.9726 85.7236 72.3339 83.999 71.6951 82.3062L71.3118 82.8172C74.0266 82.6256 76.6455 81.7952 78.977 80.358L78.4022 80.1344C78.4341 80.3899 78.4979 80.6135 78.5299 80.869C78.6257 81.38 79.3922 81.1565 79.2964 80.6454L79.3603 80.6135Z" fill="#FF4647"/>
<path d="M82.8407 98.1477C82.8726 97.9561 82.8407 97.7325 82.7768 97.5409C82.713 97.2853 82.6491 97.0618 82.6171 96.8063C81.659 97.8922 80.5731 98.8503 79.3275 99.5849C79.5191 99.1378 79.7107 98.6906 79.6469 98.2116C79.583 97.7325 79.1358 97.2853 78.6887 97.3812C78.4013 97.445 78.2096 97.6686 78.0499 97.8922C77.9541 98.0199 77.8264 98.1796 77.7306 98.3393C77.7306 98.4032 77.7945 98.4671 77.8264 98.531C77.9222 98.7545 78.018 99.01 77.9861 99.2336C77.9861 99.4891 77.8264 99.7446 77.6986 99.9682C76.8682 101.405 76.0379 102.811 75.2075 104.248C75.463 104.503 75.8781 104.535 76.2295 104.44C76.5808 104.312 76.8683 104.088 77.1238 103.833C79.0081 102.204 80.9244 100.575 82.5213 98.6587C82.6491 98.499 82.7768 98.3393 82.8407 98.1158V98.1477Z" fill="#161616"/>
<path d="M83.2241 98.2752C83.288 97.7322 83.1283 97.2212 83.0005 96.7102C82.8728 96.1992 82.5214 96.3269 82.3298 96.5505C81.4036 97.6045 80.3177 98.5307 79.136 99.2652L79.679 99.8082C80.0303 98.9778 80.3497 97.9238 79.5193 97.2531C78.6889 96.5824 77.8904 97.349 77.4433 98.0516C76.9961 98.7542 77.3155 98.4029 77.4113 98.6904C77.5071 98.9778 77.6029 99.1694 77.5391 99.4569C77.4752 99.7443 77.2516 99.9679 77.1239 100.223C76.9961 100.479 76.8364 100.734 76.6767 100.99C76.0699 102.044 75.4631 103.066 74.8882 104.12C74.3133 105.174 74.8243 104.471 74.9521 104.599C75.6228 105.206 76.4851 104.95 77.1239 104.439C77.7627 103.928 78.625 103.194 79.3276 102.555C80.0302 101.916 80.7649 101.245 81.4356 100.543C82.1063 99.8401 82.1382 99.8082 82.4576 99.4249C82.777 99.0417 83.0964 98.7223 83.2241 98.2752C83.3519 97.828 82.6173 97.5725 82.4576 98.0516C82.2979 98.5307 81.9785 98.7223 81.7549 98.9778C81.5314 99.2333 81.18 99.5846 80.8926 99.904C80.3177 100.479 79.7428 101.054 79.136 101.597C78.5292 102.14 77.9543 102.651 77.3474 103.162C76.7406 103.673 76.038 104.535 75.4631 104.024L75.527 104.503C76.1657 103.417 76.7725 102.331 77.4113 101.245C78.0501 100.16 78.0182 100.287 78.2417 99.7763C78.4653 99.2652 78.3056 98.7862 78.082 98.2752V98.5946C78.2417 98.3071 78.625 97.5406 79.0402 97.9558C79.4554 98.371 79.136 99.0097 78.9763 99.4569C78.8166 99.904 79.136 100.223 79.5193 99.9998C80.7649 99.2333 81.9146 98.2752 82.8728 97.1573L82.2021 96.9976C82.2979 97.349 82.4895 97.7961 82.4256 98.1474C82.3618 98.6584 83.1283 98.8501 83.1922 98.371L83.2241 98.2752Z" fill="#161616"/>
<path d="M83.7664 81.0927C83.2873 79.3041 82.4569 75.2799 80.8281 74.194C80.5406 74.0024 80.1573 73.9066 79.806 73.8746C80.3809 75.4077 80.7961 77.0046 81.0835 78.6335C80.7322 78.6973 80.4767 78.2183 80.1254 78.1863C79.8699 78.1544 79.6144 78.346 79.5186 78.6015C79.6144 78.6654 79.7102 78.7612 79.806 78.857C80.7003 79.8471 81.5946 80.8372 82.4569 81.8273C82.7443 82.1467 83.1596 82.498 83.5428 82.3064C83.9261 82.1147 83.8941 81.5398 83.7664 81.1246V81.0927Z" fill="#161616"/>
<path d="M84.15 80.9971C83.7667 79.5599 83.4473 78.0907 82.9044 76.6854C82.3614 75.2801 82.3295 75.3121 81.9143 74.7052C81.4991 74.0984 80.7964 73.5874 79.9341 73.4596C79.0718 73.3319 79.3273 73.6193 79.455 73.9387C80.0299 75.4718 80.4451 77.0687 80.7325 78.6975L81.1158 78.1865C80.9561 78.1865 80.7964 78.0268 80.6687 77.931C80.5409 77.8352 80.3493 77.7394 80.1577 77.7394C79.7425 77.7394 79.3912 77.9949 79.1995 78.3462C79.0079 78.6975 79.1356 78.6975 79.2634 78.8253C79.8702 79.3363 80.3812 80.0389 80.9242 80.6458C81.4671 81.2526 81.8823 81.8275 82.4572 82.3066C83.0321 82.7856 83.4792 82.8815 83.9264 82.4663C84.3735 82.0511 84.3097 81.4442 84.1819 80.9332C84.0542 80.4222 83.2876 80.6458 83.4154 81.1568C83.5431 81.6678 83.5751 82.1149 83.096 81.7955C82.6169 81.4762 82.3614 81.029 82.042 80.6777C81.7226 80.3264 81.3394 79.8792 80.9881 79.496C80.6367 79.1127 80.2854 78.6336 79.8702 78.2823L79.9341 78.7614C80.0938 78.3781 80.2854 78.6017 80.5409 78.7614C80.7964 78.9211 80.9561 78.985 81.1797 78.985C81.4033 78.985 81.5949 78.7295 81.5629 78.474C81.2755 76.8451 80.8603 75.2482 80.2854 73.7151L79.8063 74.1942C80.6048 74.29 81.0519 74.6733 81.4671 75.3121C81.8823 75.9508 82.1378 76.5577 82.3614 77.2284C82.8085 78.5059 83.096 79.8154 83.4473 81.1248C83.7986 82.4343 84.3416 81.4123 84.2138 80.9013L84.15 80.9971Z" fill="#161616"/>
<path d="M72.1094 84.8296C74.6326 85.3406 77.2834 84.8935 79.4552 83.552C81.6271 82.2106 79.4872 82.5939 79.0401 82.8813C77.028 84.1269 74.6006 84.5741 72.301 84.095C70.0015 83.6159 71.5984 84.7657 72.0775 84.8615L72.1094 84.8296Z" fill="white"/>
<path d="M74.2812 88.6939C76.453 88.3745 78.529 87.5122 80.2856 86.2027C82.0422 84.8932 80.2856 85.2126 79.8704 85.532C78.1457 86.7776 76.1655 87.608 74.0576 87.9274C71.9497 88.2468 73.7382 88.2148 73.7702 88.4065C73.8021 88.5981 74.0576 88.7258 74.2493 88.6939H74.2812Z" fill="white"/>
<path d="M76.3894 57.6504C76.5491 57.5546 76.6449 57.4588 76.7088 57.363C77.2517 55.8299 77.7308 54.233 78.3696 52.7639C78.7528 51.9335 79.7749 50.7517 79.5513 49.7617C79.711 50.4962 79.8707 51.1989 80.0304 51.9335C82.7451 51.9335 85.4599 51.7418 88.1427 51.3905C88.4621 51.3586 88.8134 51.2947 89.0051 51.0392C89.1967 50.8156 89.2286 50.4643 89.2286 50.1449C89.2286 47.1747 88.6218 44.2683 88.015 41.3619C87.3123 38.1361 86.4181 34.559 83.5436 32.5788C80.222 30.2793 75.7187 28.7781 71.8222 27.9158C69.2671 27.3409 66.776 26.6702 64.189 26.255C63.4544 26.1273 56.9709 25.0094 56.7473 25.5524C55.9488 27.3729 53.5854 33.2495 56.6195 33.9841C58.6317 34.4632 60.6119 34.9103 62.624 35.3894C62.2726 35.2936 58.8552 43.342 58.472 44.2363C57.0348 47.5579 55.7892 50.9114 54.9907 54.4566C58.5997 56.0855 62.4323 57.2033 66.3607 57.7782C67.5744 57.9698 74.7605 58.5128 76.4213 57.6824L76.3894 57.6504Z" fill="#FF4647"/>
<path d="M76.5809 58.0015C77.2197 57.6183 77.3474 56.6601 77.571 55.9894C77.7945 55.3187 78.1459 54.2967 78.4653 53.4663C78.9763 52.2526 80.158 51.0389 79.9025 49.6337L79.136 49.8572C79.2957 50.5918 79.4554 51.2945 79.615 52.029C79.7747 52.7636 79.8386 52.3165 79.9983 52.3165C81.723 52.3165 83.4477 52.2526 85.1723 52.0929C86.897 51.9332 86.8331 51.9332 87.6635 51.8374C88.4939 51.7416 89.0688 51.7416 89.4521 51.1028C89.8353 50.4641 89.6437 49.5698 89.6118 48.8991C89.5798 48.2284 89.484 47.2702 89.3882 46.4718C89.1646 44.779 88.8133 43.0863 88.462 41.3936C87.951 38.9662 87.3442 36.3792 85.9069 34.3032C84.4697 32.2272 81.6911 30.79 79.2318 29.768C76.4851 28.6182 73.6426 27.8836 70.7681 27.2129C68.3408 26.638 65.9135 26.0951 63.4223 25.6799C60.9311 25.2647 60.0368 25.1369 58.3441 25.0092C56.6514 24.8814 57.1305 24.8495 56.6833 25.105C56.2362 25.3605 56.3639 25.4883 56.2681 25.7118C56.1084 26.0632 55.9807 26.4145 55.8529 26.7658C55.2141 28.4266 54.5754 30.3429 54.799 32.1634C55.0225 33.9839 55.2142 33.6325 55.8849 34.0477C56.5556 34.4629 57.0027 34.431 57.5456 34.5588L60.0688 35.1656L62.528 35.7405L62.6239 34.974C62.3364 34.974 62.1448 35.2614 62.017 35.485C61.7934 35.8363 61.6337 36.1876 61.4421 36.5709C60.8992 37.6568 60.3882 38.7746 59.9091 39.8925C58.8871 42.192 57.865 44.5235 56.9388 46.855C56.0126 49.1865 55.1822 51.7735 54.6073 54.3286C54.0324 56.8837 54.6073 54.7119 54.799 54.7757C58.5038 56.4365 62.4642 57.6502 66.4884 58.1932C70.5126 58.7361 70.9917 58.5764 73.2274 58.5125C75.4631 58.4487 75.6227 58.5125 76.6128 58.0015C77.6029 57.4905 76.6767 57.0753 76.1977 57.3308C75.4631 57.7141 74.3452 57.6821 73.4829 57.7141C72.2054 57.746 70.9598 57.7141 69.6822 57.6502C66.9355 57.5224 64.5082 57.1392 61.7935 56.4365C59.5258 55.8297 57.3221 55.0632 55.1822 54.105L55.3738 54.5522C56.2042 50.8473 57.5456 47.3341 59.0467 43.8528C60.5478 40.3715 60.8353 39.7008 61.8254 37.6248C62.8155 35.5488 62.2725 36.6986 62.528 36.2195C62.7835 35.7405 62.6877 35.9002 62.7835 35.7724C62.8794 35.6447 62.7835 35.7405 62.8155 35.7085C62.8155 35.7085 62.8155 35.6766 62.8474 35.6766C62.8474 35.6766 62.7197 35.7724 62.6239 35.7724C63.071 35.8363 63.1668 35.1017 62.7196 35.0059L58.0247 33.888C57.1943 33.6964 56.1404 33.6645 55.7252 32.7702C55.31 31.8759 55.4697 31.301 55.5655 30.5984C55.6613 29.8958 55.9168 28.8418 56.2043 28.0114C56.4917 27.181 56.6833 26.638 56.9707 25.9993C57.2582 25.3605 57.0666 25.8396 57.0666 25.8076C57.0666 25.7438 57.0027 25.8076 57.0027 25.8396C57.0027 25.8396 57.1304 25.8396 57.0985 25.8396C57.2582 25.8396 57.6095 25.8396 57.8331 25.8396C59.3981 25.9034 60.963 26.159 62.528 26.4145C64.093 26.67 66.4245 27.0852 68.3408 27.5323C71.0875 28.1711 73.8661 28.7779 76.549 29.6722C79.2318 30.5665 79.136 30.6303 80.3816 31.2372C81.6272 31.844 82.7131 32.4189 83.7032 33.2173C85.5875 34.7504 86.4818 37.05 87.0886 39.3495C87.6955 41.6491 87.6954 41.9365 87.9509 43.246C88.2065 44.5555 88.5578 46.4079 88.6855 48.0048C88.8133 49.6017 88.8133 49.5379 88.7814 50.3044C88.7494 51.0709 88.6536 50.8793 88.2703 50.9751C87.8871 51.0709 87.4719 51.1028 87.0567 51.1348C85.4598 51.3264 83.8948 51.4541 82.2979 51.518C80.701 51.5819 80.7329 51.55 79.9344 51.55L80.3177 51.8374C80.158 51.1028 79.9983 50.4002 79.8386 49.6656C79.6789 48.931 78.9763 49.3782 79.0721 49.8892C79.1679 50.4002 78.8166 51.0389 78.5291 51.518C78.2417 51.9971 77.9223 52.572 77.6668 53.1469C77.4113 53.7218 77.1239 54.5202 76.9003 55.2229C76.6767 55.9255 76.6767 55.9255 76.549 56.2768C76.4212 56.6282 76.3573 57.1392 76.0699 57.3308C75.6228 57.5863 76.038 58.289 76.4851 58.0015H76.5809Z" fill="#FF4647"/>
<path d="M53.5854 24.8491C53.1063 25.424 52.5953 25.9989 52.1162 26.5738C51.6372 27.1487 51.9566 26.989 52.1162 27.1487C52.2759 27.3084 52.5315 27.3084 52.6912 27.1487C53.1702 26.5738 53.6812 25.9989 54.1603 25.424C54.6394 24.8491 54.32 25.0088 54.1603 24.8491C54.0006 24.6894 53.7451 24.6894 53.5854 24.8491Z" fill="#161616"/>
<path d="M82.3621 31.5563C82.1066 29.3845 77.7949 27.7556 75.9425 27.564C73.4193 27.3085 70.7365 28.2347 69.97 30.8856C72.3334 31.0453 74.6969 31.0133 77.0284 30.8217C77.6352 32.3228 78.242 33.8239 78.8488 35.325C78.9766 35.6444 79.2002 35.9957 79.5196 35.9637C79.6473 35.9637 79.7431 35.8679 79.8709 35.7721C80.7013 35.0375 81.4039 34.1433 81.9469 33.1532C82.2024 32.6741 82.4259 32.1312 82.3621 31.5563Z" fill="#161616"/>
<path d="M82.7772 31.5563C82.5217 29.5122 80.0305 28.3944 78.3377 27.7556C76.645 27.1169 74.0261 26.7975 72.0459 27.8195C70.0657 28.8415 69.9699 29.4803 69.5866 30.7898C69.2033 32.0992 69.7144 31.2689 69.9699 31.3008C72.3333 31.4605 74.6968 31.4285 77.0283 31.2369L76.645 30.9495C77.0921 32.0673 77.5393 33.1851 77.9864 34.303C78.4335 35.4208 78.3377 35.325 78.6252 35.8041C78.9126 36.2832 79.1362 36.4109 79.5514 36.379C79.9666 36.347 80.3499 35.8999 80.6692 35.6125C80.9886 35.325 81.3719 34.814 81.6912 34.3988C82.2661 33.6004 82.873 32.6102 82.8091 31.5882C82.7452 30.5662 81.9787 31.0772 82.0106 31.5882C82.0745 32.4186 81.5635 33.1851 81.1164 33.8239C80.6692 34.4627 80.6692 34.4627 80.3818 34.7501C80.0943 35.0376 80.0943 35.0376 79.9666 35.1973C79.8388 35.357 79.6152 35.6125 79.4875 35.6125C79.2639 35.5805 79.0723 34.7821 78.9765 34.6224C78.8168 34.2072 78.6571 33.792 78.4655 33.3768C78.1142 32.5144 77.7628 31.6202 77.4115 30.7578C77.0602 29.8955 77.2199 30.4384 77.0283 30.4704C74.6648 30.662 72.3014 30.694 69.9699 30.5343L70.3531 31.0453C70.9919 28.9054 73.0999 27.9473 75.2078 27.9792C76.9644 27.9792 78.7849 28.6818 80.254 29.6081C81.7232 30.5343 81.8509 30.7259 81.9787 31.6202C82.1065 32.5144 82.841 32.1312 82.7772 31.6202V31.5563Z" fill="#161616"/>
<path d="M74.9519 13.4474C74.1215 15.4915 73.2911 17.5675 72.4288 19.6115C72.0136 20.6335 71.5984 21.8153 72.0774 22.8053C72.6523 24.019 74.2173 24.3064 75.2394 25.2007C74.888 26.606 73.9299 28.7778 75.0477 30.0873C75.4949 30.6303 76.1656 30.9496 76.8363 31.1413C81.0521 32.5146 82.9046 29.0972 85.1402 25.9992C86.4178 25.9992 87.6953 25.584 88.6535 24.7536C89.1645 24.3065 89.5797 23.7635 89.6755 23.0928C89.7713 22.4221 89.4519 21.6875 88.8132 21.464C90.1226 20.3461 91.4321 18.5576 91.4321 16.7051C91.4321 14.9805 90.0588 13.5752 88.6535 12.5851C86.6733 11.1478 84.3737 10.1578 81.9783 9.64676C80.7327 9.39125 79.3594 9.2635 78.1777 9.74257C76.453 10.4772 75.4948 12.2976 74.6964 13.9904" fill="white"/>
<path d="M74.569 13.3514C74.026 14.6609 73.483 16.0023 72.9401 17.3118C72.3971 18.6213 72.3971 18.6212 72.1416 19.292C71.8861 19.9627 71.6626 20.4737 71.5348 21.1124C71.3432 22.1983 71.6306 23.2523 72.5249 23.955C73.4192 24.6576 74.2496 24.8492 74.9842 25.488L74.8884 25.1047C74.569 26.3184 74.0579 27.5959 74.1857 28.8735C74.3135 30.151 75.4632 31.1092 76.7727 31.5244C78.0822 31.9396 79.2 32.0034 80.3498 31.5563C81.4996 31.1092 82.2661 30.4385 83.0007 29.6081C83.7353 28.7777 84.7254 27.3404 85.5557 26.1906L85.2044 26.3823C86.7694 26.3823 88.4622 25.7435 89.4523 24.5299C90.4423 23.3162 90.2188 23.2843 90.091 22.5497C89.9633 21.8151 89.58 21.336 88.9412 21.0486L89.1009 21.7193C90.5062 20.5056 91.7518 18.8129 91.8157 16.8966C91.8796 14.9803 90.5701 13.5111 89.1648 12.4572C87.7595 11.4032 85.7474 10.3173 83.8311 9.71044C81.9148 9.10362 79.8388 8.5926 77.9864 9.39106C76.1339 10.1895 75.1758 12.0739 74.3773 13.7986C73.5789 15.5232 74.8564 14.6609 75.0481 14.2138C75.6868 12.8724 76.3895 11.3393 77.667 10.477C79.2 9.42301 81.1802 9.80627 82.873 10.2854C84.5657 10.7644 86.2904 11.5309 87.8234 12.521C89.3564 13.5111 90.6659 14.5651 90.9853 16.2578C91.3047 17.9505 89.8994 20.0265 88.526 21.2083C87.1527 22.39 88.4622 21.7832 88.6857 21.879C89.5161 22.2303 89.2925 23.3801 88.8773 23.923C88.4621 24.466 87.536 25.1367 86.7056 25.3922C85.8752 25.6477 85.8432 25.6158 85.3961 25.6158C84.9489 25.6158 85.0128 25.6158 84.8531 25.7435C84.6934 25.8713 84.5976 26.1268 84.4699 26.2865C84.0227 26.8933 83.6075 27.5321 83.1604 28.1389C82.3619 29.1928 81.4038 30.3107 80.1262 30.8217C78.8487 31.3327 76.9324 31.1091 75.7507 30.2149C74.1857 29.0651 75.2716 26.8294 75.6549 25.3602C76.0381 23.8911 75.6549 25.0728 75.5591 24.977C74.8564 24.4021 74.026 24.0827 73.2914 23.5717C72.5569 23.0607 72.5888 22.9968 72.4291 22.5816C72.2694 22.1664 72.3013 21.3999 72.461 20.825C72.8123 19.6114 73.3872 18.4296 73.8663 17.2479L75.3674 13.575C75.5591 13.0959 74.7925 12.9043 74.6009 13.3514H74.569Z" fill="#161616"/>
<path d="M76.9323 14.3097C76.9643 14.3097 77.0282 14.2458 77.0601 14.2139C77.092 14.182 77.0921 14.2139 77.124 14.1819C77.1559 14.15 77.2198 14.15 77.124 14.1819C77.2198 14.15 77.3156 14.1181 77.4434 14.0861C77.5711 14.0542 77.4753 14.0861 77.5072 14.0861C77.4434 14.0861 77.6031 14.0861 77.5072 14.0861C77.5711 14.0861 77.6031 14.0861 77.6669 14.0861C77.7308 14.0861 77.7627 14.0861 77.8266 14.0861C77.8905 14.0861 77.8905 14.0861 77.8905 14.0861C77.8266 14.0861 77.8585 14.0861 77.8905 14.0861C77.9863 14.0861 78.0821 14.1181 78.1779 14.15C78.2737 14.182 78.2418 14.15 78.2418 14.15C78.178 14.15 78.2738 14.15 78.2418 14.15C78.3057 14.15 78.3376 14.182 78.3696 14.2139C78.4015 14.2458 78.4654 14.2778 78.4973 14.3097C78.5293 14.3416 78.5293 14.3097 78.5612 14.3416C78.5932 14.3416 78.6251 14.4055 78.657 14.4375C78.6889 14.4694 78.689 14.4694 78.7209 14.5013C78.689 14.4375 78.7848 14.5652 78.7209 14.5013C78.8487 14.661 79.0722 14.7568 79.2638 14.6291C79.4555 14.5013 79.5513 14.2778 79.3916 14.0861C79.0722 13.639 78.5612 13.3196 78.0182 13.2238C77.4753 13.128 76.9004 13.2238 76.4213 13.5112C75.9422 13.7987 76.1658 13.8626 76.2936 14.0542C76.4213 14.2458 76.6449 14.3097 76.8365 14.1819L76.9323 14.3097Z" fill="#161616"/>
<path d="M77.9865 17.12C77.5074 17.3755 77.0283 17.6629 76.5493 17.9185C76.0702 18.174 75.6869 18.3337 75.3676 18.7169C75.0482 19.1002 75.0162 19.6431 75.3676 20.0583C75.7189 20.4735 76.1021 20.5374 76.5173 20.5374C76.9325 20.5374 77.0922 20.4416 77.3797 20.3777C77.6671 20.3138 77.8587 20.25 78.1462 20.2819C78.4336 20.3138 78.5614 20.0903 78.5294 19.8986C78.4975 19.707 78.3698 19.5154 78.1462 19.5154C77.699 19.4834 77.2519 19.6431 76.8048 19.7389C76.3577 19.8348 76.6451 19.7709 76.5493 19.7709C76.4535 19.7709 76.4854 19.7709 76.4534 19.7709C76.4215 19.7709 76.4215 19.7709 76.3896 19.7709C76.3257 19.7709 76.4535 19.7709 76.3896 19.7709C76.3257 19.7709 76.2299 19.739 76.166 19.707C76.1021 19.6751 76.1021 19.707 76.166 19.707C76.166 19.707 76.166 19.707 76.1341 19.707C76.1021 19.707 76.0702 19.6431 76.0063 19.6431C76.0063 19.6431 76.0063 19.6431 75.9744 19.6431L75.9105 19.5793C75.9105 19.5793 75.9105 19.5473 75.9105 19.5154C75.9105 19.5154 75.9105 19.5154 75.9105 19.4834C75.9105 19.4515 75.9105 19.4515 75.9105 19.4196C75.9105 19.4196 75.9105 19.4196 75.9105 19.3876C75.8786 19.3876 75.9105 19.3557 75.9105 19.3876C75.9424 19.3876 75.9744 19.3237 75.9744 19.3237C75.9744 19.3237 76.0063 19.2918 76.0383 19.2599C76.1021 19.196 76.1979 19.1641 76.2937 19.1002C76.4854 18.9724 76.677 18.8766 76.8686 18.7808C77.3477 18.5253 77.8268 18.2378 78.3059 17.9823C78.785 17.7268 78.5614 17.631 78.4336 17.4394C78.3059 17.2477 78.0823 17.1839 77.8907 17.3116L77.9865 17.12Z" fill="#161616"/>
<path d="M76.0379 16.1298C75.974 16.2894 75.9421 16.4491 75.8782 16.6408V16.7366C75.8782 16.8004 75.8782 16.8324 75.8782 16.8963C75.8782 16.9282 75.8782 16.9602 75.9421 16.9921C75.9421 17.024 76.006 17.056 76.0379 17.0879H76.1337C76.1657 17.1198 76.1976 17.1518 76.2295 17.1518C76.2934 17.1518 76.3254 17.1518 76.3892 17.1198C76.4531 17.1198 76.4851 17.0879 76.517 17.024C76.5809 16.9601 76.6128 16.9282 76.6448 16.8643C76.6767 16.8005 76.6767 16.8005 76.7086 16.7685C76.7406 16.6727 76.7725 16.5769 76.7725 16.4811C76.7725 16.3853 76.7725 16.2894 76.7086 16.2256C76.6447 16.1617 76.6447 16.1297 76.6128 16.0978C76.5489 16.0339 76.4851 16.002 76.3573 15.9701C76.2296 15.9381 76.1657 15.9701 76.0699 15.9701C75.974 15.9701 75.8782 16.0339 75.8463 16.0978C75.8144 16.1297 75.7824 16.1617 75.7505 16.2256C75.7505 16.2575 75.7185 16.3214 75.7185 16.3853C75.7185 16.4491 75.7185 16.4811 75.7505 16.5449C75.7505 16.6088 75.7824 16.6408 75.8463 16.6727C75.9102 16.7366 76.006 16.8004 76.1337 16.8004H76.2295C76.2934 16.7685 76.3573 16.7366 76.3892 16.6727L76.2934 16.7366H76.1976C76.1976 16.7685 76.1976 16.7685 76.1976 16.7685H76.1018H76.006C76.006 16.7685 76.006 16.7685 76.0379 16.7685H75.9421C75.9421 16.7366 75.9421 16.7685 75.974 16.7685L75.8782 16.7046C75.8782 16.7046 75.8782 16.7046 75.9102 16.7366L75.8463 16.6408C75.8463 16.6408 75.8463 16.6408 75.8463 16.6727V16.5769C75.8144 16.5769 75.8463 16.5769 75.8463 16.6088V16.513C75.8463 16.513 75.8463 16.5449 75.8463 16.5769V16.4811C75.8463 16.4811 75.8463 16.513 75.8463 16.5449V16.4491C75.8463 16.4811 75.8463 16.513 75.8463 16.5769L75.9102 16.4811C75.9102 16.4811 75.8782 16.5449 75.8463 16.5449L76.517 16.9282C76.5809 16.7685 76.6128 16.6088 76.6767 16.4172C76.6767 16.3533 76.6767 16.3214 76.6767 16.2575C76.6767 16.1936 76.6767 16.1617 76.6448 16.0978C76.6448 16.0659 76.5809 16.002 76.5489 16.002C76.517 15.9701 76.4531 15.9381 76.4212 15.9381C76.3253 15.9381 76.1976 15.9381 76.1018 15.9701C76.006 16.002 75.9421 16.0978 75.9102 16.1936L76.0379 16.1298Z" fill="#161616"/>
<path d="M82.7769 16.9605C82.8727 16.9605 82.9685 16.9605 83.0643 16.9605C82.9685 16.9605 83.1602 16.9605 83.0643 16.9605C83.1602 16.9605 83.0963 16.9605 83.1282 16.9605C83.1601 16.9605 83.224 16.9605 83.256 16.9605C83.3518 16.9605 83.4476 17.0243 83.5115 17.0563C83.4795 17.0563 83.5754 17.0882 83.5115 17.0563C83.5434 17.0563 83.5434 17.0563 83.5753 17.0563C83.6073 17.0563 83.6712 17.0882 83.7031 17.1202C83.767 17.1521 83.8628 17.216 83.9267 17.2479C83.9905 17.2799 83.9586 17.2479 83.9906 17.2799C84.0225 17.3118 84.0544 17.3437 84.0863 17.3757C84.1502 17.4395 84.2141 17.5034 84.278 17.5673C84.3418 17.6312 84.3418 17.6312 84.278 17.5673C84.278 17.5992 84.3419 17.6631 84.3738 17.695C84.4696 17.8867 84.7251 17.9506 84.9167 17.8228C85.1084 17.6951 85.1723 17.4715 85.0445 17.2799C84.5654 16.4814 83.6712 16.0023 82.745 16.0023C81.8187 16.0023 82.3297 16.194 82.3617 16.3856C82.3936 16.5772 82.5214 16.7688 82.745 16.7688L82.7769 16.9605Z" fill="#161616"/>
<path d="M81.9785 18.4294C81.8508 18.653 81.723 18.8446 81.5953 19.0682C81.5633 19.1321 81.5314 19.1959 81.5314 19.2598C81.5314 19.3237 81.5314 19.3556 81.5633 19.4195C81.5633 19.4834 81.5953 19.5153 81.6591 19.5473C81.723 19.6111 81.7549 19.6431 81.8188 19.6431C81.8827 19.6431 81.9146 19.6431 81.9785 19.6431C82.0424 19.6431 82.0743 19.6431 82.1382 19.6431C82.2021 19.6431 82.266 19.6111 82.3298 19.5792C82.3937 19.5473 82.4576 19.5153 82.5215 19.4514C82.5853 19.3876 82.5853 19.3876 82.6173 19.3556C82.7131 19.2279 82.777 19.1001 82.8089 18.9724C82.8408 18.8446 82.8089 18.8127 82.8089 18.7488C82.8089 18.6849 82.8089 18.653 82.8089 18.5891C82.8089 18.5252 82.777 18.4933 82.745 18.4294L82.6811 18.3336C82.6492 18.3017 82.6173 18.2697 82.5534 18.2378C82.5534 18.2378 82.4895 18.2378 82.4576 18.2378C82.3937 18.2378 82.3618 18.2378 82.2979 18.2378C82.2021 18.2378 82.1382 18.3017 82.0743 18.3336C82.0105 18.3655 81.9466 18.4294 81.8827 18.4614C81.8188 18.4933 81.8188 18.5252 81.7869 18.5572C81.723 18.621 81.6911 18.6849 81.6591 18.7488C81.6591 18.7808 81.6272 18.8446 81.6272 18.9085C81.6272 18.9724 81.6272 19.0043 81.6272 19.0682C81.6272 19.164 81.723 19.2598 81.8188 19.2918C81.9146 19.3237 82.0105 19.3556 82.1382 19.3237C82.266 19.2918 82.3298 19.2279 82.3618 19.1321C82.3937 19.0362 82.3937 19.0682 82.4257 19.0043L82.3618 19.1001C82.3937 19.0682 82.4256 19.0043 82.4895 18.9724L82.3937 19.0362C82.4257 19.0362 82.4895 18.9724 82.5215 18.9724H82.4257C82.4576 18.9724 82.4895 18.9724 82.5534 18.9724L82.1063 18.7807C82.1063 18.7807 82.1063 18.7169 82.0743 18.6849C82.0743 18.6849 82.0743 18.7488 82.0743 18.7807V18.6849C82.0743 18.7169 82.0743 18.7488 82.0743 18.7807V18.6849C82.0743 18.7169 82.0743 18.7488 82.0743 18.8127V18.7169C82.0743 18.7488 82.0743 18.7807 82.0743 18.8446L82.1382 18.7488C82.1382 18.7808 82.0743 18.8127 82.0424 18.8446L82.1382 18.7807C82.1382 18.7807 82.0743 18.8127 82.0424 18.8446H82.1382C82.1063 18.8446 82.0743 18.8446 82.0424 18.8446H82.1382C82.1382 18.8446 82.0743 18.8446 82.0424 18.8446H82.1382L82.3618 19.4195C82.4895 19.1959 82.6173 19.0043 82.745 18.7807C82.8728 18.5572 82.8089 18.5572 82.777 18.4614C82.745 18.3655 82.6812 18.2697 82.5854 18.2378C82.4895 18.2059 82.3937 18.1739 82.266 18.2059C82.1382 18.2378 82.0743 18.3017 82.0424 18.3975L81.9785 18.4294Z" fill="#161616"/>
<path d="M87.7916 16.3537C87.8874 16.3537 88.0151 16.3537 88.111 16.3537C86.035 16.5134 86.5141 19.6753 88.622 19.6753C87.8555 20.3141 87.2167 21.0806 86.8015 21.9749C87.3764 21.6555 88.1429 21.6874 88.7178 22.0068C88.8775 22.1026 89.0372 22.2304 89.1011 22.3901C89.1969 22.6456 89.1011 22.965 88.9414 23.2205C88.3026 24.3064 87.1209 25.041 85.8433 25.1687C85.6836 25.1687 85.492 25.1687 85.3323 25.2645C85.1726 25.3603 85.0768 25.52 84.981 25.6797C84.6936 26.1269 84.4381 26.606 84.1506 27.0531C85.2365 27.1808 86.546 26.9253 87.4722 26.3504C87.7916 26.1588 89.644 23.6357 89.3885 23.6357C90.5383 23.6357 91.6561 23.0288 92.3268 22.0707C92.9975 21.1125 93.0614 19.9308 92.774 18.813C94.0515 18.6213 95.0096 16.6092 94.6583 15.4275C94.3709 14.4374 93.1891 13.7667 92.2629 14.1819C92.4546 11.9462 90.0273 9.87024 87.8555 10.4132C87.4403 9.29535 86.9612 8.11364 86.003 7.411C85.0449 6.70836 83.3841 6.83609 82.937 7.95394C82.0107 7.05966 80.829 6.4209 79.5515 6.1654C78.9447 6.03764 78.274 6.03764 77.8268 6.4209C77.3797 6.80416 77.3797 7.73038 77.9865 7.89008C77.0603 7.76232 75.9744 7.41099 75.0482 7.53874C74.4094 7.60262 73.8026 8.14558 73.8665 8.78435C73.9303 9.42311 74.5691 9.77442 75.144 10.0299C76.6131 10.6048 78.2101 10.8284 79.807 10.7006C79.1043 11.4033 79.7112 12.7447 80.6374 13.096C81.5636 13.4473 82.6176 13.1599 83.6076 12.8405C83.4799 13.8306 84.1506 14.8207 85.0129 15.3636C85.8433 15.8747 86.8654 16.2899 87.8874 16.3218L87.7916 16.3537Z" fill="#161616"/>
<path d="M87.7917 16.769C87.8875 16.769 88.0153 16.769 88.1111 16.769V15.9705C86.9932 16.0663 86.2587 16.9606 86.4184 18.0784C86.578 19.1963 87.4723 20.0586 88.6221 20.0905L88.3347 19.4198C87.5362 20.0905 86.8974 20.889 86.4503 21.8152C86.0031 22.7414 86.6419 22.5498 86.9932 22.3582C87.3445 22.1665 89.0692 22.1026 88.5901 23.0289C88.1111 23.9551 87.6959 24.1467 87.0891 24.4661C86.4822 24.7855 86.4503 24.7216 86.1309 24.7855C85.8115 24.8493 85.4283 24.8174 85.1089 24.9771C84.7895 25.1368 84.6298 25.4881 84.4382 25.7756C84.2465 26.063 83.991 26.5421 83.7675 26.8934C83.5439 27.2447 83.8313 27.4683 84.1188 27.5002C85.1089 27.596 86.1309 27.4364 87.0571 27.0531C87.9833 26.6698 87.9514 26.4782 88.3347 25.9991C88.7179 25.5201 90.4426 23.5079 89.4525 23.3163L89.3567 24.0828C90.6023 24.0828 91.7521 23.476 92.5186 22.4859C93.2851 21.4958 93.4448 20.0586 93.1254 18.7811L92.838 19.2601C94.2113 19.0046 95.0736 17.3758 95.1056 16.0982C95.1375 14.8207 93.6045 13.2557 92.1353 13.8625L92.6463 14.2458C92.838 11.6907 90.1871 9.51893 87.7278 10.0938L88.2069 10.3813C87.6959 9.03987 87.0891 7.44295 85.6518 6.86806C84.2146 6.29317 83.0648 6.67643 82.5538 7.82621L83.1926 7.7304C82.0428 6.64449 80.3181 5.65439 78.6573 5.78214C76.9965 5.9099 77.284 6.16541 77.1243 6.86806C76.9646 7.5707 77.2201 8.1456 77.8269 8.36916L78.0505 7.60264C76.9965 7.44294 75.8787 7.02775 74.7928 7.25132C73.7069 7.47489 73.132 8.4011 73.5472 9.32732C73.9624 10.2535 75.176 10.5729 76.0703 10.8284C76.9646 11.0839 78.5296 11.2436 79.7752 11.1478L79.4877 10.4771C78.7531 11.2755 79.0725 12.4573 79.8071 13.128C80.5417 13.7987 82.426 13.6709 83.6397 13.2877L83.1287 12.9044C82.8732 15.2998 85.7796 16.7051 87.7917 16.769C89.8038 16.8328 88.3027 16.0024 87.7917 15.9705C86.1948 15.9066 83.7355 14.8526 83.9271 12.9044C84.1188 10.9562 83.6397 12.4573 83.4161 12.5212C82.5538 12.8086 81.3721 13.2238 80.5098 12.6808C79.6474 12.1379 79.5516 11.563 80.0307 11.02C80.5098 10.4771 80.1265 10.3174 79.7432 10.3493C78.817 10.4132 77.8908 10.3813 76.9646 10.2216C76.0384 10.0619 75.176 9.87026 74.5373 9.35925C73.8985 8.84823 74.5373 8.04977 75.2399 8.01783C75.9426 7.98589 76.9646 8.27334 77.795 8.40109C78.6254 8.52885 78.4976 7.8262 78.0186 7.63457C77.5395 7.44294 77.8589 6.96387 78.0505 6.80418C78.4657 6.45285 79.1683 6.58061 79.6474 6.70837C80.7652 6.96387 81.7873 7.53876 82.6177 8.33721C83.4481 9.13567 83.1287 8.49691 83.2565 8.2414C83.6397 7.37907 84.7895 7.28325 85.5241 7.69845C86.2586 8.11365 87.0571 9.55088 87.4404 10.6048C87.8236 11.6588 87.6959 10.9242 87.9194 10.8923C89.8996 10.4132 91.9756 12.2656 91.8159 14.2778C91.6563 16.2899 92.1034 14.7568 92.327 14.661C93.4129 14.2139 94.371 15.2359 94.2752 16.2899C94.1794 17.3438 93.5726 18.3339 92.6144 18.5256C91.6563 18.7172 92.295 18.813 92.327 19.0046C92.5825 20.0267 92.5186 21.1126 91.8798 22.0068C91.241 22.9011 90.3148 23.2844 89.3247 23.3163C88.3347 23.3483 88.7498 24.0189 89.2289 24.0828C89.708 24.1467 88.8776 23.7315 88.9734 23.6676C88.9415 23.6996 88.9095 23.8273 88.8457 23.8912C88.7498 24.0828 88.6221 24.2425 88.4944 24.4342C88.2069 24.8494 87.9194 25.2646 87.6001 25.6478C87.2807 26.0311 87.3765 25.9033 87.2487 26.0311C87.121 26.1588 87.2168 26.063 87.1849 26.095C87.2807 25.9991 87.121 26.1269 87.0891 26.1588C86.9294 26.2546 86.7697 26.3185 86.578 26.4143C85.8115 26.7018 84.9492 26.8295 84.1188 26.7337L84.4701 27.3405C84.7576 26.8615 85.045 26.3824 85.3324 25.9033C85.6199 25.4242 86.1629 25.6159 86.578 25.4881C87.4084 25.2646 88.2069 24.7855 88.7818 24.1148C89.3567 23.4441 89.8996 22.5498 89.165 21.911C88.4305 21.2723 87.4084 21.2722 86.578 21.6874L87.121 22.2304C87.5681 21.3681 88.143 20.6335 88.8776 19.9947C89.6122 19.356 88.9095 19.324 88.5901 19.324C87.8556 19.324 87.2807 18.813 87.1849 18.0784C87.0891 17.3438 87.4084 16.8648 88.1111 16.8009C88.8137 16.737 88.6221 15.9705 88.1111 16.0024C87.6001 16.0344 87.8875 16.0024 87.7917 16.0024C87.2807 16.0024 87.2807 16.8009 87.7917 16.8009V16.769Z" fill="#161616"/>
<path d="M76.7406 22.1663C77.0599 22.837 77.8584 23.1564 78.5611 23.0606C79.2637 22.9648 80.0621 22.358 80.6051 21.7192C81.148 21.0804 80.7648 21.304 80.6051 21.1443C80.4454 20.9846 80.1899 20.9846 80.0302 21.1443C79.647 21.6234 79.1679 22.1344 78.5291 22.2621C77.8903 22.3899 78.082 22.2621 77.8584 22.1983C77.6348 22.1344 77.7945 22.1983 77.7306 22.1344C77.6668 22.0705 77.6668 22.1024 77.6349 22.0705C77.571 22.0386 77.6987 22.1344 77.6349 22.0705C77.571 22.0066 77.5071 21.9428 77.4432 21.7831C77.3794 21.6234 77.0599 21.5276 76.9003 21.6553C76.7406 21.7831 76.6767 22.0066 76.7725 22.1983L76.7406 22.1663Z" fill="#161616"/>
<path d="M80.254 52.2843C80.5415 56.8515 78.5932 61.259 76.4214 65.2832C74.2177 69.3074 71.6946 73.2359 70.6087 77.6753C71.471 77.0365 72.1736 76.1423 72.5569 75.1202C71.982 76.0784 71.982 77.324 72.5569 78.2821C73.3873 77.6114 74.058 76.7171 74.4413 75.727C74.569 76.3658 74.0899 76.9088 73.8344 77.5156C73.5789 78.1224 73.8344 79.0486 74.4732 78.9848C74.6968 78.9848 74.8884 78.8251 75.0481 78.6654C75.6549 78.0905 76.1979 77.4517 76.6131 76.7171C76.0062 77.9308 76.2298 79.4958 77.1241 80.4859C77.9864 80.2304 78.4974 79.368 78.9126 78.5696C82.4897 71.5751 85.6516 64.357 88.3983 57.0112C89.1648 54.9352 89.8994 52.6675 89.1329 50.5916" fill="white"/>
<path d="M79.8707 52.2842C80.2859 59.662 75.3354 65.7622 72.3012 72.054C69.2671 78.3459 70.7043 75.6631 70.2253 77.5474C69.7462 79.4318 70.5127 78.2181 70.8002 77.9946C71.7583 77.26 72.4929 76.3338 72.9081 75.184C73.3233 74.0342 72.3971 74.4813 72.1735 74.8646C71.5348 75.9824 71.5348 77.3239 72.1735 78.4417C72.8123 79.5595 72.6207 78.6653 72.8123 78.5375C73.7066 77.8029 74.3773 76.8767 74.7925 75.7908L74.0259 75.695C74.1217 76.4296 73.483 76.9725 73.3552 77.6752C73.2275 78.3778 73.3552 78.825 73.8343 79.1443C74.3134 79.4637 74.9841 79.1763 75.3993 78.793C75.8145 78.4098 76.5171 77.5794 76.9323 76.8767L76.2616 76.4615C75.5909 77.8668 75.8145 79.5276 76.8365 80.7093C77.8585 81.891 77.092 80.8371 77.2198 80.8051C78.0821 80.5496 78.6251 79.847 79.0403 79.1124C79.4555 78.3778 80.0304 77.228 80.4775 76.2699C81.4995 74.2258 82.4577 72.1498 83.4158 70.0738C85.3002 65.9219 87.0249 61.7379 88.6218 57.4582C89.4522 55.2225 90.3464 52.7633 89.516 50.3998C88.6856 48.0364 88.5898 50.1124 88.7495 50.6234C89.4521 52.6355 88.7495 54.7754 88.0788 56.6917C87.4081 58.608 86.5458 60.7159 85.7473 62.6961C84.1185 66.7203 82.3299 70.7126 80.4455 74.6091C79.9026 75.695 79.3596 76.7809 78.8167 77.8668C78.2737 78.9527 77.9863 79.7192 77.0601 80.0067L77.4434 80.1025C76.6449 79.2082 76.4533 77.8987 76.9962 76.8128C77.5392 75.7269 76.581 75.9825 76.3255 76.3976C76.07 76.8128 75.6548 77.4197 75.2077 77.8668C74.7605 78.3139 74.505 78.7611 74.2814 78.314C74.0579 77.8668 74.2814 77.4836 74.4731 77.1322C74.6647 76.7809 74.9841 76.1741 74.8883 75.5992C74.7925 75.0243 74.2814 75.0562 74.1218 75.5034C73.7385 76.4296 73.0997 77.26 72.3332 77.8987L72.972 77.9946C72.4929 77.1322 72.4929 76.0783 72.972 75.2159L72.2374 74.8965C71.8861 75.8228 71.2792 76.6212 70.4808 77.228L71.0557 77.6752C72.8123 70.6487 77.9544 65.0915 79.9984 58.1608C80.5733 56.2126 80.8607 54.2005 80.733 52.1564C80.6052 50.1124 79.9026 51.6454 79.9345 52.1564L79.8707 52.2842Z" fill="#161616"/>
<path d="M85.779 56.117H85.6832C85.8429 56.117 86.0025 56.1809 86.1622 56.2448H86.0664C86.2261 56.2448 86.3539 56.3406 86.4816 56.4364L86.3858 56.3725C86.4816 56.4364 86.5455 56.5003 86.6732 56.5003C86.801 56.5003 86.8968 56.4683 86.9607 56.3725C87.0246 56.2767 87.0885 56.2128 87.0885 56.0851C87.0885 55.9573 87.0565 55.8615 86.9607 55.7976C86.8649 55.7338 86.7691 55.6379 86.6732 55.606C86.5774 55.5741 86.4497 55.5102 86.3539 55.4463C86.1622 55.3505 85.9387 55.3186 85.7471 55.2866C85.5554 55.2547 85.5235 55.3505 85.4596 55.4144C85.3957 55.4783 85.3318 55.606 85.3318 55.7018C85.3318 55.7976 85.3638 55.9254 85.4596 55.9893L85.5554 56.0531C85.6193 56.0851 85.6832 56.117 85.7471 56.117H85.779Z" fill="#161616"/>
<path d="M85.8432 54.3286C86.3542 54.4564 86.8652 54.5841 87.3762 54.7438C87.8873 54.9035 87.8234 54.68 87.8553 54.4564C87.8873 54.2328 87.7914 54.0093 87.5679 53.9773C87.0569 53.8496 86.5458 53.7218 86.0348 53.5621C85.5238 53.4024 85.5877 53.626 85.5557 53.8496C85.5238 54.0731 85.6196 54.2967 85.8432 54.3286Z" fill="#161616"/>
<path d="M54.6709 10.7328C54.607 10.3176 54.5112 9.90237 54.3196 9.48717C54.128 9.07198 53.9363 8.65678 53.5531 8.36933C53.1698 8.08189 52.6269 8.17769 52.3714 8.59288C52.1159 9.00808 52.1797 9.4233 52.1797 9.80656C52.1797 10.1898 52.1797 10.8605 52.2436 11.4035C52.3075 11.9464 52.4033 11.7867 52.6268 11.7867C52.8504 11.7867 53.0421 11.5951 53.0101 11.4035C52.9782 10.8925 52.9462 10.4134 52.9462 9.90237C52.9462 9.39136 52.9462 9.45522 52.9462 9.23165C52.9462 9.16778 52.9462 9.19971 52.9462 9.23165C52.9462 9.23165 52.9462 9.19973 52.9462 9.16779C52.9462 9.13585 52.9462 9.07197 52.9782 9.04003C52.9462 9.13584 52.9782 8.97615 52.9782 9.04003C53.074 9.07197 53.074 9.10391 53.1698 9.16779C53.2656 9.23167 53.1698 9.16778 53.2017 9.23165C53.2337 9.29553 53.2656 9.32747 53.2975 9.39134C53.3614 9.48716 53.3934 9.58297 53.4572 9.71073C53.6489 10.094 53.7447 10.5411 53.8086 10.9883C53.8725 11.4354 54.096 11.3077 54.2877 11.2757C54.4793 11.2438 54.607 10.9883 54.5751 10.7966L54.6709 10.7328Z" fill="#161616"/>
<path d="M61.7935 63.9419C62.4323 63.5586 63.0391 63.1754 63.6778 62.7921C64.3166 62.4088 63.9333 62.4408 63.8056 62.2491C63.6778 62.0575 63.4543 61.9936 63.2627 62.1214C62.6239 62.5047 62.0171 62.8879 61.3783 63.2712C60.7395 63.6544 61.1228 63.6225 61.2505 63.8141C61.3783 64.0058 61.6019 64.0696 61.7935 63.9419Z" fill="white"/>
<path d="M66.7757 62.792C67.5742 63.2711 68.4365 63.6224 69.3308 63.814C70.2251 64.0056 69.7779 63.7501 69.8099 63.5266C69.8418 63.303 69.746 63.0794 69.5224 63.0475C68.6601 62.8558 67.8936 62.5684 67.159 62.0893C66.4244 61.6103 66.7119 62.0574 66.616 62.2171C66.5202 62.3768 66.5522 62.6323 66.7438 62.76L66.7757 62.792Z" fill="white"/>
<path d="M47.7723 4.12126C48.6027 3.25893 49.7524 2.81181 50.9022 2.46048C52.3714 1.98141 53.8725 1.59814 55.4055 1.31069C53.7128 0.544172 50.5189 0.512229 48.1555 1.88558C46.878 2.62016 45.6005 3.76994 45.5046 5.23911C45.3769 6.74021 46.6225 8.17745 47.7723 9.16754C47.4209 8.81622 47.1335 8.36908 46.9738 7.89001C46.5267 6.61247 46.878 5.07942 47.8042 4.08933L47.7723 4.12126Z" fill="#FF4647"/>
<path d="M48.0598 4.40883C49.9442 2.68416 53.0422 2.20509 55.5014 1.69407C55.9486 1.59826 55.8527 1.02337 55.5014 0.895614C52.7228 -0.19029 49.2415 0.352654 46.91 2.20508C44.0675 4.50464 45.0895 7.28328 47.453 9.45509C47.8362 9.83835 48.3792 9.26347 48.0278 8.88021C46.8461 7.50686 46.9419 5.81412 48.0278 4.40883C48.3472 3.99364 47.7724 3.38681 47.453 3.83395C46.0477 5.59056 45.9199 7.73043 47.453 9.48704L48.0278 8.91214C46.91 7.89011 45.5686 6.51677 45.9838 4.85598C46.3032 3.54651 47.7085 2.55641 48.8583 2.01346C50.8065 1.08724 53.2338 0.959495 55.2459 1.75795V0.959495C52.627 1.47051 49.497 2.01345 47.453 3.86588C47.0697 4.2172 47.6446 4.82403 48.0278 4.44076L48.0598 4.40883Z" fill="#161616"/>
<path d="M52.8825 4.85566C53.649 4.2169 56.5234 1.91732 56.2999 1.72569L55.3737 1.27856C53.8406 1.56601 52.3395 1.94926 50.8704 2.42834C49.7206 2.77966 48.5708 3.2268 47.7404 4.08914C46.8142 5.07923 46.4629 6.61227 46.91 7.88981C47.0697 8.36888 47.3571 8.81602 47.7085 9.16734C48.3153 9.77417 49.1138 10.1574 49.9761 10.1894C51.3495 10.2213 52.6908 9.32702 53.106 8.01755C53.2338 7.66623 53.2657 7.25104 53.106 6.93166C52.8825 6.42064 52.3076 6.03738 52.4034 5.49443C52.4673 5.23893 52.6589 5.0473 52.8825 4.85566Z" fill="#FF4647"/>
<path d="M53.17 5.17497C53.9365 4.5362 57.4817 2.46021 56.3958 1.34236C55.4057 0.320336 53.3616 1.27847 52.3396 1.56592C50.5191 2.07693 48.3154 2.58796 47.1336 4.21682C45.4409 6.48444 46.5268 9.96572 49.3693 10.5406C50.6788 10.8281 52.116 10.2532 52.9145 9.23112C53.2977 8.75205 53.6171 8.11328 53.6171 7.47451C53.6171 6.80381 52.5951 5.71792 53.17 5.17497C53.5533 4.79171 52.9784 4.2168 52.5951 4.60006C51.094 6.06923 53.649 7.44258 52.0202 9.0395C50.6468 10.349 48.3473 9.80602 47.485 8.17716C46.3671 6.00535 47.996 4.05712 49.9123 3.25867C51.1579 2.71571 52.5312 2.36439 53.8726 2.07694C54.3517 1.94919 54.9266 1.78949 55.3737 1.78949C55.757 1.78949 55.8209 2.23663 55.9167 1.94918C55.9806 1.6298 55.3418 2.30051 55.2779 2.33245C54.9905 2.61989 54.6711 2.8754 54.3836 3.1309C53.8087 3.60998 53.2019 4.08905 52.627 4.60006C52.2118 4.95138 52.8187 5.52629 53.2019 5.17497H53.17Z" fill="#161616"/>
<path d="M49.2407 5.62241C49.9114 5.23915 50.8376 5.46272 51.2528 6.10148C51.668 6.74025 51.4444 7.6984 50.8057 8.1136C50.1669 8.52879 49.2087 8.30524 48.7935 7.66647C48.3783 7.0277 48.57 6.06954 49.2087 5.62241" fill="white"/>
<path d="M49.4327 6.00561C49.9117 5.7501 50.5824 5.87786 50.8699 6.32499C51.1573 6.77213 50.9976 7.47477 50.5505 7.76222C49.4327 8.4968 48.2829 6.80407 49.3688 6.00561C49.784 5.68623 49.3688 4.95165 48.9536 5.27103C48.1551 5.84592 47.8358 6.9957 48.3787 7.85803C48.9217 8.68843 50.1353 8.97588 50.9657 8.46487C51.7961 7.95385 52.0836 6.70825 51.5725 5.87785C51.0296 5.01551 49.8478 4.76001 48.9855 5.23908C48.5064 5.49459 48.9216 6.22919 49.4007 5.97368L49.4327 6.00561Z" fill="#161616"/>
</svg>
