<svg width="120" height="93" viewBox="0 0 120 93" fill="none" xmlns="http://www.w3.org/2000/svg">
<path d="M34.533 21.7631C33.0519 22.0099 30.5423 21.4751 29.4314 22.7916C29.02 23.2853 28.8966 23.9847 28.8143 24.643C27.8269 30.9788 26.8395 37.2734 25.8521 43.6092C25.7287 44.3909 25.1116 45.4195 24.4533 45.0081C24.4533 43.6092 24.4122 42.2104 24.371 40.7705C24.6179 42.0459 24.083 43.4447 23.0545 44.2264C22.6842 43.239 22.5608 42.1281 22.6431 41.0996C22.7665 42.1281 22.2728 43.1978 21.45 43.8149C21.3677 42.7453 21.2854 41.6756 21.2031 40.6059C21.1209 41.7167 20.5037 42.8276 19.5986 43.4447C18.9815 41.1408 19.2695 38.7134 19.5986 36.3272C20.3392 30.7731 21.0797 25.219 21.8203 19.6237C22.1905 16.9907 22.7665 13.9873 25.0293 12.6708C26.2224 11.9714 27.6624 11.848 29.02 11.848C31.2005 11.8068 33.3399 11.848 35.5204 12.0537" fill="white"/>
<path d="M34.4093 21.3518C33.0516 21.5575 31.6117 21.2283 30.2951 21.722C28.9786 22.2157 28.4438 24.1494 28.1969 25.7128C27.5387 30.0326 26.8393 34.3114 26.181 38.6312C25.5227 42.9511 25.8107 40.9763 25.6461 42.1694C25.4816 43.3625 25.3581 45.0082 24.6176 44.6379L24.8233 44.967L24.741 40.7294L23.9593 40.8529C24.1651 42.0048 23.6713 43.1568 22.7662 43.9385L23.4245 44.103C23.0954 43.1156 22.9308 42.1282 23.0131 41.0586H22.2314C22.3137 41.9637 21.9845 42.8688 21.244 43.4448L21.8611 43.7739C21.7788 42.7042 21.6966 41.6346 21.6143 40.5649C21.532 39.4952 20.8737 40.0712 20.8326 40.5649C20.7503 41.5523 20.2155 42.4985 19.4338 43.0745L20.0098 43.3213C19.2692 40.4826 19.8863 37.5204 20.2566 34.6816C20.6269 31.8429 21.0383 28.8395 21.4086 25.9185C21.7788 22.9974 22.0257 20.4467 22.5605 17.7313C23.0954 15.016 23.8771 13.3292 26.0987 12.5886C28.3203 11.8481 29.0197 12.1772 30.4597 12.1772C31.8997 12.1772 33.8333 12.2595 35.5201 12.424C37.2069 12.5886 36.0138 11.6835 35.5201 11.6423C33.9156 11.4778 32.3522 11.3955 30.7477 11.3955C29.1432 11.3955 27.9501 11.3955 26.5924 11.6423C24.2062 12.136 22.8074 13.9463 22.108 16.1679C21.4086 18.3896 21.5731 18.3896 21.4497 19.5004C21.3263 20.6112 21.0383 22.5449 20.8326 24.0671C20.4212 27.1939 20.0098 30.3206 19.5983 33.4062C19.1869 36.4919 18.3641 40.1946 19.2281 43.4859C20.092 46.7772 19.5983 43.8973 19.804 43.7328C20.8326 42.9511 21.4908 41.8403 21.6143 40.5237H20.8326C20.9149 41.5934 20.9972 42.6631 21.0794 43.7328C21.1617 44.8024 21.4086 44.2676 21.6966 44.0619C22.6428 43.3625 23.2188 42.2105 23.0954 41.0174C22.9719 39.8243 22.3548 40.4826 22.3137 41.0174C22.2314 42.1283 22.396 43.2391 22.7251 44.2676C23.0542 45.2962 23.1365 44.6379 23.3834 44.4322C24.5353 43.4859 25.029 42.046 24.7822 40.606C24.5353 39.1661 24.0005 40.2769 24.0005 40.7294L24.0828 44.967C24.0828 45.0904 24.165 45.255 24.2885 45.2962C26.0164 46.1601 26.3455 43.2391 26.5101 42.2517C26.8392 40.03 27.2095 37.8084 27.5387 35.5867C27.8678 33.3651 28.2381 31.0612 28.6083 28.8395C28.9786 26.6179 28.9375 26.6179 29.1432 25.5071C29.3489 24.3962 29.3077 23.45 30.0071 22.7917C30.7066 22.1335 31.5294 22.2157 32.3111 22.1746C33.0928 22.1335 33.9156 22.1746 34.6973 22.0512C35.479 21.9278 34.9853 21.2283 34.4916 21.2695L34.4093 21.3518Z" fill="#161616"/>
<path d="M54.897 66.0319C53.5394 67.8421 52.1406 69.5701 50.7006 71.298C49.7955 72.3265 48.8492 73.3962 47.5327 73.8488C46.0516 74.3425 44.4471 73.8899 42.966 73.3962C40.4975 72.5734 38.029 71.6683 35.6428 70.6398C33.668 69.7758 27.8259 67.4307 25.6866 67.0604C24.5757 68.665 23.3003 70.1049 21.8604 71.4215C21.6958 71.5449 21.5313 71.6683 21.3255 71.586C21.2021 71.5037 21.161 71.298 21.161 71.1335C21.2021 69.9404 21.8604 68.8295 22.4364 67.7598C23.3826 66.1553 24.2877 64.5097 25.234 62.9051C25.3574 62.6994 25.4808 62.4937 25.6866 62.4114C25.9334 62.288 26.2214 62.3292 26.4682 62.4114C28.9367 62.9051 31.4464 63.1931 33.956 63.3577C36.0131 63.5223 38.029 64.016 40.0449 64.0571C40.4975 64.0571 40.9501 64.0571 41.3203 63.8103C42.7192 63.0286 42.8014 59.2847 43.0894 57.927" fill="white"/>
<path d="M54.5679 65.8256C53.0045 67.9238 51.4 70.1044 49.5486 71.9969C47.6973 73.8894 47.615 73.6014 46.2985 73.6425C44.9819 73.6837 43.6654 73.19 42.4312 72.7786C38.5227 71.462 34.7788 69.7752 30.9115 68.2941C29.2659 67.677 27.5379 66.9776 25.81 66.6896C24.082 66.4016 25.4808 66.6896 25.3574 66.8542C24.5757 67.965 23.7117 69.0347 22.7655 69.9809C21.8192 70.9272 22.3129 70.4335 22.0661 70.6803C21.8192 70.9272 21.8604 70.9272 21.737 70.9683C21.5312 71.0917 21.6135 71.2152 21.6135 70.9272C21.6135 70.2278 21.9838 69.4872 22.3129 68.9112C22.9712 67.6359 23.7529 66.4016 24.4523 65.1674C25.1517 63.9331 25.1517 63.9331 25.522 63.3571C25.8923 62.7812 25.81 62.6989 26.2214 62.6989C26.6328 62.6989 27.0031 62.8634 27.4145 62.9046C28.8133 63.1514 30.2533 63.3571 31.6521 63.4806C33.0509 63.604 34.6143 63.7274 36.0954 63.9331C37.5765 64.1388 38.893 64.3857 40.2918 64.3857C41.6906 64.3857 41.8963 64.0565 42.39 63.2748C43.3363 61.7115 43.2128 59.6955 43.5831 57.9676C43.9534 56.2397 42.9249 57.2682 42.8014 57.7619C42.6369 58.5847 42.5546 59.4487 42.4312 60.2715C42.3077 61.0943 42.1432 62.164 41.6495 62.9457C41.1558 63.7274 40.9912 63.5629 40.4152 63.604C39.8392 63.6451 38.893 63.5628 38.1113 63.4806C36.5479 63.2748 34.9845 63.028 33.38 62.9046C31.7755 62.7812 30.1298 62.6166 28.5253 62.3286C26.9208 62.0406 27.1265 62.0818 26.4271 61.9583C25.7277 61.8349 25.3986 61.9583 25.0694 62.452C24.7403 62.9457 24.2877 63.7686 23.9175 64.4268C23.5472 65.0851 23.1358 65.8256 22.7244 66.525C22.025 67.7593 21.1198 69.0347 20.873 70.4746C20.6261 71.9146 20.6673 71.7089 21.2433 71.9557C21.8192 72.2026 22.5598 71.3386 22.9301 70.9272C24.082 69.8164 25.1106 68.5821 26.0157 67.2656L25.5631 67.4302C27.1676 67.7182 28.6899 68.3353 30.2121 68.8701C31.7344 69.405 33.4623 70.1044 35.0668 70.8038C37.453 71.7912 39.8392 72.7374 42.2666 73.5602C44.6939 74.3831 44.8585 74.4242 46.2573 74.4242C47.6561 74.4242 48.4378 73.9717 49.3429 73.2311C50.2481 72.4906 51.3177 71.1329 52.2228 70.0632C53.128 68.9935 54.2388 67.5536 55.2262 66.237C56.2136 64.9205 54.8559 65.4142 54.5268 65.8256H54.5679Z" fill="#161616"/>
<path d="M25.3166 62.9465C25.44 62.7408 25.5634 62.5351 25.7691 62.4528C26.016 62.3294 26.304 62.3705 26.5508 62.4528C29.0193 62.9465 31.529 63.2345 34.0386 63.3991C35.7665 63.5225 37.4533 63.8927 39.1401 64.0573C38.6053 64.9213 38.4407 66.1555 38.3996 67.2252C38.3584 68.7474 38.2762 70.2285 38.235 71.7508C37.371 71.4216 36.5071 71.0925 35.6843 70.7222C33.7095 69.8583 27.8674 67.5132 25.728 67.1429C24.6172 68.7474 23.3418 70.1874 21.9018 71.5039C21.7373 71.6273 21.5727 71.7508 21.367 71.6685C21.2436 71.5862 21.2024 71.3805 21.2024 71.2159C21.2436 70.0228 21.9018 68.912 22.4778 67.8423C23.4241 66.2378 24.3292 64.5922 25.2754 62.9876L25.3166 62.9465Z" fill="#009245"/>
<path d="M25.6457 63.1519C25.8102 62.8639 25.9748 62.7405 26.304 62.7816C26.6331 62.8228 26.8388 62.8639 27.0856 62.9462C27.6616 63.0696 28.2787 63.1519 28.8547 63.2342C29.9656 63.3987 31.0764 63.5222 32.2283 63.6456C33.3803 63.769 34.5323 63.8101 35.6842 63.9747C36.8362 64.1393 37.947 64.345 39.099 64.4273L38.7698 63.8102C38.1527 64.8387 38.0293 66.0318 37.9881 67.1837C37.947 68.3357 37.8647 70.1871 37.8236 71.7093L38.3173 71.3391C36.0956 70.4751 33.9563 69.5288 31.7346 68.6649C29.513 67.8009 27.8262 67.0603 25.8103 66.7312C23.7943 66.4021 25.4811 66.7312 25.3577 66.8958C24.6583 67.8832 23.9177 68.8294 23.0949 69.6934C22.2721 70.5574 22.3132 70.5162 21.8607 70.8865C21.8607 70.8865 21.5727 71.1334 21.6138 71.1334C21.6138 71.1334 21.6138 70.7631 21.655 70.7219C21.6961 70.4339 21.7784 70.1459 21.9018 69.8579C22.3132 68.706 23.0538 67.6775 23.6297 66.6078C24.2057 65.5381 24.9463 64.3038 25.6457 63.1519C26.3451 61.9999 25.2343 62.329 24.9463 62.7405C24.1235 64.1804 23.2595 65.6204 22.4366 67.0603C21.6138 68.5003 20.791 69.6523 20.791 71.1334C20.791 72.6144 21.0378 72.0796 21.5727 71.9973C22.1075 71.915 22.1075 71.7093 22.3544 71.5036C22.6012 71.2979 22.9303 70.9688 23.2183 70.6808C24.2469 69.6111 25.1931 68.4591 26.0571 67.266L25.6046 67.4306C27.6205 67.7597 29.6364 68.6237 31.5289 69.3643C33.4214 70.1048 35.8899 71.1745 38.1116 72.0385C40.3332 72.9024 38.6053 71.8739 38.6053 71.6682C38.6464 70.3105 38.7287 68.9528 38.7698 67.554C38.811 66.1552 38.8521 65.209 39.4692 64.1804C40.0864 63.1519 39.4281 63.6044 39.1401 63.5633C37.8647 63.4399 36.5893 63.2342 35.3139 63.0696C34.0386 62.905 32.722 62.8639 31.4466 62.6993C30.1713 62.5348 28.8959 62.3702 27.6205 62.1645C26.3451 61.9588 26.5097 61.8765 25.9337 61.9176C25.3577 61.9588 25.1931 62.2879 24.9463 62.6582C24.6994 63.0284 25.3577 63.481 25.6457 63.0696V63.1519Z" fill="#009245"/>
<path d="M25.3172 62.9457C25.4407 62.74 25.5641 62.5343 25.7698 62.452C26.0167 62.3286 26.3046 62.3698 26.5515 62.452C26.6749 62.452 26.7983 62.4932 26.9218 62.5343C26.2224 63.892 24.8236 65.4965 25.7698 66.9776C26.0989 67.5125 26.5104 68.0062 26.5926 68.5821C26.5926 68.7467 26.5926 68.9113 26.5104 69.0347C26.3046 69.405 25.7287 69.2815 25.4407 69.0347C25.1527 68.7467 24.9881 68.3353 24.659 68.0473C24.2064 69.4461 22.931 70.5569 21.9025 71.5032C21.7379 71.6266 21.5734 71.75 21.3677 71.6678C21.2442 71.5855 21.2031 71.3798 21.2031 71.2152C21.2442 70.0221 21.9025 68.9113 22.4785 67.8416C23.4247 66.2371 24.3299 64.5914 25.2761 62.9869L25.3172 62.9457Z" fill="#161616"/>
<path d="M25.6461 63.1515C25.7695 62.9047 25.8929 62.7401 26.1809 62.7812C26.4689 62.8224 26.5923 62.8635 26.7569 62.9047L26.51 62.3287C25.8929 63.5629 24.741 64.8383 25.0289 66.3194C25.3169 67.8005 25.7695 67.5948 26.0575 68.2942C26.3455 68.9936 26.2221 68.7468 26.1398 68.8702C26.0575 68.9936 25.7284 68.7879 25.6461 68.7056C25.3581 68.4176 25.1935 68.0474 24.9055 67.7594C24.6175 67.4714 24.3295 67.636 24.2473 67.9239C23.9181 68.9113 23.2187 69.693 22.4782 70.3924C21.7376 71.0918 22.1079 70.7215 21.9433 70.8861C21.7788 71.0507 21.7788 71.0507 21.6965 71.133C21.4496 71.2564 21.6965 71.2564 21.6142 71.133C21.5319 70.9684 21.7376 70.4336 21.7788 70.2279C21.8611 69.9399 21.9433 69.693 22.0668 69.4462C22.5193 68.4176 23.1776 67.4714 23.7124 66.484C24.2473 65.4966 24.9878 64.3035 25.6049 63.1927C26.2221 62.0818 25.1935 62.3698 24.9055 62.7812C24.0827 64.1801 23.2599 65.62 22.4782 67.0188C21.6965 68.4176 20.9971 69.4462 20.7914 70.845C20.5857 72.2438 20.7914 72.0381 21.4085 72.0792C22.0256 72.1204 22.3959 71.5032 22.725 71.1741C23.6713 70.3101 24.5353 69.3639 24.9467 68.1296L24.2884 68.2942C24.8644 68.829 25.1935 69.8576 26.1809 69.6107C27.1683 69.3639 26.9215 68.3353 26.5923 67.6771C26.2632 67.0188 26.0163 66.8954 25.8518 66.484C25.6872 66.0726 25.7284 65.62 25.8518 65.2086C26.1398 64.3035 26.7158 63.5218 27.1683 62.699C27.6209 61.8761 27.1683 62.1641 26.9215 62.123C26.5512 62.0407 26.1398 61.9173 25.7284 61.9995C25.3169 62.0818 25.0701 62.411 24.8644 62.7401C24.6587 63.0692 25.2758 63.5629 25.5638 63.1515H25.6461Z" fill="#161616"/>
<path d="M46.2577 71.8737C46.2577 71.8737 46.2577 71.9149 46.2165 71.956C46.2165 71.956 46.2165 71.956 46.2165 71.9972C46.2165 71.9972 46.1342 72.0383 46.0931 72.0794C46.0931 72.0794 46.0931 72.0794 46.052 72.0794C46.052 72.0794 46.0108 72.0794 45.9697 72.0794C45.9285 72.0794 45.9285 72.0794 45.8874 72.1206C45.8874 72.1206 45.8874 72.1206 45.8463 72.1206H45.8874C45.8463 72.1206 45.764 72.1206 45.7228 72.1206C45.6817 72.1206 45.6405 72.1206 45.6405 72.1206C45.6817 72.1206 45.7228 72.1206 45.6405 72.1206C45.5994 72.1206 45.5171 72.1206 45.476 72.1206C45.3937 72.1206 45.5583 72.1206 45.476 72.1206C45.3937 72.1206 45.3937 72.1206 45.3937 72.1206C45.3937 72.1206 45.3114 72.1206 45.3526 72.1206C45.3937 72.1206 45.3526 72.1206 45.3114 72.1206C45.3114 72.1206 45.2703 72.1206 45.2291 72.0794C45.188 72.0794 45.1469 71.9972 45.1057 71.956C45.1057 71.956 45.1057 71.9149 45.0646 71.8737C45.0234 71.8326 45.0646 71.8326 45.0234 71.7915C44.9823 71.7503 44.9823 71.7092 45.0234 71.7503C45.0646 71.7915 45.0234 71.7503 45.0234 71.7092C45.0234 71.7092 45.0234 71.668 45.0234 71.6269C45.0234 71.5858 45.0234 71.5035 45.0234 71.5857C45.0234 71.668 45.0234 71.5858 45.0234 71.5446C45.0234 71.4623 45.0234 71.4212 45.0234 71.3389C45.0234 71.1332 44.8177 70.9275 44.612 70.9275C44.4063 70.9275 44.2417 71.0921 44.2006 71.3389C44.1183 72.0383 44.612 72.7377 45.2703 72.9434C45.9285 73.1491 46.7102 72.82 47.0394 72.244C47.3685 71.668 47.0805 71.7914 46.9159 71.7092C46.7514 71.6269 46.4634 71.668 46.3811 71.8326L46.2577 71.8737Z" fill="#161616"/>
<path d="M58.8472 59.0782C62.9202 61.9582 65.5121 67.2243 68.0217 71.4207C70.7371 75.9874 74.9747 83.4752 77.1552 88.3299C78.8831 87.4248 80.7345 86.6842 82.6681 86.2317C83.1618 86.7665 82.5859 87.5893 82.0099 88.083C80.1996 89.6053 78.2249 90.9629 76.1678 92.156C75.7564 92.4029 75.3449 92.6086 74.8924 92.5675C74.3575 92.4852 73.9873 92.0738 73.617 91.6623C70.4902 88.0419 65.8824 81.4592 62.7145 77.8799C59.382 74.0949 55.9261 71.4618 51.8531 68.5819" fill="white"/>
<path d="M58.6416 59.4077C62.4266 62.1231 64.6894 66.4429 66.9933 70.3925C69.2972 74.3421 71.4777 78.0448 73.5759 81.9533C75.6742 85.8617 75.8387 86.2731 76.8673 88.4537C77.8958 90.6342 77.2375 88.7005 77.4021 88.5771C79.1301 87.672 80.9403 86.9726 82.8328 86.4789L82.3802 86.3143C82.8328 86.9314 81.8454 87.6308 81.434 87.9599C80.7757 88.4948 80.1174 88.9885 79.418 89.4822C78.7186 89.9759 78.1426 90.3873 77.4844 90.7987C76.8261 91.2101 76.1679 91.745 75.4273 91.9507C74.6868 92.1564 74.1108 91.4159 73.6994 90.881C73.288 90.3462 73 90.017 72.6297 89.6056C71.8069 88.5771 71.0252 87.5485 70.2023 86.52C66.9522 82.3236 63.8665 77.9214 59.9581 74.301C56.0496 70.6805 54.8154 70.0222 52.1 68.0886C51.6886 67.8006 51.2772 68.4589 51.6886 68.788C54.3217 70.6394 56.9136 72.573 59.2587 74.7535C61.6037 76.934 63.2494 78.8677 65.0185 81.1305C66.7876 83.3932 68.5978 85.7795 70.3669 88.0834C72.136 90.3873 71.9714 90.1405 72.7942 91.1279C73.6171 92.1152 73.5759 92.1152 74.0696 92.4855C74.5633 92.8558 75.345 92.8558 76.0033 92.5678C77.6901 91.745 79.2535 90.593 80.7346 89.4822C82.2157 88.3714 84.0259 87.3428 82.9974 85.944C81.9688 84.5452 82.7505 85.6972 82.5448 85.7795C80.6111 86.2731 78.7186 87.0137 76.9495 87.9188L77.4844 88.0422C75.5919 83.8869 73.3702 79.8962 71.1074 75.9466C70.0378 74.0953 68.9681 72.2439 67.8573 70.3925C66.7464 68.5412 65.5533 66.3195 64.2368 64.3858C62.7969 62.2465 61.11 60.2306 59.0118 58.7083C58.6004 58.4203 58.189 59.0786 58.6004 59.4077H58.6416Z" fill="#161616"/>
<path d="M68.8037 72.7784C71.4779 77.3863 75.1395 83.9278 77.1555 88.3299C78.8834 87.4248 80.7348 86.6843 82.6684 86.2317C83.1621 86.7666 82.5861 87.5894 82.0102 88.0831C80.1999 89.6053 78.2251 90.963 76.1681 92.1561C75.7567 92.403 75.3452 92.6087 74.8927 92.5675C74.3578 92.4852 73.9876 92.0738 73.6173 91.6624C70.5317 88.0419 65.9238 81.5416 62.7559 77.9623C64.8541 76.3989 66.8701 74.671 68.8037 72.8607V72.7784Z" fill="#009245"/>
<path d="M68.475 72.943C71.4372 78.0034 74.3993 83.1461 76.8267 88.4945C79.2541 93.8429 77.197 88.7414 77.3615 88.6179C79.0895 87.7128 80.8997 87.0134 82.7922 86.5197L82.3397 86.3552C82.9156 87.1368 81.1054 88.2477 80.6117 88.6179C79.7477 89.2762 78.8838 89.8933 77.9787 90.4693C77.0735 91.0453 77.0736 91.0453 76.621 91.3333C76.1684 91.6213 75.5924 92.0738 75.0576 92.0738C74.5228 92.0738 73.6177 90.963 73.1651 90.4282C70.9023 87.6717 68.7629 84.7918 66.5824 81.953C64.4019 79.1142 64.2785 78.9908 63.0443 77.592L62.962 78.2091C65.1014 76.6046 67.1584 74.8766 69.0509 73.0253C70.9434 71.1739 68.8452 72.1202 68.475 72.4493C66.5824 74.2595 64.6077 75.9463 62.5094 77.5097C60.4112 79.0731 62.2626 77.9211 62.4272 78.1268C65.0602 81.1302 67.4053 84.3803 69.8326 87.5482C72.26 90.7161 72.0543 90.4282 73.2474 91.827C74.4405 93.2258 74.6873 93.1435 75.757 92.6909C76.8267 92.2384 77.773 91.539 78.6781 90.9219C79.5832 90.3047 80.8586 89.3585 81.9283 88.5357C82.9979 87.7128 83.6562 86.9311 82.9568 85.9849C82.2574 85.0386 82.7099 85.738 82.5042 85.8203C80.5706 86.314 78.6781 87.0545 76.909 87.9597L77.4438 88.0831C75.0165 82.7347 72.0543 77.592 69.0921 72.5316C66.1299 67.4712 68.1458 72.4904 68.3927 72.943H68.475Z" fill="#009245"/>
<path d="M39.716 56.4046C39.1812 53.8538 38.6875 50.3979 39.5926 50.4802C44.7764 50.9739 50.3717 51.4265 55.4321 52.6607C55.3498 53.4012 55.2675 54.1418 55.1853 54.8824C55.1853 55.1292 55.1441 55.3761 55.1853 55.5818C55.2675 55.8698 55.5144 56.0755 55.7201 56.24C57.448 57.7211 59.176 59.2022 60.8628 60.6422C61.5622 61.2182 54.3624 68.3356 53.6219 69.035C53.4984 69.1585 53.3339 69.2819 53.1693 69.323C53.0048 69.323 52.8813 69.2408 52.7168 69.1585C50.7008 67.8831 48.6437 66.5665 46.6278 65.2912C43.9947 63.6044 41.732 61.8764 40.3743 58.9554C40.2509 58.7496 40.004 57.68 39.716 56.3634V56.4046Z" fill="#161616"/>
<path d="M40.0863 56.2812C39.8395 55.047 39.5926 53.7716 39.5103 52.5373C39.4281 51.3031 39.4281 51.5911 39.5103 51.1385C39.5926 50.686 39.5103 50.8917 39.5926 50.8505C39.6749 50.8094 40.1686 50.9328 40.3332 50.9328C43.5833 51.2208 46.7924 51.5088 50.0426 52.0025C53.2928 52.4962 53.5807 52.6196 55.3087 53.031L55.0207 52.6608C54.9796 53.1545 54.8973 53.6482 54.8561 54.183C54.815 54.7178 54.6916 55.1704 54.7739 55.623C54.9796 56.4046 55.8847 56.8983 56.4195 57.392C56.9544 57.8857 57.9829 58.7497 58.7646 59.408C59.5463 60.0662 59.464 60.0251 59.8343 60.3131C60.2045 60.6011 60.2457 60.6834 60.4514 60.8479C60.7805 61.0948 60.4514 60.8479 60.5337 60.8068C60.616 60.7656 60.5337 60.8891 60.5337 60.9302C60.5337 60.9714 60.4102 61.1359 60.3691 61.2182C60.2045 61.5062 59.9988 61.753 59.7931 62.041C59.176 62.8227 58.5177 63.5221 57.8595 64.2627C56.5841 65.6615 55.2264 67.0192 53.9099 68.3357C52.5933 69.6522 53.6219 68.6237 53.4573 68.7883C53.1282 69.0762 52.7991 68.7471 52.5111 68.5414L51.2357 67.7186C49.59 66.6489 47.9032 65.6204 46.2575 64.5507C44.6119 63.481 43.2542 62.4113 42.1434 60.9714C41.0326 59.5314 41.1149 59.5726 40.8269 58.7909C40.5389 58.0092 40.3743 57.1452 40.2097 56.3224C40.0452 55.4995 39.3458 56.0344 39.428 56.5281C39.5926 57.3098 39.7572 58.1326 40.004 58.9143C40.2509 59.696 40.6623 60.2719 41.0737 60.8891C42.02 62.2467 43.2131 63.3576 44.5296 64.3038C45.8461 65.2501 47.8621 66.5255 49.5489 67.5951L52.2642 69.3231C52.5933 69.5288 52.9225 69.8168 53.3339 69.7345C53.7453 69.6522 53.8276 69.4877 54.0333 69.3231C55.3087 68.1711 56.5018 66.8957 57.6538 65.6203C58.8057 64.345 59.176 64.0158 59.8754 63.1519C60.5748 62.2879 60.9039 61.9999 61.2331 61.3005C61.5622 60.6011 61.4388 60.7657 61.3154 60.5188C61.1919 60.272 60.616 59.9017 60.328 59.6137C59.8754 59.2434 59.4228 58.832 58.9703 58.4617C58.0652 57.68 57.1601 56.8983 56.255 56.1167C55.3498 55.335 55.8024 55.7875 55.679 55.5407C55.5555 55.2938 55.679 54.8824 55.679 54.5944C55.7612 53.9773 55.8435 53.319 55.9258 52.7019C56.0081 52.0848 55.8024 52.3728 55.6378 52.3316C52.1819 51.5088 48.6438 51.0151 45.1056 50.6448C43.3365 50.4803 41.5674 50.1923 39.7983 50.1511C38.0292 50.11 38.8109 51.2208 38.8109 51.9613C38.8109 53.4836 39.1401 55.047 39.428 56.5692C39.716 58.0914 40.292 56.8572 40.2097 56.3635L40.0863 56.2812Z" fill="#161616"/>
<path d="M76.3739 89.3587C76.3739 89.3587 76.3739 89.2764 76.4151 89.2353C76.7853 88.3713 76.6208 86.8902 77.0733 85.8617C77.2379 85.4503 77.6905 84.9977 78.0607 85.2857C78.0607 86.1085 77.8961 86.9314 77.6904 87.7131C78.2253 87.4662 82.4629 85.944 82.7097 86.1908C83.2034 86.7257 82.6274 87.5485 82.0514 88.0422C80.2412 89.5644 78.2664 90.9221 76.2094 92.1152C75.7979 92.3621 75.3865 92.5678 74.934 92.5266C74.5225 92.4855 74.1934 92.1975 73.9054 91.9095C74.5637 91.1278 75.9214 90.2638 76.3739 89.3998V89.3587Z" fill="#161616"/>
<path d="M76.7031 89.5644C76.9911 88.9473 77.0323 88.289 77.1145 87.6307C77.1968 86.9725 77.1968 86.8902 77.2791 86.5199C77.3614 86.1496 77.5671 85.4502 77.8551 85.6148L77.6494 85.2857C77.6494 86.0673 77.4848 86.849 77.2791 87.5896C77.0734 88.3301 77.5671 88.1656 77.8551 88.0421C78.1431 87.9187 77.8551 88.0421 78.0197 87.9599C78.1842 87.8776 78.3076 87.8364 78.4311 87.7953C78.7602 87.6719 79.1305 87.5484 79.4596 87.425C80.2413 87.137 81.023 86.8902 81.8047 86.6845C82.5864 86.4788 82.0927 86.6022 82.2161 86.5611C82.3395 86.5199 82.5041 86.5199 82.5041 86.5199C82.5452 86.5199 82.6275 86.5199 82.5041 86.5199C82.2984 86.4376 82.4218 86.5199 82.4218 86.6433C82.4218 86.9725 82.1338 87.2605 81.9281 87.4662C81.4344 87.9599 80.8173 88.4124 80.2413 88.8238C79.6653 89.2353 79.007 89.729 78.3899 90.1404C77.7728 90.5518 77.0323 91.0043 76.3328 91.4158C75.6334 91.8272 75.5923 91.9095 75.1809 91.9917C74.7695 92.074 74.3992 91.8272 74.1112 91.498V92.074C74.8929 91.1689 76.0449 90.5518 76.662 89.4821C77.2791 88.4124 76.2094 88.6181 75.9626 89.0707C75.3866 90.0581 74.2758 90.6341 73.5352 91.498C72.7947 92.362 73.3707 91.9094 73.5352 92.074C74.0701 92.6088 74.7283 92.9791 75.51 92.7323C76.2917 92.4854 77.1145 91.9094 77.8139 91.4569C79.3362 90.5106 80.8173 89.441 82.2161 88.2478C83.6149 87.0547 83.2035 87.2193 83.1623 86.5199C83.1212 85.8205 82.8743 85.6971 82.4218 85.6971C81.599 85.6971 80.735 86.1085 79.9533 86.3553C79.1716 86.6022 78.2254 86.9313 77.3614 87.3016L77.9374 87.7541C78.1431 86.9313 78.3076 86.0674 78.3488 85.2034C78.3899 84.3394 78.2665 84.9154 78.1431 84.8742C77.238 84.3394 76.5797 85.4914 76.374 86.2319C76.1683 86.9725 76.2917 88.2067 75.8803 89.0707C75.4689 89.9347 76.3328 89.9347 76.5797 89.4821L76.7031 89.5644Z" fill="#161616"/>
<path d="M43.8723 61.1363C44.1191 61.2597 45.2711 52.3731 45.3945 51.468C50.5372 51.9617 55.5565 52.4143 60.5757 53.3605C59.5883 57.9272 57.6547 62.2882 54.9393 66.1144C51.1955 64.551 47.4927 62.8642 43.8311 61.1363H43.8723Z" fill="#161616"/>
<path d="M43.749 61.506C44.2427 61.5883 44.3249 61.0535 44.4072 60.6832C44.5307 59.9838 44.6541 59.2844 44.7775 58.6261C45.0655 56.857 45.3123 55.0468 45.5592 53.2777C45.806 51.5086 45.7238 52.0435 45.806 51.5498L45.4358 51.8378C50.4962 52.2903 55.5566 52.784 60.5347 53.7303L60.2467 53.2366C59.2593 57.8033 57.3257 62.082 54.6515 65.9082L55.104 65.7436C51.4013 64.1802 47.7397 62.5346 44.1192 60.8066C40.4988 59.0787 43.2553 61.2592 43.7078 61.506C47.4106 63.2751 51.1133 64.9619 54.8983 66.5253C58.6833 68.0887 55.2686 66.4842 55.3509 66.3607C58.0662 62.4934 59.9999 58.1324 61.0284 53.4834C62.057 48.8344 60.9873 53.0309 60.7404 52.9897C55.68 52.0435 50.5373 51.5498 45.4358 51.0972C40.3342 50.6447 45.0655 51.2207 45.0655 51.3852C44.8186 53.072 44.6129 54.7177 44.3661 56.4045C44.1192 58.0913 44.0781 58.4616 43.9135 59.4901C43.749 60.5186 43.7901 60.1895 43.7078 60.5598C43.6255 60.9301 43.6255 60.7655 43.6255 60.8889C43.6255 61.0123 43.6255 60.9712 43.6255 61.0123C43.6255 60.8889 44.037 60.8066 44.0781 60.8066C43.5844 60.7243 43.3787 61.4649 43.8724 61.5883L43.749 61.506Z" fill="#161616"/>
<path d="M62.0565 65.4147C62.0565 65.4147 62.0565 65.4558 62.0565 65.497C62.0565 65.5381 62.0565 65.6204 62.0565 65.5381C62.0565 65.4558 62.0565 65.5381 62.0565 65.5793C62.0565 65.5793 62.0565 65.6204 62.0565 65.6615V65.7438C62.0565 65.7438 62.0565 65.785 62.0565 65.8261C62.0565 65.8261 62.0565 65.8261 62.0565 65.8673C62.0565 65.785 62.0565 65.8261 62.0565 65.8673C62.0565 65.9084 62.0154 65.9495 61.9743 66.0318C61.9743 66.0318 61.9331 66.073 61.892 66.1141C61.8508 66.1552 61.892 66.1141 61.8508 66.1552C61.8508 66.1552 61.8508 66.1552 61.8097 66.1552C61.8097 66.1552 61.8097 66.1552 61.7686 66.1552H61.6863C61.6863 66.1552 61.6451 66.1552 61.604 66.1552C61.5217 66.1552 61.6863 66.1552 61.604 66.1552C61.5217 66.1552 61.5628 66.1552 61.5217 66.1552C61.5217 66.1552 61.5217 66.1552 61.4806 66.1552C61.4806 66.1552 61.4394 66.1552 61.3983 66.1552H61.316C61.316 66.1552 61.2748 66.1552 61.2337 66.1552C61.2748 66.1552 61.316 66.1552 61.2337 66.1552C61.2337 66.1552 61.2337 66.1552 61.1926 66.1552C61.1926 66.1552 61.1514 66.1552 61.1103 66.1552C61.1103 66.1552 61.1103 66.1552 61.0691 66.1141C61.0691 66.1141 61.028 66.0729 60.9869 66.0318L60.9457 65.9495C60.9046 65.8672 60.8634 65.785 60.7812 65.7027C60.6989 65.6204 60.5754 65.6204 60.4932 65.7027C60.3286 65.7438 60.1229 65.9907 60.2052 66.1964C60.2874 66.4021 60.4932 66.6901 60.74 66.8546C60.9869 67.0192 61.2337 67.0604 61.5217 67.1015C62.0977 67.1015 62.5914 66.6901 62.7971 66.1552C63.0028 65.6204 62.9205 65.5381 62.7971 65.2913C62.6737 65.0444 62.5091 64.9621 62.3034 65.0033C62.0977 65.0444 61.9331 65.2913 62.0154 65.497L62.0565 65.4147Z" fill="#161616"/>
<path d="M37.9887 50.1915C36.8779 49.7389 39.3464 38.3839 39.5932 37.0673C40.4161 32.8298 41.1978 28.6333 42.5143 24.5192C39.7578 23.6963 37.0425 22.8735 34.286 22.0095C34.1214 21.9684 33.9157 21.8861 33.8334 21.7627C33.71 21.6392 33.71 21.4747 33.6689 21.3101C33.2163 18.0188 33.2986 14.8097 34.7797 11.7241C39.5932 11.7241 44.4891 11.8064 49.0147 13.4521C53.5402 15.0566 57.3664 18.1422 61.1103 21.1455C65.8004 24.9306 71.2722 28.3042 74.111 33.8171C75.3041 36.2034 76.0858 38.7541 76.4149 41.3872C76.5384 42.3335 76.9909 48.6281 75.9212 48.9984C72.8768 50.0269 69.462 49.9035 66.4998 48.6281C66.253 46.7356 65.965 44.8842 65.7181 42.9917C64.9776 47.0647 62.7148 50.4795 60.8223 54.0999C60.6577 54.3879 60.4932 54.7171 60.164 54.8816C59.9172 55.005 59.6292 55.005 59.3412 55.005C52.018 54.6348 44.7771 53.0302 38.0299 50.1915H37.9887Z" fill="#009245"/>
<path d="M38.1944 49.8214C38.1944 49.7391 38.1944 49.8214 38.1944 49.7391C38.1532 49.5745 38.1532 49.4099 38.1532 49.2042C38.1532 48.6694 38.1532 48.0934 38.2355 47.5586C38.4001 45.9952 38.6469 44.4729 38.8938 42.9507C39.3875 40.1119 40.0046 37.2732 40.5394 34.4344C41.0743 31.5956 41.8971 27.8518 42.9256 24.6427C43.9542 21.4337 42.8434 24.2313 42.6377 24.149C41.0743 23.6553 39.5109 23.2028 37.9475 22.7091C36.3841 22.2154 36.3841 22.2154 35.6024 22.0097C34.8208 21.8039 34.7796 21.804 34.4093 21.6394C34.0391 21.4748 34.0391 21.1457 33.9979 20.7343C33.6277 17.7309 33.8334 14.6865 35.1087 11.93L34.7796 12.1357C40.3337 12.1768 46.0113 12.3003 51.1539 14.7687C55.7618 16.9904 59.5468 20.4874 63.5787 23.573C67.2814 26.4118 71.1488 29.2917 73.4527 33.447C75.7566 37.6023 76.168 40.9348 76.2092 44.9666C76.2503 48.9985 76.2092 46.6535 76.1269 47.4763C76.0446 48.2991 76.0446 48.0934 75.9212 48.3814C75.7977 48.6694 75.8389 48.546 75.7978 48.5871C75.7566 48.6283 75.5098 48.7105 75.304 48.7517C72.4241 49.5745 69.3385 49.3688 66.582 48.2168L66.87 48.5048C66.6232 46.6123 66.3352 44.7609 66.0883 42.8684C65.8415 40.9759 65.3889 42.4981 65.3067 42.8684C64.8952 45.0901 64.0313 47.1472 63.0027 49.1219C61.9742 51.0967 61.9742 51.0556 61.4393 52.043C60.9045 53.0304 60.9456 52.9481 60.6988 53.4007C60.4519 53.8532 60.2051 54.5526 59.5057 54.5938C58.3949 54.5938 57.2018 54.4704 56.0909 54.3469C54.9801 54.2235 53.7047 54.0589 52.5116 53.8944C50.2077 53.5241 47.9449 53.0304 45.7233 52.4133C43.5016 51.7961 40.6217 50.8087 38.1532 49.7802C35.6847 48.7517 37.495 50.3562 37.9475 50.5619C42.5554 52.4956 47.4101 53.8532 52.3471 54.6761C57.2841 55.4989 54.7333 55.0463 55.9675 55.1698C57.2018 55.2932 58.436 55.4577 59.6703 55.4166C60.9045 55.3755 61.1925 54.4292 61.645 53.5241C62.0976 52.619 62.797 51.4259 63.373 50.3562C64.6072 48.0523 65.6769 45.7072 66.1706 43.1153H65.3889C65.6358 44.8021 65.8415 46.4477 66.0883 48.1345C66.3352 49.8213 66.0883 48.7928 66.3352 48.9574C66.582 49.1219 66.9935 49.2042 67.2814 49.3277C68.022 49.5745 68.7625 49.7802 69.5442 49.9036C70.9019 50.1093 72.3007 50.1505 73.6584 49.9448C75.0161 49.7391 75.0572 49.6979 75.7566 49.4922C76.456 49.2865 76.3737 49.2865 76.5794 48.9985C76.9086 48.4637 76.9909 47.7231 77.032 47.106C77.0731 46.4889 77.1143 45.3781 77.0731 44.5141C77.0731 42.8273 76.9086 41.0993 76.5794 39.4537C76.0035 36.6561 74.9338 33.8996 73.2881 31.5134C71.807 29.374 69.9556 27.5638 67.9397 25.9181C65.9238 24.2724 63.7021 22.6268 61.6039 20.9811C59.3411 19.1709 57.0783 17.3195 54.6098 15.7561C52.1414 14.1928 48.6855 12.6705 45.3941 12.0534C42.1028 11.4363 38.4001 11.354 34.8619 11.354C34.7385 11.354 34.5739 11.4363 34.5328 11.5597C33.0928 14.6042 32.8871 17.9366 33.3397 21.2691C33.7922 24.6016 33.7099 22.2565 34.3682 22.5034C35.0265 22.7502 36.1373 23.0382 37.0013 23.2851C38.8115 23.8199 40.6629 24.3959 42.4731 24.9307L42.1851 24.437C40.7451 29.0037 39.9223 33.735 38.9761 38.4251C38.0298 43.1153 37.7418 44.5141 37.4538 47.5997C37.1658 50.6853 37.3304 48.8751 37.3715 49.4922C37.4127 50.1093 37.4538 50.3973 37.8241 50.5619C38.1944 50.7265 38.6881 50.1093 38.2355 49.8625L38.1944 49.8214Z" fill="#009245"/>
<path d="M66.5812 47.0654C66.4578 48.2997 66.2933 49.5751 66.1698 50.8093C66.1287 51.2207 66.0053 51.7556 65.635 51.9201C65.4293 52.0024 65.1824 52.0024 64.9356 52.0024C57.6535 51.3853 50.7829 48.3408 43.83 46.078C43.6243 45.9958 43.4597 45.9546 43.254 45.9958C42.9249 46.1192 42.8426 46.6129 43.0071 46.942C43.1717 47.2712 43.542 47.4357 43.8711 47.6003C44.8585 48.0528 45.8048 48.5465 46.7922 48.9991C45.5991 48.5054 44.3648 48.1763 43.0894 47.9706C42.6369 47.8883 41.9786 48.0528 42.0609 48.5054C43.0483 49.2871 44.1591 49.9042 45.3111 50.3156C44.7351 50.439 44.2414 50.0276 43.7066 49.8631C43.1717 49.6985 42.3489 49.9453 42.4312 50.5213C42.4723 50.8093 42.7191 50.9739 42.966 51.0973C43.9534 51.6733 44.9819 52.167 46.0928 52.5373C45.3111 52.2904 44.4471 52.2081 43.6243 52.3316C43.7477 53.0721 44.406 53.5247 45.0642 53.8949C51.5234 57.6388 58.8055 60.025 66.2521 60.8067C69.3789 61.1358 71.5594 59.4491 73.205 56.816C73.8222 55.8697 74.2747 54.8412 74.7273 53.8126C75.7558 51.5087 76.0438 49.4928 76.4141 47.0243" fill="white"/>
<path d="M66.1701 47.0654C66.0467 48.2996 65.8821 49.4927 65.7587 50.7269C65.6353 51.9612 65.7587 51.2207 65.5941 51.3852C65.4295 51.5498 65.1827 51.6321 64.8947 51.5909C64.2364 51.5498 63.5782 51.4675 62.9199 51.3441C60.616 51.0149 58.3532 50.439 56.1316 49.8218C53.9099 49.2047 51.6883 48.3819 49.5078 47.6002C47.3273 46.8185 47.3273 46.8185 46.2576 46.4482C45.1879 46.078 45.1879 46.0779 44.6531 45.8722C44.1182 45.6665 43.7068 45.4608 43.2131 45.5431C42.2257 45.7488 42.4314 46.9831 43.0485 47.4768C43.6657 47.9705 44.0771 48.0528 44.5708 48.2996C45.0645 48.5465 45.9285 48.9579 46.5867 49.287L46.8747 48.5464C45.9284 48.1762 44.9411 47.847 43.9125 47.6413C42.884 47.4356 42.3491 47.271 41.8143 47.847C41.2795 48.423 42.1023 49.0401 42.596 49.3693C43.3777 49.9041 44.2417 50.3155 45.1468 50.6858V49.9041C44.6942 49.9864 44.2828 49.6573 43.8714 49.4927C43.46 49.3281 43.3365 49.3281 43.0485 49.3693C42.5548 49.4516 41.9789 49.7807 41.9789 50.3567C41.9789 50.9327 42.8428 51.4675 43.3777 51.7966C44.2005 52.2492 45.0645 52.6195 45.9285 52.9075L46.1342 52.1258C45.3113 51.8789 44.4474 51.7966 43.5422 51.8789C42.6371 51.9612 43.0897 52.1258 43.172 52.3726C43.46 53.6891 45.0233 54.3063 46.093 54.8822C47.1627 55.4582 48.8906 56.3222 50.3306 56.9393C53.2105 58.1736 56.1727 59.2021 59.2172 59.9427C60.7394 60.3129 62.2617 60.6009 63.825 60.8478C65.3884 61.0946 66.6226 61.3415 68.0215 61.1358C70.4488 60.7655 72.2591 58.9964 73.5344 56.9805C74.8098 54.9645 75.1801 53.8948 75.7149 52.2492C76.2498 50.6035 76.4966 48.8344 76.7435 47.1065C76.9903 45.3785 76.0441 46.4071 75.9618 46.9008C75.7561 48.2996 75.5504 49.7396 75.1801 51.0972C74.8098 52.4549 74.1927 53.936 73.5344 55.2525C72.5059 57.3096 70.9425 59.449 68.6386 60.1484C66.3347 60.8478 66.1701 60.3541 64.8947 60.1895C63.6193 60.0249 61.9325 59.737 60.4514 59.4078C57.6538 58.7907 54.8562 57.9267 52.182 56.8982C49.5078 55.8696 49.0964 55.5817 47.5741 54.8C46.0519 54.0183 46.1753 54.0594 45.4759 53.648C44.7765 53.2366 44.0771 52.9075 43.9125 52.1258L43.5422 52.6195C44.3651 52.5372 45.1468 52.6195 45.8873 52.8252C46.6279 53.0309 46.5867 52.208 46.093 52.0435C45.5993 51.8789 44.8588 51.5909 44.2416 51.2618C43.6245 50.9327 42.6783 50.6035 42.7194 50.2744C42.7605 49.9453 43.1308 50.0687 43.2543 50.0687C43.5011 50.0687 43.7068 50.1921 43.9125 50.3155C44.4062 50.5212 44.8176 50.6858 45.3113 50.6035C45.805 50.5212 45.6405 49.9453 45.3113 49.8218C44.1594 49.3693 43.1308 48.7933 42.1434 48.0527L42.3491 48.3819C42.3491 47.9705 44.1182 48.4642 44.3239 48.5053C45.1056 48.711 45.8873 48.9579 46.6279 49.2459C47.3684 49.5338 47.3273 48.711 46.9158 48.5053C45.8462 48.0116 44.7354 47.5179 43.7068 46.9419C42.6783 46.366 43.2131 46.6539 43.2131 46.4071C43.2131 46.1602 43.6245 46.2837 43.7891 46.3248C44.3239 46.4894 44.8588 46.6951 45.3936 46.8596C47.4918 47.6002 49.5901 48.3819 51.7294 49.0813C55.8847 50.5212 60.2046 51.7966 64.6067 52.1669C65.1004 52.208 65.5941 52.2492 65.9644 51.8378C66.3347 51.4263 66.3347 51.0972 66.4169 50.7269C66.5815 49.4516 66.7049 48.135 66.8695 46.8185C67.0341 45.502 66.129 46.3248 66.0878 46.8185L66.1701 47.0654Z" fill="#161616"/>
<path d="M67.8575 29.5386C66.4176 31.3077 64.3194 32.542 62.0977 32.9123C61.5629 31.0609 61.028 29.1684 60.4932 27.317C58.8887 27.5227 57.2019 27.4404 55.6385 27.0702C55.1037 26.9467 56.2145 22.0509 56.2968 21.5572C56.5847 20.1172 56.955 18.5539 58.7241 18.307C59.5469 18.1836 60.3698 18.595 61.1103 18.9653C64.7719 20.8167 71.6837 24.7251 67.8987 29.4975L67.8575 29.5386Z" fill="#161616"/>
<path d="M67.5695 29.2922C66.1707 31.0613 64.1547 32.2132 61.9331 32.6246L62.4268 32.9126C61.8919 31.0613 61.3571 29.1688 60.8223 27.3174C60.2874 25.466 60.6165 26.9882 60.452 27.0294C59.6703 27.1117 58.8886 27.1939 58.1069 27.1528C57.3252 27.1117 57.2841 27.1117 56.8315 27.0294C56.379 26.9471 56.4613 26.9882 56.2555 26.9471C56.1321 26.9471 56.0087 26.906 55.8853 26.8648C55.6384 26.7825 55.6384 26.8237 55.8853 26.9471C55.8853 27.0294 55.8853 26.8237 55.8853 26.8237C55.8853 26.7003 55.8853 26.618 55.8853 26.4946C55.8853 26.1243 55.9676 25.7129 56.0087 25.3426C56.2144 23.9026 56.5024 22.4627 56.8727 21.0639C57.2429 19.6651 57.5721 19.0479 58.724 18.8422C59.876 18.6365 61.1102 19.5005 62.0976 20.0353C63.9079 20.9816 65.677 22.0924 67.1169 23.5735C68.5569 25.0546 68.3923 25.178 68.598 26.2066C68.8037 27.2351 68.3512 28.4693 67.6929 29.3333C67.0346 30.1973 67.9397 30.2796 68.2689 29.9093C68.9683 29.0042 69.5031 27.9757 69.5031 26.7825C69.5031 25.5894 69.0506 24.7666 68.4746 23.9438C67.1169 22.0513 65.0187 20.6936 62.9616 19.5828C60.9045 18.472 60.6988 18.184 59.4234 18.0605C58.1481 17.9371 56.9961 18.6365 56.5024 19.8296C56.0087 21.0227 56.0087 21.4341 55.8441 22.257C55.6796 23.0798 55.4739 24.1083 55.3093 25.0134C55.1447 25.9186 54.8979 26.7825 55.3093 27.3585C55.7207 27.9345 55.6796 27.6054 55.8853 27.6465C56.379 27.7699 56.8727 27.8111 57.3252 27.8934C58.3949 28.0168 59.4646 27.9756 60.5343 27.8522L60.164 27.5642C60.6988 29.4156 61.2337 31.3081 61.7685 33.1595C62.3034 35.0109 62.0565 33.4886 62.2622 33.4475C64.6073 33.036 66.7466 31.7607 68.2277 29.9093C69.7088 28.0579 67.9809 28.963 67.6518 29.3333L67.5695 29.2922Z" fill="#161616"/>
<path d="M70.7365 21.7226C70.5719 21.6403 68.1446 27.1945 67.8154 27.7293C67.7331 27.8939 67.6097 28.0584 67.4452 28.1407C67.3217 28.1819 67.1983 28.223 67.0749 28.223C64.8944 28.4287 62.6727 28.1407 60.5745 27.4824C59.7105 25.0962 58.8054 22.71 57.9415 20.3238C57.9003 20.1593 57.818 19.9947 57.8592 19.789C57.8592 19.6244 57.9826 19.501 58.0649 19.3776C60.7802 15.4691 63.0019 11.1493 65.4292 7.03512C66.0052 6.04772 66.6223 5.01917 67.4863 4.27863C69.1731 2.83867 71.6005 3.20895 73.5341 3.86721C77.9363 5.34831 77.854 8.63963 77.9774 12.6304C77.9774 13.3298 78.0597 14.1526 78.6357 14.6051C79.0471 14.9343 79.5819 14.9754 80.0345 15.2223C80.487 15.4691 80.775 16.2097 80.3225 16.4977C80.199 16.58 80.0756 16.58 79.9522 16.6211C79.3351 16.7034 78.7179 16.7034 78.142 16.5388C78.0597 16.9502 77.9774 17.4028 77.9362 17.8142C77.8951 18.061 77.8128 18.349 77.566 18.4313C77.4426 18.4724 77.278 18.4313 77.1546 18.4313C76.126 18.1433 75.0975 17.8553 74.0689 17.5673C73.8632 18.2256 74.0689 18.925 74.4804 19.4598C74.8918 19.9947 75.3855 20.4061 75.9203 20.8175C75.1798 21.8872 74.2747 22.71 72.8347 22.5043C72.0941 22.3809 71.4359 22.0518 70.7776 21.6815L70.7365 21.7226Z" fill="white"/>
<path d="M70.7371 21.3107C70.3257 21.3107 70.12 21.969 69.9554 22.257C69.5852 22.9564 69.256 23.6969 68.9269 24.4375C68.5978 25.178 68.2275 25.9597 67.8984 26.7003C67.5692 27.4408 67.6927 27.1528 67.5692 27.3997C67.4458 27.6465 67.4869 27.6054 67.4046 27.6465C67.1578 27.9345 66.5818 27.8934 66.2115 27.8934C64.319 27.9345 62.4677 27.6877 60.6986 27.1117L60.9866 27.3997C60.3283 25.5894 59.6289 23.7381 58.9706 21.9278C58.3124 20.1176 58.6415 21.0639 58.4769 20.6113C58.3124 20.1588 58.189 20.0353 58.3124 19.7473C58.4358 19.4593 58.6004 19.3359 58.7238 19.1302C59.2586 18.3485 59.7523 17.608 60.246 16.8263C62.2208 13.6584 63.9488 10.4082 65.8001 7.19916C67.6515 3.99012 67.5692 4.23698 69.2972 3.8667C71.0251 3.49643 72.3416 3.90783 73.6993 4.44267C75.057 4.97751 75.921 5.59464 76.5792 6.66432C77.2375 7.73401 77.3609 8.76255 77.4432 9.83223C77.5255 10.9019 77.5255 11.231 77.5255 11.9716C77.5255 12.7121 77.5255 13.535 77.7723 14.2344C78.0192 14.9338 78.7186 15.2218 79.4591 15.5098C80.1997 15.7977 80.4877 16.1269 79.8705 16.2915C79.2534 16.456 78.7186 16.3326 78.1837 16.2092C77.6489 16.0857 77.7312 16.2503 77.69 16.4972C77.6078 16.9086 77.5666 17.2788 77.4843 17.6903C77.402 18.1017 77.4843 18.1017 77.1963 18.1017C76.9084 18.1017 76.7849 17.9783 76.6204 17.9371C75.7975 17.6903 74.9336 17.4846 74.1107 17.2377C73.2879 16.9909 73.6582 17.32 73.617 17.5257C73.2056 19.1714 74.481 20.3233 75.633 21.2284L75.5095 20.6936C75.057 21.3107 74.5221 21.969 73.7405 22.1335C72.9588 22.2981 71.7657 21.8456 70.9017 21.393C70.0377 20.9404 70.0377 21.8456 70.4903 22.0924C71.5599 22.6272 72.7119 23.2032 73.9462 22.9152C75.1804 22.6272 75.633 21.8867 76.1678 21.105C76.7026 20.3233 76.1678 20.6936 76.0444 20.5702C75.1804 19.9119 74.0696 19.0068 74.3987 17.7314L73.905 18.0194C74.5221 18.1839 75.1393 18.3485 75.7564 18.5131C76.3735 18.6777 76.8672 18.9245 77.4021 18.9245C78.4306 18.9245 78.3894 17.4023 78.5129 16.7029L78.0192 16.9908C78.8009 17.1554 80.8579 17.4846 80.8991 16.2092C80.9402 14.9338 80.6934 15.3452 80.3642 15.0983C79.9117 14.7281 79.1711 14.7692 78.7597 14.3166C78.3483 13.8641 78.3483 13.247 78.3483 12.7121C78.3483 12.1773 78.3483 11.6424 78.3072 11.1076C78.3072 10.1614 78.2249 9.25624 78.0192 8.30999C77.6489 6.5409 76.6615 5.0598 75.057 4.19583C73.4525 3.33186 70.4491 2.50904 68.3921 3.33187C66.335 4.1547 66.4584 4.73068 65.8001 5.71807C65.1419 6.70547 64.3602 8.14541 63.6608 9.37966C62.2208 11.9304 60.7809 14.5224 59.2175 17.032C57.6541 19.5416 58.4769 18.2251 58.0655 18.8011C57.6541 19.3771 57.3661 19.7885 57.5718 20.4879C58.0655 21.969 58.6826 23.4501 59.2175 24.9312C59.7523 26.4123 59.7523 26.3711 59.9992 27.1117C60.246 27.8522 60.1226 27.6877 60.3283 27.8522C60.5752 28.0991 61.11 28.1402 61.4391 28.2225C62.8379 28.5928 64.319 28.7985 65.759 28.7573C67.1989 28.7162 67.2812 28.8396 67.8161 28.4693C68.3509 28.0991 68.2275 27.9757 68.3509 27.7288C68.68 27.0705 68.968 26.4123 69.256 25.754C69.544 25.0957 69.9966 24.1083 70.408 23.3267C70.8194 22.545 70.696 22.7095 70.8605 22.4215C71.0251 22.1335 70.9428 22.257 71.0251 22.1335C71.1074 22.0101 71.0663 22.0513 71.0663 22.0513C71.1485 21.969 71.0663 22.0101 70.8194 22.1335C71.3131 22.1335 71.3131 21.393 70.8194 21.3519L70.7371 21.3107Z" fill="#161616"/>
<path d="M70.6959 8.10439C69.2559 7.85754 68.6388 8.96836 67.6514 9.87347C67.1166 9.5032 66.5817 9.13294 65.9646 9.00951C65.3475 8.88609 64.607 9.00951 64.2778 9.54435C63.9898 9.9969 63.9898 10.5729 64.031 11.1077C64.031 11.6837 64.1132 12.3008 64.1544 12.8768C63.2081 13.4939 62.1385 13.9054 60.9865 14.1522C60.9865 12.8357 60.7808 11.478 61.0688 10.2026C61.3568 8.96835 62.1796 7.81641 63.3727 7.44614C63.167 6.54102 62.9201 5.59476 63.0847 4.68965C63.2493 3.78453 63.8664 2.87942 64.8127 2.71486C65.2241 2.63258 65.6355 2.71486 66.0469 2.71486C67.1166 2.63258 67.9806 1.89203 68.8445 1.2749C69.7085 0.657781 70.9016 0.164072 71.8067 0.698912C72.2181 0.945762 72.5061 1.31605 72.9175 1.48061C73.5758 1.7686 74.2752 1.48061 75.0158 1.48061C76.1266 1.43947 77.2786 2.05657 77.8545 3.00283C78.3071 3.78452 77.8545 3.94909 78.4717 4.52507C79.0065 4.97763 80.1173 5.1422 80.7756 5.6359C81.1047 5.88275 81.4338 6.21189 81.3927 6.62331C81.3927 7.07586 80.9402 7.40498 80.5287 7.61069C78.8008 8.47466 77.0317 8.31011 75.1392 8.26897C73.617 8.26897 72.177 8.43353 70.6548 8.18668L70.6959 8.10439Z" fill="#161616"/>
<path d="M70.6958 7.69284C69.1735 7.48713 68.3507 8.63909 67.3633 9.58534L67.857 9.50308C66.8696 8.80367 65.512 8.06312 64.36 8.88595C63.208 9.70879 63.6606 9.83219 63.6194 10.4082C63.5783 10.9842 63.7017 12.0538 63.7429 12.8355L63.9486 12.5064C63.0023 13.0824 61.9738 13.4938 60.9041 13.7407L61.3978 14.1109C61.3978 12.0127 60.8218 8.6391 63.496 7.77513C66.1702 6.91116 63.8252 7.48713 63.784 7.28142C63.496 6.08832 63.1257 4.60722 63.9897 3.57868C64.8537 2.55015 64.8125 3.00271 65.3474 3.04385C65.8822 3.08499 66.4994 3.04383 67.0753 2.79699C68.0627 2.38557 68.8033 1.56275 69.7907 1.11019C70.7781 0.657635 70.9015 0.657645 71.4775 0.863352C72.0535 1.06906 72.3415 1.6039 72.8763 1.8096C73.946 2.22102 75.0568 1.56274 76.1676 1.97415C77.2784 2.38557 77.155 2.50899 77.4841 3.00269C77.8133 3.49639 77.6899 3.66097 77.8133 4.07239C78.1013 4.9775 79.2121 5.22434 79.9938 5.55347C80.7755 5.88261 81.1046 6.04718 81.1046 6.54088C81.1046 7.03458 79.9526 7.40484 79.5412 7.52826C78.2247 7.89854 76.8259 7.81627 75.4682 7.77513C74.1105 7.73399 72.4237 7.93969 70.9015 7.69284C69.3793 7.44599 70.2021 8.39226 70.6958 8.47454C72.3003 8.72139 73.8637 8.5568 75.4682 8.5568C77.0727 8.5568 78.2247 8.68023 79.5824 8.35109C80.94 8.02196 82.1331 7.52826 81.8863 6.29402C81.6394 5.05977 80.1583 4.85407 79.2121 4.40152C78.2658 3.94896 78.7184 4.11353 78.595 3.86668C78.4715 3.61983 78.595 3.49641 78.5127 3.33185C78.3893 2.75586 77.9778 2.22102 77.5253 1.89189C77.0727 1.56276 76.6202 1.31589 76.1265 1.15132C75.6328 0.986757 74.7688 1.11018 74.0694 1.15132C73.37 1.19246 73.3288 1.15132 72.9997 0.945615C72.6706 0.739908 72.6294 0.616503 72.4237 0.451937C71.8889 0.081663 71.3129 -0.0829032 70.6547 0.0405215C69.3381 0.246229 68.433 1.23361 67.3222 1.85073C66.2114 2.46786 66.5816 2.22102 66.1702 2.22102C65.7588 2.22102 65.3474 2.17988 64.936 2.22102C64.36 2.3033 63.8252 2.63242 63.4549 3.08498C62.4263 4.36037 62.7555 6.00605 63.1257 7.446L63.4137 6.9523C62.2206 7.32257 61.3978 8.30996 60.9864 9.46192C60.575 10.6139 60.7395 12.5476 60.7395 14.0286C60.7395 15.5097 60.9864 14.4812 61.2332 14.3989C62.3852 14.1521 63.496 13.7406 64.4834 13.0824C65.4708 12.4241 64.6891 12.8767 64.6891 12.7532C64.6891 12.1773 64.6068 11.5601 64.5657 10.9842C64.5246 10.4082 64.4834 9.87335 64.8537 9.50308C65.6765 8.76253 66.8696 9.6265 67.569 10.1202C68.2684 10.6139 67.9393 10.1613 68.0627 10.0379C68.8856 9.25622 69.5438 8.22768 70.8192 8.39225C72.0946 8.55682 71.3129 7.65169 70.8192 7.61055L70.6958 7.69284Z" fill="#161616"/>
<path d="M76.4148 10.6553C75.592 10.2438 74.6868 10.0793 73.7406 10.1616C72.7943 10.2438 73.3292 10.3261 73.3292 10.573C73.3292 10.8198 73.4937 10.9844 73.7406 10.9844C73.9874 10.9844 74.152 10.9844 74.3577 10.9844C74.5634 10.9844 74.5634 10.9844 74.6457 10.9844C74.728 10.9844 74.8103 10.9844 74.8925 10.9844C75.304 11.0667 75.6742 11.1901 76.0034 11.3547C76.3325 11.5192 76.4559 11.3958 76.5382 11.2312C76.6205 11.0667 76.5794 10.7787 76.4148 10.6964V10.6553Z" fill="#161616"/>
<path d="M75.0981 12.8356L75.0158 12.7533C75.0158 12.7533 75.057 12.8356 75.0981 12.8767V12.7945C75.0981 12.8356 75.0981 12.8767 75.0981 12.959V12.8356C75.0981 12.8768 75.0981 12.9179 75.0981 13.0002V12.8767C75.0981 12.9179 75.0981 12.959 75.0981 13.0002V12.9179L75.345 12.7533C75.345 12.7533 75.3038 12.7533 75.2627 12.7533H75.3861C75.3861 12.7533 75.345 12.7533 75.3038 12.7533H75.4272H75.345L75.4272 12.8356C75.4272 12.8356 75.345 12.7945 75.345 12.7533L75.4272 12.8356C75.4272 12.8356 75.3861 12.7533 75.345 12.7122V12.7945C75.345 12.7945 75.345 12.7122 75.345 12.671V12.7945V12.7122V12.8356C75.345 12.8356 75.345 12.7945 75.345 12.7533L75.2215 12.8767C75.2215 12.8767 75.2215 12.8767 75.2627 12.8767H75.1804C75.1804 12.8767 75.2215 12.8767 75.2627 12.8767H75.1393C75.1393 12.8767 75.1804 12.8767 75.2215 12.8767H75.0981H75.1804L75.0981 12.7945C75.0981 12.7945 75.1393 12.8356 75.1804 12.8767L75.0981 12.7945C75.0981 12.7945 75.0981 12.8356 75.1393 12.8767V12.7945C75.1393 12.7945 75.1393 12.8356 75.1393 12.8767V12.7533C75.1393 12.7533 75.1393 12.7945 75.1393 12.8356V12.7122C75.1393 12.7122 75.1393 12.7122 75.1393 12.7533C75.1393 12.8356 75.1393 12.959 75.1393 13.0413C75.1393 13.1236 75.2627 13.2059 75.3861 13.2059C75.5095 13.2059 75.5918 13.2059 75.6741 13.2059C75.7564 13.2059 75.8387 13.0825 75.8387 12.959C75.8798 12.7945 75.8387 12.5888 75.7564 12.4242C75.6741 12.2596 75.7564 12.4242 75.7564 12.3831C75.7564 12.3419 75.6741 12.3008 75.633 12.2596C75.5918 12.2185 75.5507 12.1774 75.5095 12.1774C75.4684 12.1774 75.5095 12.1774 75.4684 12.1774C75.4272 12.1774 75.3861 12.1362 75.3038 12.0951C75.2215 12.0539 75.2627 12.0951 75.2215 12.0951C75.0981 12.0951 75.0158 12.0951 74.8924 12.0951C74.769 12.0951 74.8924 12.0951 74.8513 12.0951C74.769 12.0951 74.6867 12.1773 74.6456 12.2185C74.6044 12.2596 74.5221 12.3831 74.481 12.5065C74.4399 12.6299 74.481 12.671 74.481 12.7122C74.481 12.7533 74.481 12.7122 74.481 12.7533C74.481 12.7945 74.481 12.8768 74.481 12.9179C74.481 13.0825 74.6044 13.2059 74.6867 13.2882C74.769 13.3704 74.8924 13.4939 75.057 13.535C75.2215 13.5762 75.1804 13.535 75.2627 13.535C75.345 13.535 75.4272 13.535 75.4684 13.535C75.5507 13.535 75.5918 13.4939 75.633 13.4527C75.6741 13.4116 75.7152 13.3293 75.7564 13.2882C75.7975 13.247 75.7564 13.247 75.7564 13.2059C75.7564 13.1236 75.7564 13.0002 75.7564 12.9179C75.7564 12.8356 75.7564 12.7122 75.7152 12.6299C75.6741 12.5476 75.6741 12.5065 75.633 12.4653C75.5918 12.4242 75.5507 12.3419 75.5095 12.3008C75.4272 12.2185 75.3038 12.1774 75.2215 12.1774C75.1393 12.1774 75.0158 12.2185 74.9336 12.3008C74.8513 12.3831 74.8101 12.4653 74.8101 12.5888V12.7122C74.8101 12.7945 74.8924 12.8356 74.9336 12.8767L75.0981 12.8356Z" fill="#161616"/>
<path d="M69.1329 57.9677C69.0095 58.05 68.8861 58.1322 68.7627 58.2145C68.6392 58.2968 68.6804 58.2557 68.7215 58.2145C68.7627 58.1734 68.6392 58.2145 68.6804 58.2145C68.6804 58.2145 68.6392 58.2145 68.5981 58.2145C68.5158 58.2145 68.557 58.2145 68.5981 58.2145C68.5981 58.2145 68.5158 58.2145 68.4747 58.2145C68.4747 58.2145 68.4747 58.2145 68.4335 58.2145C68.4335 58.2145 68.4335 58.1734 68.3924 58.1322C68.3924 58.1734 68.3924 58.0911 68.3924 58.0911V58.0088C68.1867 57.3506 68.1456 56.7334 68.1867 56.0752C68.2278 55.4169 67.981 55.6637 67.7753 55.6637C67.5696 55.6637 67.405 55.8283 67.3639 56.0752C67.3639 56.4866 67.3639 56.8569 67.3639 57.2683C67.3639 57.6797 67.4873 58.0911 67.6518 58.5025C67.8164 58.9139 68.1867 59.1608 68.5981 59.1196C69.0095 59.0785 69.2975 58.9139 69.6266 58.7082C69.9558 58.5025 69.8735 58.338 69.7501 58.1734C69.6266 58.0088 69.3798 57.8854 69.2152 58.05L69.1329 57.9677Z" fill="#161616"/>
<path d="M29.9662 19.9945C29.7194 19.5831 29.4725 19.1305 29.2257 18.7191C28.9788 18.3077 28.8554 18.4723 28.6908 18.5957C28.5263 18.7191 28.444 18.9248 28.5674 19.1305C28.8142 19.5831 29.0611 19.9945 29.3079 20.4059C29.5548 20.8173 29.6782 20.6528 29.8428 20.5293C30.0073 20.4059 30.0896 20.2002 29.9662 19.9945Z" fill="#161616"/>
<path d="M28.3611 20.7341C27.9085 20.4461 27.4971 20.1581 27.0446 19.8701C26.592 19.5821 26.592 19.829 26.5097 19.9936C26.4275 20.1581 26.4686 20.405 26.6332 20.5284C27.0857 20.8164 27.4971 21.1044 27.9497 21.3924C28.4022 21.6803 28.4023 21.4335 28.4845 21.2689C28.5668 21.1044 28.5257 20.8575 28.3611 20.7341Z" fill="#161616"/>
<path d="M37.2481 63.1923C35.1087 65.0437 35.1499 68.0882 35.3967 70.6801C35.6436 73.272 36.2195 71.1738 36.1784 70.6801C35.9315 68.2939 35.8081 65.4551 37.7829 63.7683C39.7577 62.0815 37.6183 62.8632 37.2069 63.1923H37.2481Z" fill="white"/>
<path d="M34.7385 63.2339C33.4219 65.3321 33.0105 67.9652 33.6688 70.3514C34.327 72.7376 34.5739 70.6394 34.4505 70.1457C33.8333 67.924 34.2036 65.579 35.4379 63.6453C36.6721 61.7117 35.0264 62.8225 34.7385 63.2339Z" fill="white"/>
<path d="M69.9967 74.0544C68.6801 76.5641 66.5408 78.58 63.9489 79.732C61.3569 80.8839 63.8666 80.6371 64.3603 80.4314C67.0345 79.1971 69.2973 77.0989 70.6961 74.4659C72.0949 71.8328 70.2435 73.6019 69.9967 74.0544Z" fill="white"/>
<path d="M71.4773 76.6458C70.0374 78.7441 68.1037 80.472 65.841 81.7063C65.3884 81.9531 65.7998 82.6525 66.2524 82.4057C68.6386 81.1303 70.6545 79.2789 72.1767 77.0573C73.699 74.8356 71.7653 76.2344 71.4773 76.6458Z" fill="white"/>
<path d="M90.7893 92.5744C85.4409 91.9985 81.8205 85.0867 84.9061 80.5611C85.9346 79.08 87.4569 77.9692 89.1026 77.2698C89.5963 77.0641 90.1311 76.8584 90.6659 76.7761C94.2864 76.159 98.9765 78.9566 100.046 82.4125C100.869 85.1278 100.046 88.2546 97.948 90.1882C97.0429 91.0522 95.8909 91.6694 94.6978 92.0808C93.4224 92.5333 92.0647 92.739 90.7482 92.6156L90.7893 92.5744Z" fill="white"/>
<path d="M90.7891 92.1631C88.0737 91.834 85.811 89.7769 84.7824 87.3084C83.7539 84.8399 84.1242 81.6309 86.2635 79.5738C88.4029 77.5167 89.3903 77.2699 91.1594 77.1053C92.9285 76.9407 94.2038 77.3521 95.5204 78.0516C96.8369 78.751 98.1123 79.7384 98.9351 80.9726C99.758 82.2069 100.128 83.8525 99.9637 85.3747C99.7991 86.897 98.7706 89.1186 97.2483 90.2706C95.7261 91.4226 93.0519 92.3277 90.7891 92.122C88.5263 91.9163 90.2954 92.8625 90.7891 92.9037C94.8621 93.2739 99.182 90.9289 100.457 86.9381C101.733 82.9474 100.992 83.3177 100.293 81.672C99.5934 80.0263 98.4414 78.8744 97.0838 77.9693C95.7261 77.0642 94.0393 76.3648 92.3113 76.2413C90.5834 76.1179 88.5263 76.8996 86.9629 77.9693C85.3996 79.0389 84.2887 80.3555 83.7539 82.0834C83.2191 83.8114 83.3425 85.0456 83.7539 86.4856C84.659 89.7769 87.4155 92.5334 90.8714 92.9037C94.3273 93.2739 91.3651 92.1631 90.8714 92.122L90.7891 92.1631Z" fill="#161616"/>
<path d="M88.9797 84.6758C88.8563 83.8941 90.1728 82.4953 90.6254 81.9193C90.7488 81.7548 90.9134 81.549 91.1191 81.4667C91.3248 81.3845 91.5716 81.4667 91.8185 81.4667C92.7236 81.7136 93.5876 82.0427 94.4516 82.413C94.575 82.4542 94.6984 82.5364 94.7396 82.6599C94.7807 82.7421 94.7396 82.8656 94.7396 82.9479C94.6573 83.9353 94.7807 84.9638 94.5339 85.9101C94.4516 86.1569 94.4104 86.3626 94.2459 86.5683C94.0402 86.8152 93.711 86.8975 93.3819 86.9386C92.7648 87.062 92.1476 87.2266 91.5305 87.35C91.4482 87.35 91.3248 87.3911 91.2014 87.35C91.0779 87.35 90.9545 87.1854 90.8722 87.1031C90.3785 86.5272 89.8849 85.9512 89.3912 85.3752C89.1855 85.1695 89.0209 84.9226 88.9797 84.6347V84.6758Z" fill="#161616"/>
<path d="M89.3497 84.6751C89.3497 84.346 89.5143 84.0168 89.6788 83.77C89.8434 83.5231 90.1725 83.0706 90.4194 82.7414C90.6662 82.4123 90.6251 82.4946 90.7485 82.33C90.8719 82.1655 90.9954 81.9597 91.1599 81.8775C91.3245 81.7952 91.7771 81.8775 91.9828 81.9597C92.1885 82.042 92.5999 82.1243 92.8879 82.2477C93.1759 82.3712 93.4639 82.4534 93.7107 82.5769C93.9576 82.7003 93.9987 82.7003 94.1221 82.7414C94.2456 82.7826 94.2867 82.7826 94.2867 82.9472C94.2867 83.2351 94.2867 83.5643 94.2867 83.8934C94.2867 84.2225 94.2867 84.5105 94.2867 84.8397C94.2867 85.1688 94.2455 85.4157 94.1633 85.7036C94.081 85.9916 94.0398 86.2385 93.8341 86.3619C93.6284 86.4853 93.3816 86.5265 93.1759 86.5676C92.8467 86.6499 92.5176 86.7322 92.1885 86.7733C91.8593 86.8145 91.8593 86.8556 91.6948 86.8967C91.5302 86.9379 91.3656 87.0202 91.2833 86.9379C91.2011 86.8556 91.0365 86.6499 90.9542 86.5676L90.6251 86.1973L89.9257 85.3745C89.72 85.1276 89.432 84.8808 89.3908 84.5517C89.2674 84.058 88.5269 84.2637 88.6091 84.7574C88.6914 85.2511 88.8971 85.4156 89.144 85.6625C89.3908 85.9093 89.6788 86.2796 89.9668 86.6087C90.2548 86.9379 90.4194 87.1847 90.7074 87.4316C90.9954 87.6784 91.2833 87.7607 91.6948 87.7196C92.4353 87.5961 93.1759 87.4316 93.8753 87.2259C94.5747 87.0202 94.8627 86.4442 95.0272 85.7448C95.1918 85.0454 95.1507 84.1814 95.1507 83.3997C95.1507 82.618 95.233 82.7003 95.0272 82.4123C94.8215 82.1243 94.4513 82.0009 94.1221 81.8775C93.3816 81.5483 92.641 81.3015 91.8593 81.0958C91.0777 80.8901 91.1599 80.9724 90.8308 81.1369C90.5017 81.3015 90.3782 81.5483 90.2137 81.754C89.8434 82.2066 89.4731 82.6592 89.144 83.1529C88.8149 83.6466 88.5269 84.0991 88.568 84.6339C88.6092 85.1688 89.432 85.1276 89.3497 84.6339V84.6751Z" fill="#161616"/>
<path d="M88.8982 77.3519C88.9805 77.3519 89.0628 77.2696 89.145 77.2285C89.6387 77.0228 90.1736 76.8171 90.7084 76.7348C91.8604 76.5291 93.0946 76.6937 94.3289 77.1051C94.1643 77.4754 93.9997 77.8045 93.7529 78.0925C93.3415 78.6685 92.7243 79.0799 92.0249 79.121C91.2021 79.1622 90.4616 78.6685 89.8033 78.2159C89.4742 77.9691 89.1039 77.6811 88.8982 77.3519Z" fill="#161616"/>
<path d="M89.1039 77.6814C89.8856 77.3111 90.7084 77.0643 91.5724 77.0643C92.4364 77.0643 93.3826 77.2288 94.2466 77.4757L93.9998 76.8997C93.5883 77.7637 92.9301 78.7922 91.8604 78.7511C90.7907 78.7099 90.873 78.4631 90.4616 78.2162C90.0502 77.9694 89.5565 77.5991 89.2273 77.1877C88.8982 76.7763 88.2399 77.1877 88.5279 77.5991C88.8159 78.0105 89.433 78.5454 90.009 78.9156C90.585 79.2859 91.161 79.5739 91.8192 79.615C93.1769 79.6562 94.1232 78.5042 94.658 77.3934C95.1929 76.2826 94.658 76.8997 94.4112 76.8174C93.4649 76.4883 92.4364 76.3237 91.449 76.3649C90.4616 76.406 89.5565 76.694 88.6925 77.1054C87.8285 77.5168 88.6514 78.0105 89.1039 77.8048V77.6814Z" fill="#161616"/>
<path d="M99.1839 85.0875C98.6902 84.5526 98.2377 84.0589 97.744 83.5241C97.456 83.2361 97.168 82.8658 97.2091 82.4544C97.2503 82.1664 97.4971 81.9195 97.744 81.755C98.2377 81.3847 98.7314 81.0556 99.2662 80.7264C99.6365 81.2613 99.9245 81.8373 100.089 82.4133C100.418 83.4418 100.5 84.5937 100.336 85.6634C99.9245 85.7869 99.4719 85.4166 99.1839 85.0875Z" fill="#161616"/>
<path d="M99.4715 84.7991C99.1012 84.4289 98.7721 84.0586 98.4018 83.6883C98.0315 83.318 97.7024 83.0712 97.6201 82.7009C97.5378 82.3306 97.9904 82.0426 98.2372 81.8781C98.6486 81.5901 99.0601 81.3432 99.4715 81.0964L98.9366 80.973C99.8418 82.3306 100.171 83.9763 99.9652 85.5808L100.253 85.2928C99.9652 85.3751 99.636 85.0048 99.4715 84.8403C99.1012 84.47 98.5664 85.046 98.8955 85.4163C99.2246 85.7865 99.8417 86.2391 100.459 86.0745C101.076 85.9099 100.706 85.9099 100.747 85.7865C100.994 83.9351 100.665 82.1249 99.636 80.5616C98.6075 78.9982 99.3069 80.3147 99.1012 80.4381C98.6075 80.7261 98.1138 81.0553 97.6612 81.3844C97.2087 81.7135 96.8384 82.1249 96.8384 82.7009C96.8384 83.2769 97.291 83.6883 97.6612 84.0586C98.0315 84.4289 98.5252 84.9637 98.9366 85.4163C99.3481 85.8688 99.8417 85.2105 99.5126 84.8403L99.4715 84.7991Z" fill="#161616"/>
<path d="M93.9166 92.2872C94.1634 91.1352 94.5749 90.0244 95.2331 89.037C96.3439 89.1604 97.4548 89.325 98.5656 89.5718C98.401 89.7775 98.1953 89.9832 97.9896 90.1478C97.0845 91.0118 95.9325 91.6289 94.7394 92.0403C94.4514 92.1226 94.1634 92.2049 93.8754 92.2872H93.9166Z" fill="#161616"/>
<path d="M94.3282 92.4102C94.5751 91.2994 94.9865 90.2297 95.6036 89.2423L95.2745 89.4481C96.3441 89.5715 97.455 89.736 98.5247 89.9829L98.3601 89.3246C97.2081 90.6823 95.6036 91.5051 93.8756 91.9165C92.1477 92.328 93.5876 92.8217 94.0813 92.6982C95.8916 92.2045 97.6607 91.3406 98.8949 89.9006C100.129 88.4606 99.0183 89.3246 98.7304 89.2423C97.5784 88.9955 96.4264 88.7898 95.2745 88.6664C94.1225 88.5429 94.9865 88.7486 94.9453 88.8721C94.2871 89.9006 93.8345 91.0526 93.5877 92.2457C93.3408 93.4388 94.2459 92.9451 94.3693 92.4514L94.3282 92.4102Z" fill="#161616"/>
<path d="M85.1943 88.9133C85.8525 88.8311 86.5108 88.7899 87.1691 88.7899C87.5393 88.7899 87.9096 88.831 88.1565 89.0779C88.321 89.2425 88.4033 89.4482 88.4856 89.6539C88.7736 90.4356 88.9382 91.2584 89.0616 92.0812C87.4982 91.4641 86.1405 90.3121 85.1943 88.8722V88.9133Z" fill="#161616"/>
<path d="M85.1946 89.3246C85.6883 89.2423 86.2231 89.2012 86.7168 89.2012C87.2105 89.2012 87.6219 89.1189 87.9099 89.4069C88.1979 89.6949 88.0745 89.736 88.1568 89.9417C88.2391 90.1474 88.3213 90.4354 88.3625 90.6823C88.4859 91.176 88.6093 91.7108 88.6505 92.2457L89.1442 91.752C87.6631 91.176 86.3877 90.0652 85.5237 88.7075C84.6597 87.3498 84.5775 88.7075 84.8243 89.1189C85.8117 90.6411 87.2105 91.8754 88.9385 92.5337C90.6664 93.1919 89.2264 92.5336 89.3087 92.4514C89.391 92.3691 89.4322 92.2045 89.391 92.0811C89.3087 91.5051 89.1853 90.9291 89.0207 90.3532C88.8562 89.7772 88.7739 89.2423 88.3625 88.872C87.9511 88.5018 87.4162 88.4606 86.8814 88.4606C86.3465 88.4606 85.6883 88.4606 85.1123 88.5841C84.5363 88.7075 84.7009 88.7486 84.7009 88.9955C84.7009 89.2423 84.8654 89.4069 85.1123 89.4069L85.1946 89.3246Z" fill="#161616"/>
<path d="M84.9485 80.5197C85.1542 80.2317 85.36 79.9437 85.6068 79.6969C86.0182 80.314 86.3885 80.9312 86.7999 81.5894C87.0056 81.9186 87.2113 82.2888 87.1291 82.6591C87.0468 82.9471 86.8411 83.1528 86.6353 83.3174C85.8125 83.9756 84.8251 84.4282 83.7966 84.5928C83.7554 83.1939 84.0846 81.754 84.9485 80.5197Z" fill="#161616"/>
<path d="M85.2774 80.7261C85.4419 80.4793 85.6476 80.2324 85.8534 79.9856L85.2362 79.9033C85.5654 80.4381 85.9356 80.9729 86.2648 81.5489C86.5939 82.1249 86.9642 82.4541 86.5116 82.8655C85.7711 83.606 84.6603 84.0586 83.6317 84.2231L84.1254 84.5934C84.0843 83.1946 84.4545 81.8781 85.1951 80.7261C85.9356 79.5741 84.7837 79.9033 84.4957 80.3147C83.6317 81.5901 83.2614 83.0712 83.3026 84.5934C83.3437 86.1157 83.5494 85.0048 83.7963 84.9637C84.4134 84.8403 85.0305 84.6757 85.6065 84.3877C86.1825 84.0997 86.7585 83.7294 87.1699 83.2357C87.5813 82.7421 87.4167 82.0015 87.0465 81.4255C86.6762 80.8495 86.2236 80.1501 85.8122 79.533C85.4008 78.9159 85.3597 79.245 85.1951 79.4507C84.9482 79.7387 84.7014 80.0267 84.4957 80.3558C84.29 80.685 84.9071 81.1787 85.1951 80.7673L85.2774 80.7261Z" fill="#161616"/>
</svg>
